<?xml version="1.0" encoding="UTF-8" standalone="no"?>
<!-- Created with Inkscape (http://www.inkscape.org/) -->

<svg
   xmlns:dc="http://purl.org/dc/elements/1.1/"
   xmlns:cc="http://creativecommons.org/ns#"
   xmlns:rdf="http://www.w3.org/1999/02/22-rdf-syntax-ns#"
   xmlns:svg="http://www.w3.org/2000/svg"
   xmlns="http://www.w3.org/2000/svg"
   xmlns:sodipodi="http://sodipodi.sourceforge.net/DTD/sodipodi-0.dtd"
   xmlns:inkscape="http://www.inkscape.org/namespaces/inkscape"
   id="svg2"
   version="1.1"
   inkscape:version="0.92.3 (2405546, 2018-03-11)"
   width="750"
   height="693"
   viewBox="0 0 750 693"
   sodipodi:docname="3d-print.svg">
  <metadata
     id="metadata8">
    <rdf:RDF>
      <cc:Work
         rdf:about="">
        <dc:format>image/svg+xml</dc:format>
        <dc:type
           rdf:resource="http://purl.org/dc/dcmitype/StillImage" />
        <dc:title />
      </cc:Work>
    </rdf:RDF>
  </metadata>
  <defs
     id="defs6" />
  <sodipodi:namedview
     pagecolor="#ffffff"
     bordercolor="#666666"
     borderopacity="1"
     objecttolerance="10"
     gridtolerance="10"
     guidetolerance="10"
     inkscape:pageopacity="0"
     inkscape:pageshadow="2"
     inkscape:window-width="1366"
     inkscape:window-height="714"
     id="namedview4"
     showgrid="false"
     inkscape:zoom="0.41858515"
     inkscape:cx="30.857628"
     inkscape:cy="105.14161"
     inkscape:window-x="0"
     inkscape:window-y="0"
     inkscape:window-maximized="1"
     inkscape:current-layer="svg2"
     showguides="true" />
  <path
     style="fill:#000000;stroke-width:1.83299851"
     d="M 6.9540174,348.78946 V 6.4769451 H 376.35103 745.74805 V 348.78946 691.10197 H 376.35103 6.9540174 Z M 238.06394,563.39989 c 0,-31.21606 0.63934,-56.734 1.42076,-56.70654 0.78142,0.0275 29.12554,13.39747 62.98693,29.71114 l 61.56617,29.66122 0.52293,27.04533 0.52292,27.04533 h 8.42586 8.42588 l 0.52291,-26.71697 0.52293,-26.71698 62.35139,-30.0395 c 34.29327,-16.52173 62.63739,-30.03951 62.98694,-30.03951 0.34954,0 0.63552,25.54042 0.63552,56.75648 v 56.75648 h 63.52136 c 53.14157,0 64.67222,-0.45012 70.56431,-2.75455 8.88104,-3.47344 16.77337,-10.43665 21.42401,-18.90187 3.47856,-6.33179 3.6152,-12.61626 3.6152,-166.27875 V 272.52294 H 561.99671 455.91347 v 39.02008 39.02007 h -20.83779 -20.83777 v 22.17051 22.1705 h -6.67749 c -3.81896,0 -12.13428,2.57289 -19.42439,6.01021 l -12.74691,6.0102 -12.30587,-5.92414 c -6.76822,-3.25829 -15.07634,-5.96287 -18.46247,-6.01021 l -6.15662,-0.086 V 372.79172 350.6793 l -21.31137,-0.50149 -21.31137,-0.5015 -0.51051,-38.57667 -0.51053,-38.57667 H 189.72124 84.622105 v 159.69826 c 0,153.66249 0.136585,159.94696 3.615204,166.27875 1.988365,3.61928 6.037525,8.73135 8.998136,11.36017 11.100575,9.85654 13.399965,10.15146 79.735925,10.22683 l 61.09257,0.0693 z M 312.51721,517.505 c -33.54577,-16.27596 -61.45007,-30.02124 -62.00956,-30.54507 -0.55949,-0.52384 27.38444,-14.64372 62.09762,-31.3775 l 63.11487,-30.42505 62.35521,29.9923 c 34.29536,16.49575 62.1765,30.6399 61.9581,31.4314 -0.47358,1.71637 -121.89177,60.77754 -124.62959,60.6233 -1.04189,-0.0587 -29.34088,-13.42342 -62.88665,-29.69938 z M 294.89426,189.16187 v -28.37824 h 33.8174 33.81742 l 1.16495,-14.14417 c 1.43092,-17.37348 6.12725,-26.67371 16.81484,-33.29872 l 7.87167,-4.8795 84.44015,-0.88682 c 46.44209,-0.48774 85.50573,-1.53253 86.8081,-2.32172 1.54487,-0.93617 2.36792,-6.02214 2.36792,-14.632542 V 77.422544 H 339.35049 c -243.795822,0 -229.86618,-0.592161 -242.115045,10.292516 -12.41432,11.031687 -12.61334,12.197507 -12.61334,73.88472 v 55.94033 H 189.75818 294.89426 Z m 373.1857,-27.56209 c 0,-61.687213 -0.19902,-62.853033 -12.61334,-73.88472 -9.30663,-8.270123 -17.3695,-10.292516 -41.03421,-10.292516 h -21.5654 l -1.10433,15.959367 c -1.30074,18.797929 -5.55529,27.483419 -17.14869,35.008409 l -7.55213,4.90188 -84.35972,0.51402 c -56.9743,0.34717 -85.16191,1.13738 -86.83086,2.43423 -1.55927,1.21163 -2.47115,6.09424 -2.47115,13.23168 v 11.3115 h 31.25667 31.25667 v 28.37824 28.37824 h 106.08324 106.08325 z"
     id="path823"
     inkscape:connector-curvature="0" />
</svg>
