<?xml version="1.0" encoding="UTF-8" standalone="no"?><svg xmlns="http://www.w3.org/2000/svg" width="750" height="692.78"><path d="M365.402 691.268c-4.77-1.009-14.395-5.705-33.218-16.235-14.577-8.155-26.759-14.825-27.07-14.825-.309 0-2.962-1.58-5.895-3.5-2.931-1.916-5.643-3.5-6.028-3.5-.401 0-4.227-2.084-8.533-4.666-4.307-2.555-8.141-4.666-8.524-4.666-.37 0-2.128-.975-3.871-2.186-1.759-1.21-6.417-3.86-10.368-5.913-3.955-2.051-8.808-4.717-10.785-5.92-3.82-2.32-4.578-2.757-18.568-10.362-4.945-2.69-9.795-5.382-10.785-5.987-.987-.606-6.648-3.78-12.58-7.06a24033.8 24033.8 0 0 1-43.728-24.39c-18.12-10.133-36.22-20.189-40.218-22.344-38.548-20.79-45.26-25.516-50.274-35.417-2.19-4.334-2.375-7.625-2.715-46.159l-.37-41.492-14.622-8.22c-19.83-11.148-23.482-13.162-37.632-20.76C5.662 400.17 1.772 396.361.652 389.087c-1.265-8.183-5.667 0 47.353-88.768 10.723-17.965 20.446-34.287 21.612-36.274l2.129-3.61-3.449-1.985c-5.95-3.422-23.513-20.366-30.565-29.49-13.42-17.36-23.553-40.12-27.381-61.492-2.376-13.263-2.376-36.002 0-49.262C20.929 59.141 69.306 12.037 129.964 1.74c13.62-2.32 36.975-2.32 50.595 0 46.813 7.947 87.234 38.03 107.69 80.144 4.88 10.048 11.358 29.01 11.398 33.376.01 1.043.463 2.589 1.018 3.446.988 1.513 3.76.336 20.53-9.312 35.304-20.124 38.07-21.506 46.486-23.21 5.732-1.144 8.194-1.076 15.332.571 4.677 1.076 9.53 2.622 10.782 3.473 2.283 1.513 53.143 30.048 64.579 36.22 11.855 6.398 16.843 9.185 20.967 11.71 2.314 1.412 11.202 6.411 19.768 11.111 8.567 4.703 23.661 13.004 33.545 18.443 9.884 5.443 19.86 10.93 22.165 12.19a6207.135 6207.135 0 0 1 20.968 11.686c9.224 5.164 20.987 11.676 26.132 14.473 5.152 2.79 11.35 6.29 13.78 7.766 2.437 1.48 8.774 4.835 14.095 7.46 9.276 4.573 26.305 14.255 35.325 20.08 2.345 1.514 6.66 5.874 9.585 9.69 11.522 15.024 42.901 54.647 48.525 61.27 2.005 2.387 4.973 6.162 6.561 8.408 1.605 2.252 5.522 7.235 8.74 11.084 7.144 8.546 10.319 14.91 10.353 20.763 0 4.919-2.53 10.637-5.494 12.25-1.697.909-1.389 2.018 2.406 8.984 4.535 8.32 5.084 11.44 3.156 17.983-1.728 5.819-5.137 8.767-18.547 15.968-13.98 7.51-17.691 9.558-37.493 20.693l-14.678 8.253v39.573c0 26.038-.463 41.082-1.358 43.977-1.82 5.9-8.816 14.674-15.42 19.33-2.962 2.085-5.763 3.833-6.217 3.877-.463 0-9.171 4.777-19.373 10.516-10.202 5.745-23.352 12.963-29.226 16.043-5.87 3.092-15.754 8.435-21.958 11.9a3754.683 3754.683 0 0 1-14.879 8.28c-1.974 1.077-8.717 4.855-14.977 8.379-6.259 3.523-12.46 6.986-13.777 7.698-1.326.706-8.866 4.939-16.775 9.39-7.907 4.451-16.532 9.262-19.17 10.694a4614.696 4614.696 0 0 0-24.558 13.73c-10.875 6.122-22.733 12.711-26.358 14.644-3.624 1.95-10.365 5.722-14.977 8.422-4.612 2.69-11.352 6.39-14.977 8.203-3.621 1.815-6.857 3.614-7.188 4.004-.647.773-14.196 8.153-22.815 12.429-5.118 2.521-15.869 5.184-20.178 4.965-1.05 0-4.955-.74-8.65-1.512zm-9.459-122.245c0-42.453-.308-76.943-.555-76.64-.617.605-3.656 6.122-15.304 27.836-16.196 30.196-17.973 33.346-20.94 37.162-3.76 4.838-9.912 7.504-15.073 6.529-4.772-.908-6.583-1.815-33.477-16.796a66938.71 66938.71 0 0 0-41.038-22.85c-10.544-5.864-24.562-13.73-31.151-17.48-6.59-3.748-14.407-8.125-17.371-9.729-6.238-3.368-41.658-23.075-44.33-24.659-5.12-3.06-20.027-11.182-21.742-11.877-1.08-.438-2.345-1.345-2.777-2.051-2.467-3.897-3.054.74-3.054 24.72 0 25.291 0 26.004 2.56 27.527 4.098 2.488 50.383 28.162 50.778 28.162.308 0 3.22 1.85 6.722 4.085 3.504 2.252 6.706 4.081 7.123 4.081.71 0 12.987 6.768 27.209 14.994 3.489 2.018 6.601 3.671 6.916 3.671.308 0 4.905 2.488 10.195 5.54 12.83 7.39 13.145 7.565 44.836 25.11 15.156 8.395 32.832 18.316 39.28 22.055 6.447 3.735 12.12 6.79 12.608 6.79.493 0 3.572 1.715 6.857 3.793 3.289 2.084 8.937 5.325 12.553 7.204 3.618 1.883 9.004 4.885 11.97 6.687 2.96 1.782 5.795 3.295 6.29 3.295.493.013.894-34.712.894-77.162zm52.261 69.816c7.17-4.054 15.998-8.962 19.623-10.916 12.59-6.774 32.971-18.19 37.142-20.803 2.314-1.446 7.718-4.478 12.025-6.737 4.31-2.253 10.778-5.806 14.379-7.88 3.596-2.085 17.864-10.07 31.703-17.758 34.159-18.984 62.302-34.725 91.95-51.43l24.862-14.009v-26.222c0-24.868 0-26.129-2.098-24.441-1.141.975-2.622 1.983-3.295 2.219-1.08.403-16.56 8.912-20.964 11.53-2.684 1.58-38.092 21.292-44.33 24.66-2.962 1.614-10.782 5.98-17.371 9.73-6.59 3.748-20.607 11.615-31.151 17.478a58430.267 58430.267 0 0 0-41.038 22.85c-32.965 18.37-34.125 18.814-41.409 15.852-4.945-2.017-8.557-6.482-15.22-18.83a24070.418 24070.418 0 0 1-23.371-43.466c-2.5-4.656-4.662-8.33-4.81-8.166-.308.336-.648 34.82-1.141 77.004-.586 50.025-.463 76.701.308 76.701.648 0 7.043-3.328 14.212-7.369zM302.606 512.571c2.067-3.813 7.857-14.544 12.867-23.846a8527.229 8527.229 0 0 1 12.925-23.917 5951.93 5951.93 0 0 0 12.241-22.696c9.671-18.003 10.233-15.353-5.065-23.866a5565.83 5565.83 0 0 1-24.602-13.844c-8.588-4.865-18.293-10.22-21.563-11.894-3.273-1.681-10.532-5.709-16.134-8.96-5.602-3.26-16.113-9.178-23.362-13.178-12.29-6.784-32.471-18.13-40.736-22.901-1.974-1.143-6.83-3.752-10.782-5.8-3.954-2.05-9.507-5.234-12.339-7.076-2.838-1.85-5.433-3.362-5.775-3.362-.524 0-19.469-10.425-41.575-22.898-3.837-2.152-7.197-3.933-7.468-3.933-.309 0-3.872-2.017-8.003-4.458-4.127-2.454-10.905-6.216-15.054-8.361-6.426-3.329-7.77-3.655-9.054-2.253-.833.908-6.29 9.528-12.136 19.15a12406.865 12406.865 0 0 1-22.79 37.33c-13.602 22.178-19.76 32.64-19.76 33.575 0 .336 4.171 2.891 9.268 5.688 5.096 2.79 11.7 6.395 14.677 8.018 2.962 1.614 7.688 4.378 10.477 6.122 2.776 1.749 5.355 3.16 5.704 3.16.339 0 8.045 4.132 17.096 9.185a61315.08 61315.08 0 0 0 66.18 36.85c3.625 2.017 7.4 4.027 8.388 4.471.987.437 2.622 1.311 3.594 1.95 2.714 1.748 20.517 11.703 20.896 11.703.309 0 9.437 5.16 20.567 11.467 11.13 6.304 22.665 12.792 25.63 14.412 2.961 1.614 12.549 6.96 21.298 11.865 8.748 4.905 16.143 8.919 16.43 8.919.308 0 3.088 1.58 6.216 3.513 3.13 1.916 6.206 3.362 6.839 3.126.617-.336 2.838-3.493 4.905-7.305zm156.776 4.148c3.12-1.916 5.905-3.496 6.195-3.496.308 0 7.684-4.014 16.433-8.92 8.749-4.904 18.33-10.243 21.295-11.863 2.961-1.614 14.499-8.11 25.629-14.413 11.13-6.307 20.385-11.467 20.567-11.467.308 0 4.285-2.253 9.119-5.033 4.83-2.757 9.594-5.392 10.581-5.826.987-.437 2.591-1.311 3.594-1.95.987-.639 5.031-2.925 8.986-5.066 6.885-3.732 31.605-17.462 66.778-37.089 9.055-5.049 16.748-9.184 17.097-9.184.34 0 2.93-1.412 5.704-3.16 2.776-1.749 7.502-4.502 10.48-6.126 2.96-1.613 9.578-5.23 14.674-8.014 5.1-2.79 9.267-5.346 9.267-5.692 0-.941-6.213-11.49-19.771-33.575a15983.308 15983.308 0 0 1-23.458-38.339c-6.206-10.18-11.88-18.736-12.607-19.018-.74-.336-14.21 6.714-29.952 15.538-15.745 8.825-32.403 18.057-37.015 20.511-4.612 2.454-9.196 4.952-10.183 5.55-3.224 1.95-24.867 14.134-53.313 30.019-9.227 5.15-25.94 14.51-37.142 20.797-11.201 6.286-23.322 12.983-26.934 14.883-3.612 1.882-8.588 4.693-11.06 6.209-2.467 1.513-4.762 2.757-5.093 2.757-.339 0-4.124 2.084-8.43 4.666-4.307 2.555-8.28 4.666-8.826 4.666-.556 0-3.138 1.513-5.754 3.362-2.622 1.85-5.796 3.692-7.067 4.102-1.265.403-3.588 1.714-5.143 2.857l-2.838 2.118 8.4 15.646a7588.877 7588.877 0 0 0 23.59 43.644c3.493 6.415 7.845 14.554 9.68 18.084 5.22 10.049 9.061 16.329 9.99 16.329.462 0 3.4-1.58 6.515-3.5zM201.894 293.332c3.825-2.252 11.04-6.233 16.032-8.872 4.994-2.622 12.984-7.1 17.753-9.92 4.773-2.825 8.943-5.127 9.27-5.127.34 0 3.736-1.782 7.574-3.988 13.835-7.907 75.305-42.245 77.063-43.045.987-.47 7.188-3.927 13.777-7.722l11.982-6.902.308-38.026.309-38.027-5.707 2.959c-3.138 1.613-15.363 8.36-27.163 14.98l-21.455 12.032-2.684 11.589c-10.232 44.155-39.517 79.932-81.098 99.081-12.198 5.615-28.847 10.694-38.805 11.834-3.532.403-6.41 1.042-6.395 1.446 0 .874 19.275 11.628 21.008 11.726.71 0 4.396-1.748 8.221-4.008zm387.25-14.237c18.047-10.076 32.654-18.78 32.46-19.345-.309-.907-17.52-10.784-61.39-35.232a18198.888 18198.888 0 0 1-39.387-22.054c-14.416-8.092-26.422-14.711-26.681-14.711-.309 0-2.591-1.312-5.155-2.892-2.56-1.58-11.325-6.488-19.444-10.902-8.12-4.414-28.066-15.455-44.33-24.535-16.26-9.08-30.151-16.51-30.864-16.51-.925 0-1.203 11.299-.987 38.184l.308 38.184 8.385 4.949c4.612 2.723 9.804 4.962 11.534 4.979 1.728 0 3.82.806 4.64 1.781.833.975 1.944 1.749 2.468 1.749.802 0 51.061 27.856 76.992 42.675 3.838 2.185 7.244 3.987 7.574 3.987.34 0 4.5 2.32 9.27 5.127 4.772 2.824 12.759 7.286 17.753 9.921 4.995 2.622 12.207 6.63 16.032 8.872 3.823 2.253 7.188 4.078 7.478 4.078.309 0 15.289-8.243 33.335-18.315zm-413.512-28.22c23.195-4.676 41.646-14.321 58.162-30.405 15.338-14.933 25.33-32.267 30.723-53.292 2.838-11.094 2.838-38.746 0-49.84-5.393-21.025-15.385-38.359-30.723-53.293C196.2 27.438 139.2 21.087 93.88 48.456c-18.688 11.286-36.294 31.817-44.558 51.965-6.309 15.377-7.762 23.214-7.762 41.835 0 18.625 1.45 26.462 7.762 41.839 11.1 27.06 35.402 50.58 63.129 61.099 20.422 7.745 42.91 9.77 63.181 5.681zm-31.46-24.619c-2.159-1.277-4.978-4.027-6.286-6.122-2.222-3.52-2.376-5.92-2.376-32.67v-28.872l-29.053-.011c-26.879 0-29.347-.336-32.959-2.32-11.571-6.872-11.571-23.476 0-30.344 3.612-2.152 6.08-2.32 32.959-2.32h29.053v-28.29c0-26.17.309-28.573 2.376-32.093 7.055-11.265 24.108-11.265 31.163 0 2.19 3.52 2.375 5.924 2.375 32.093v28.29h29.652c27.477 0 29.939.336 33.558 2.32 5.46 3.227 8.668 8.855 8.668 15.172s-3.208 11.928-8.668 15.172c-3.616 2.152-6.08 2.32-33.558 2.32l-29.652.01v28.872c0 26.75-.308 29.151-2.375 32.671-5.08 8.116-16.702 10.977-24.876 6.122z"/></svg>