<?xml version="1.0" encoding="UTF-8" standalone="no"?><svg xmlns="http://www.w3.org/2000/svg" width="750" height="655.681"><path d="M117.003 653.389c-2.138-1.272-4.872-3.773-6.078-5.566-2.085-3.094-2.226-12.316-2.802-183.023l-.607-179.766-10.334-3.79c-50.112-18.38-86.292-60.61-95.374-111.318-2.41-13.456-2.41-36.531 0-49.987C12.54 60.007 61.628 12.21 123.18 1.76c13.82-2.347 37.518-2.347 51.338 0 45.216 7.677 84.898 35.863 106.31 75.508 10.844 20.078 16.945 43.008 16.945 63.68v10.503l176.581-.307 176.582-.307.607-54.662c.589-52.938.689-54.766 3.127-58.002 7.688-10.2 27.225-9.818 50.042.976 14.922 7.062 29.226 20.915 36.56 35.41 9.343 18.466 8.7-1.402 8.724 269.326.026 236.37-.031 243.004-2.336 251.74-4.33 16.487-10.748 27.02-24.005 39.397-9.606 8.967-20.762 14.813-34.922 18.297-9.476 2.334-13.66 2.368-288.73 2.361-274.512-.01-279.178 0-282.999-2.31zm564.714-35.406c17.398-5.272 28.718-19.039 30.246-36.786 1.136-13.21-3.77-25.405-13.94-34.648-5.371-4.882-20.05-10.4-27.666-10.4-5.39 0-11.417-2.622-15.322-6.671l-2.883-2.989-.608-169.472-.607-169.472-179.456-.307-179.456-.307-2.72 7.402c-12.49 33.986-40.182 64.203-73.941 80.686-18.622 9.09-42.49 14.904-61.202 14.904h-9.566V454.26c0 90.385.366 164.694.81 165.127.445.437 119.658.785 264.916.785 254.399 0 264.373-.137 271.396-2.21zm-397.924-62.197c-2.007-.863-5.015-3.02-6.687-4.783l-3.04-3.206-.353-39.496-.354-39.495-25.885-.359-25.886-.358-4.462-3.316c-8.297-6.173-8.104-4.749-8.104-59.783 0-49.487.01-49.608 2.736-53.513 6.05-8.655 6.708-8.826 35.645-9.226l26.052-.358V264.08l3.287-3.804c6.175-7.145 4.924-7.032 77.558-7.032 72.633 0 71.382-.137 77.557 7.032l3.287 3.804v79.126h37.687v-28.769l3.95-5.126c2.586-3.353 5.423-5.541 8.207-6.323 5.913-1.665 76.313-1.593 81.247.136 2.094.706 5.457 3.479 7.475 6.151l3.672 4.861v181.476l-2.736 3.913c-1.506 2.152-4.28 5.028-6.168 6.389-3.319 2.395-4.752 2.476-43.372 2.476-38.621 0-40.053-.136-43.372-2.476-7.647-5.518-8.904-8.951-8.904-24.333v-14.03h-37.686v79.128l-3.287 3.804c-6.181 7.153-4.883 7.036-77.823 6.986-52.784 0-67.355-.372-70.246-1.624zm114.586-150.733l.313-116.3h-88.759V404.56c0 63.694.37 116.169.827 116.61.45.437 20.285.669 44.07.488l43.243-.307.313-116.3zm142.242 0l-.316-67.175h-30.393l-.316 67.175-.316 67.176h31.648l-.316-67.176zm-267.162.307v-26.633h-27.353l.344 26.635.344 26.634h26.657v-26.633zm199.376 0v-25.449h-37.687v50.899h37.687v-25.45zM712.04 304.92l-.32-206.38-4.254-8.106c-2.999-5.715-6.151-9.608-10.683-13.198-3.536-2.8-6.956-5.09-7.602-5.09-.751 0-1.064 77.444-.867 215.09l.313 215.091 3.71.747c2.042.413 6.966 2.371 10.942 4.37 3.977 2 7.647 3.685 8.156 3.749.51.136.782-92.754.607-206.265zm-542.524-50.35c38.513-7.764 70.241-33.239 84.403-67.763 6.4-15.605 7.875-23.555 7.875-42.451 0-18.898-1.475-26.848-7.875-42.452-11.264-27.46-35.936-51.338-64.058-61.995-34.35-13.016-71.994-9.64-103.299 9.265C67.6 60.625 49.735 81.458 41.35 101.903c-6.4 15.604-7.875 23.554-7.875 42.452 0 18.896 1.474 26.846 7.875 42.45 11.262 27.458 35.922 51.327 64.057 61.999 20.722 7.86 43.541 9.913 64.11 5.765zm-31.923-24.982c-2.179-1.293-5.05-4.087-6.378-6.209-2.238-3.575-2.417-6.01-2.42-33.155l-.01-29.297h-29.48c-27.274 0-29.778-.17-33.444-2.357-11.742-6.971-11.742-23.818 0-30.79 3.666-2.176 6.17-2.35 33.444-2.357h29.48l.01-28.705c0-26.555.188-28.994 2.42-32.564 7.16-11.432 24.462-11.432 31.622 0 2.235 3.57 2.416 6.009 2.42 32.564v28.705l30.088.009c27.88 0 30.38.17 34.051 2.357 11.742 6.971 11.742 23.819 0 30.79-3.671 2.18-6.172 2.35-34.05 2.357h-30.09l-.01 29.296c0 27.146-.187 29.58-2.42 33.155-5.156 8.234-16.947 11.135-25.243 6.21z"/></svg>