<?xml version="1.0" encoding="UTF-8" standalone="no"?><svg xmlns="http://www.w3.org/2000/svg" width="750" height="750"><path d="M354 727.152v-22.847l10.611 5.32c5.837 2.925 12.924 6.18 15.75 7.234l5.139 1.916.275 15.612.276 15.613H354v-22.848zm93-19.62c-48.784-7.055-89.531-26.962-124.87-61.006-42.645-41.081-66.25-97.387-66.222-157.963.013-29.13 4.319-52.873 14.315-78.94l3.02-7.877-136.621-136.624L0 128.497V0h126.497l139.646 139.643L405.79 279.286l11.355-3.1c52.282-14.274 106.068-9.498 154.356 13.707 95.603 45.943 144.806 152.458 118.013 255.471-2.758 10.602-8.424 26.493-11.905 33.389l-2.147 4.253-56.98-78.12c-37.446-51.339-58.932-79.93-62.672-83.396-17.46-16.183-44.977-18.933-65.07-6.504-10.566 6.536-86.635 62.642-92.04 67.886-6.647 6.448-12.851 17.727-14.73 26.776-1.478 7.121-.764 22.11 1.374 28.852.872 2.75 3.084 7.475 4.914 10.5 1.83 3.025 28.418 39.866 59.083 81.869 30.666 42.002 55.48 76.644 55.143 76.981-1.319 1.319-47.95 1.06-57.483-.318zm44.836-55.24c-2.12-2.452-53.211-72.296-54.71-74.792-1.042-1.733 1.387-7.88 18.177-46l19.378-44 45.91-5.197c25.25-2.858 47.034-5.206 48.409-5.218 2.142-.019 6.436 5.355 30 37.541 15.125 20.66 27.861 38.32 28.303 39.245.564 1.181-4.948 14.77-18.52 45.655L589.46 643.5l-41.48 4.624c-59.627 6.646-54.34 6.253-56.144 4.168zm50.704-46.844c20.587-5.36 34.04-25.808 30.47-46.309-5.247-30.131-38.26-44.704-63.831-28.176-6.728 4.348-11.135 9.568-14.945 17.701-2.46 5.252-2.734 6.94-2.734 16.857 0 10.445.172 11.37 3.297 17.718 8.988 18.258 28.342 27.261 47.743 22.209zM369.75 200.251L354 184.477V135h396v33H386.036l-.268 24.013-.268 24.012-15.75-15.774z"/></svg>