<?xml version="1.0" encoding="UTF-8" standalone="no"?>
<svg
   xmlns:dc="http://purl.org/dc/elements/1.1/"
   xmlns:cc="http://creativecommons.org/ns#"
   xmlns:rdf="http://www.w3.org/1999/02/22-rdf-syntax-ns#"
   xmlns:svg="http://www.w3.org/2000/svg"
   xmlns="http://www.w3.org/2000/svg"
   id="svg2"
   version="1.1"
   width="724.00043"
   height="724"
   viewBox="0 0 724.00043 724">
  <metadata
     id="metadata8">
    <rdf:RDF>
      <cc:Work
         rdf:about="">
        <dc:format>image/svg+xml</dc:format>
        <dc:type
           rdf:resource="http://purl.org/dc/dcmitype/StillImage" />
        <dc:title></dc:title>
      </cc:Work>
    </rdf:RDF>
  </metadata>
  <defs
     id="defs6" />
  <g
     transform="matrix(1.2190995,0,0,1.6271487,0.40355441,-435.59029)"
     id="g908" />
  <path
     d="M 321.04764,483.20938 H 724.53555 V 724.00279 H 321.04764 Z M 1.5332031,65.957035 V 345.12695 H 54.181641 c 2.768983,27.33578 4.180157,73.21509 -38.84375,139.80274 L 161.41992,345.12695 h 77.91211 c 2.67148,27.4842 3.36254,72.97223 -38.97656,138.5 l 144.7207,-138.5 h 85.20313 c 2.7244,27.40967 3.78708,73.0978 -38.90625,139.17383 L 536.79688,345.12695 h 81.05078 c 2.37732,27.7563 1.51941,72.26861 -39.25391,135.37305 L 720.04688,345.12695 h 7.02148 v -6.7207 l 1.34375,-1.28516 -1.34375,-0.0547 V 65.957035 Z M 19.941406,84.365238 H 705.59375 V 320.58398 H 702.5 l -92.32422,114.26758 c 33.64516,-66.0672 30.09045,-92.30672 24.87695,-114.26758 H 522.4375 L 429.17578,430.25 c 23.9636,-47.05619 29.24765,-82.96785 28.46875,-109.66602 H 330.69922 L 237.43945,430.25 c 23.96363,-47.05619 29.2457,-82.96785 28.4668,-109.66602 H 147.25391 L 54.650391,429.47461 C 78.380288,382.87738 83.799323,347.2002 83.146484,320.58398 H 19.941406 Z m 1.688627,516.937442 c -0.728793,-2.13928 -0.778675,-35.34537 -0.05401,-35.94927 0.765076,-0.63757 251.164757,-50.69618 255.634757,-51.10518 0.84521,-0.0773 -56.27057,19.60778 -126.92396,43.74471 -70.653392,24.13692 -128.548947,43.62631 -128.656791,43.30974 z m 50.810618,57.9458 c -2.670439,-3.20456 -18.16358,-24.54779 -18.024536,-24.83056 0.08953,-0.18189 24.030057,-13.21992 53.201345,-28.97343 29.1712,-15.75349 53.77863,-29.11349 54.6831,-29.68888 4.06861,-2.58823 -1.96831,3.27729 -38.41111,37.32063 -21.37731,19.96978 -41.489585,38.77867 -44.694055,41.79759 -4.494542,4.23436 -6.038389,5.23422 -6.754744,4.37465 z m 81.426589,-24.90913 c -1.89152,-2.72943 -4.4566,-6.41396 -5.70017,-8.18787 -1.36776,-1.95118 -2.02582,-3.65956 -1.66574,-4.32462 0.59786,-1.1042 112.90397,-83.03384 113.45093,-82.76482 0.36802,0.18094 -99.98217,98.56886 -101.51628,99.53126 -0.71461,0.44829 -2.39301,-1.11446 -4.56874,-4.25395 z m 96.52205,-22.64893 -11.03544,-7.0475 26.90253,-39.20292 c 14.79642,-21.56162 27.05922,-39.11291 27.25063,-39.00286 0.19151,0.11 -6.55173,19.66488 -14.98492,43.45524 -8.43329,23.7904 -15.73012,44.51306 -16.21529,46.0504 l -0.88207,2.79514 z"
     style="opacity:1;fill:#000000;fill-opacity:1;fill-rule:nonzero;stroke:#000000;stroke-width:0.58141959;stroke-linecap:round;stroke-linejoin:round;stroke-miterlimit:4;stroke-dasharray:none;stroke-dashoffset:0;stroke-opacity:1"
     id="rect943" />
</svg>
