<?xml version="1.0" encoding="UTF-8" standalone="no"?>
<!-- Created with Inkscape (http://www.inkscape.org/) -->

<svg
   xmlns:dc="http://purl.org/dc/elements/1.1/"
   xmlns:cc="http://creativecommons.org/ns#"
   xmlns:rdf="http://www.w3.org/1999/02/22-rdf-syntax-ns#"
   xmlns:svg="http://www.w3.org/2000/svg"
   xmlns="http://www.w3.org/2000/svg"
   xmlns:sodipodi="http://sodipodi.sourceforge.net/DTD/sodipodi-0.dtd"
   xmlns:inkscape="http://www.inkscape.org/namespaces/inkscape"
   id="svg2"
   version="1.1"
   inkscape:version="0.92.3 (2405546, 2018-03-11)"
   width="750"
   height="693"
   viewBox="0 0 750 693"
   sodipodi:docname="bending.svg">
  <metadata
     id="metadata8">
    <rdf:RDF>
      <cc:Work
         rdf:about="">
        <dc:format>image/svg+xml</dc:format>
        <dc:type
           rdf:resource="http://purl.org/dc/dcmitype/StillImage" />
        <dc:title />
      </cc:Work>
    </rdf:RDF>
  </metadata>
  <defs
     id="defs6" />
  <sodipodi:namedview
     pagecolor="#ffffff"
     bordercolor="#666666"
     borderopacity="1"
     objecttolerance="10"
     gridtolerance="10"
     guidetolerance="10"
     inkscape:pageopacity="0"
     inkscape:pageshadow="2"
     inkscape:window-width="1366"
     inkscape:window-height="714"
     id="namedview4"
     showgrid="false"
     inkscape:zoom="0.41858515"
     inkscape:cx="446.54366"
     inkscape:cy="114.69761"
     inkscape:window-x="0"
     inkscape:window-y="0"
     inkscape:window-maximized="1"
     inkscape:current-layer="svg2"
     showguides="true" />
  <path
     style="fill:#000000;stroke-width:3.00471306"
     d="m 257.33594,4.0976562 c 0,0 -14.97266,2.2551181 -14.97266,91.1210938 0,51.35397 1.21377,84.70045 3.21289,88.20117 1.96241,3.4394 6.48832,5.63077 11.63477,5.63477 7.381,0.006 11.5864,4.59457 34.00195,37.10351 l 25.57813,37.09766 0.0156,45.04102 0.0156,45.04101 23.9707,22.61719 h 0.002 c 13.1841,12.43955 26.06711,22.61914 28.62891,22.61914 2.56178,0 15.50764,-10.1197 28.76953,-22.48633 l 24.11328,-22.48437 0.0156,-45.17383 0.0156,-45.17383 25.57813,-37.09766 c 22.41556,-32.50894 26.62094,-37.09751 34.00195,-37.10351 5.14644,-0.004 9.6704,-2.19537 11.63281,-5.63477 1.99737,-3.50072 3.21289,-36.8472 3.21289,-88.20117 0,-88.8659757 -14.97265,-91.1210938 -14.97265,-91.1210938 z M 419.78516,44.316406 h 28.71875 v 94.599614 h -28.71875 z m -127.53907,1.689453 h 28.7168 v 94.599611 h -28.7168 z m 65.03711,0 H 386 V 140.60547 H 357.2832 Z M 479.92383,261.47266 c -5.13262,0.17801 -11.5371,7.44955 -20.1211,22.37695 -12.34301,21.46425 -14.98095,30.11071 -10.47851,34.33398 1.20954,1.13451 5.04835,1.68053 8.53125,1.21289 8.92287,-1.19807 33.39568,-45.12457 29.21875,-52.44531 -2.12146,-3.71821 -4.46188,-5.57176 -7.15039,-5.47851 z m -219.06055,0.32812 c -12.05193,0 -12.28285,8.89074 -0.78906,30.4375 6.01099,11.26848 12.38958,22.18772 14.17578,24.26563 4.86388,5.65828 16.05044,3.03025 17.125,-4.02344 1.4179,-9.30744 -23.49016,-50.67969 -30.51172,-50.67969 z m -94.78906,2.91016 c -6.18332,0 -60.21875,48.64782 -60.21875,54.21484 0,1.42113 28.63782,29.4165 63.63867,62.21289 l 63.63867,59.63086 -52.0039,1.45508 L 129.125,443.67969 64.75,523.54297 0.37304688,603.4082 v 42.50391 c -4e-8,29.17859 1.16690742,43.59881 3.72265622,45.99609 5.4053608,5.07021 725.5282269,5.07021 730.9335969,0 2.55575,-2.39728 3.72461,-16.8175 3.72461,-45.99609 V 603.4082 l -64.37696,-79.86523 -64.375,-79.86328 -52.0039,-1.45508 -52.00391,-1.45508 63.63867,-59.63086 c 35.00086,-32.79639 63.63672,-60.79176 63.63672,-62.21289 0,-5.56702 -54.03349,-54.21484 -60.2168,-54.21484 -4.19186,0 -38.60978,30.19611 -101.16015,88.75586 -72.16767,67.56345 -96.60211,88.75781 -102.33008,88.75781 -5.72795,0 -30.16241,-21.19436 -102.33008,-88.75781 -62.55037,-58.55975 -96.96635,-88.75586 -101.1582,-88.75586 z m 0.0606,23.28711 91.63085,85.43945 c 72.57041,67.66597 93.72941,85.80967 101.71485,87.22461 23.49722,4.16346 25.0902,3.02477 121.88086,-87.22461 l 91.63086,-85.43945 16.13867,15.32812 16.13867,15.32813 -95.35937,89.14843 c -52.4484,49.03117 -100.18503,91.41081 -106.08008,94.17774 -14.74423,6.92032 -45.10952,8.37467 -60.63672,2.9043 -6.82535,-2.40465 -13.05713,-4.39272 -13.84766,-4.41602 -0.79053,-0.0241 -45.10928,-40.93155 -98.48632,-90.90625 l -97.04883,-90.86328 16.16211,-15.34961 z m 476.70312,99.16406 c -2.68802,0.0927 -6.33161,0.84922 -11.87695,2.23047 -44.25914,11.02421 -47.33008,12.26241 -47.33008,19.08789 0,3.62102 1.04836,7.57155 2.32812,8.7793 3.01399,2.84438 16.25615,0.76249 43.42188,-6.82618 23.07105,-6.44481 29.36466,-12.49253 21.08398,-20.25976 -2.29586,-2.15352 -4.17093,-3.13095 -7.62695,-3.01172 z m -547.103515,0.46094 c -3.934606,0.0915 -6.243943,1.13389 -7.914063,3.02148 -6.944434,7.84871 -0.552799,13.51491 22.232418,19.70703 12.19615,3.31445 23.57101,6.52823 25.27735,7.14258 1.70634,0.61432 6.59157,0.86529 10.85742,0.55664 5.92421,-0.42862 7.98469,-2.41034 8.7207,-8.38867 0.90896,-7.38314 -0.30594,-8.18218 -21.41211,-14.07813 -20.13456,-5.62453 -31.20404,-8.11349 -37.761715,-7.96093 z m 45.083985,74.97265 h 53.875 53.875 v 48.20703 c 0,27.66556 1.36788,50.60564 3.21094,53.83594 3.08621,5.40911 7.68463,5.62891 117.7832,5.62891 110.09858,0 114.69699,-0.21985 117.7832,-5.62891 1.84307,-3.2303 3.21289,-26.17038 3.21289,-53.83594 V 462.5957 h 53.875 53.875 l 59.36329,73.61328 52.99138,65.54234 L 29.728705,601.329 81.455078,536.20898 Z m 131.41602,17.45899 c 1.07226,0 11.49345,8.44591 23.1582,18.76758 17.49029,15.47638 24.82201,19.81192 41.8125,24.73437 11.33142,3.2829 25.89154,5.96875 32.35742,5.96875 29.22671,-0.43172 51.93642,-12.04505 74.16992,-30.70312 11.66476,-10.32167 22.0879,-18.76758 23.16016,-18.76758 1.07227,0 1.94922,15.71541 1.94922,34.92187 v 34.91992 h -99.2793 -99.27734 v -34.91992 c 0,-19.20646 0.87694,-34.92187 1.94922,-34.92187 z m -250.566856,142.5633 695.789956,-1.26696 -0.42232,21.07475 V 675.0293 H 369.5625 22.089844 v -32.60352 z"
     id="path823"
     inkscape:connector-curvature="0"
     sodipodi:nodetypes="csccccccccscccccccsccccccccccccccccccsccccsscssssccccccssssccccccssssssccscccccccccccccsscscccccccssccccscscsccccccccsccccsscccsscccccccc" />
</svg>
