<?xml version="1.0" encoding="UTF-8" standalone="no"?><svg xmlns="http://www.w3.org/2000/svg" width="750" height="485.351"><path d="M31.799 484.707c-6.985-1.413-18.905-8.943-23.32-14.735C-.716 457.911.02 477.662.02 243.205.02 2.545-.995 23.682 11.08 11.743c3.574-3.535 9.125-7.624 12.335-9.086L29.26 0h690.226l6.104 2.768c7.214 3.27 18.345 13.942 19.468 18.661.425 1.827 1.734 4.717 2.88 6.419 1.898 2.828 2.062 21.05 2.062 213.501v210.408l-3.175 7.862c-3.934 9.733-10.89 16.986-20.973 21.865l-7.626 3.69-341.302.143c-187.717.143-343.018-.179-345.116-.62zM577.12 384.313c18.005-2.247 28.027-3.874 30.508-4.953 1.407-.606 4.968-1.462 7.937-1.901 2.978-.446 5.701-1.277 6.078-1.873.392-.592 1.44-.792 2.389-.442.95.357 2.03-.143 2.39-1.116.392-.97 2.585-2.12 4.863-2.565 2.684-.524 6.37-3.028 10.277-6.98 5.453-5.506 6.104-6.763 6.104-11.74 0-3.067-.556-5.573-1.276-5.573-.687 0-1.277-.97-1.277-2.165-.02-4.808-12.381-22.588-15.71-22.588-.491 0-1.604-.564-2.455-1.252-6.215-5.074-11.927-8.812-14.365-9.408-1.571-.389-3.175-1.487-3.561-2.447-.393-.956-1.473-1.744-2.422-1.744-1.931 0-16.624-4.417-20.587-6.188-4.782-2.137-29.935-4.952-44.264-4.952-17.39 0-41.61 3.039-48.53 6.087-2.814 1.238-8.156 2.996-11.906 3.918-3.751.927-7.1 2.39-7.443 3.263-.36.874-1.375 1.584-2.291 1.584-.917 0-5.807 2.74-10.86 6.083-10.107 6.691-19.497 17.618-21.582 25.116-.688 2.525-1.833 4.924-2.52 5.332-.688.418-1.244 2.95-1.244 5.65 0 3.999.949 5.894 5.057 10.247 2.782 2.94 7.501 6.392 10.486 7.675 2.979 1.277 5.77 2.793 6.183 3.36.425.563 1.276.913 1.898.767.622-.143 1.997.142 3.044.524 3.59 1.473 13.347 3.579 22.247 4.801 4.893.675 9.89 1.73 11.105 2.348 1.211.617 5.217 1.184 8.9 1.252 3.678 0 9.835.577 13.68 1.144 8.068 1.185 46 .382 59.108-1.266zm-268.766-22.441c3.45-1.445 6.275-3.114 6.275-3.713 0-.592.752-1.088 1.636-1.088 2.782 0 10.758-8.949 13.773-15.47 4.091-8.848 4.117-28.609 0-35.894-3.11-5.588-15.121-17.946-17.426-17.946-.818 0-3.142-1.252-5.145-2.786l-3.636-2.786h-96.187c-85.962 0-96.44.214-98.544 1.962-1.309 1.077-4.222 2.682-6.5 3.56-5.93 2.286-14.11 10.474-17.154 17.177-7.19 15.828-6.978 22.609 1.244 39.417 3.61 7.378 15.357 17.384 22.293 18.988 2.258.524 46.62 1.009 98.576 1.073 93.617.143 94.52.143 100.74-2.5zm248.64-98.99c4.429-.753 8.049-1.805 8.049-2.34 0-.538 2.16-1.359 4.768-1.833 9.11-1.645 19.648-8.282 31.464-19.81 10.745-10.487 12.915-13.594 19.494-27.945 4.723-10.301 5.649-16.532 5-33.707-.523-14.34-1.014-17.214-3.976-23.386-1.865-3.872-3.361-7.422-3.361-7.89 0-.467-2.291-4.188-5.086-8.265-2.782-4.078-5.083-7.679-5.083-8.002 0-2.836-26.125-22.646-29.863-22.646-.95 0-2.553-.777-3.525-1.74-2.226-2.166-24.787-6.922-32.835-6.922-8.228 0-31.833 4.749-33.483 6.737-.753.903-2.782 1.955-4.53 2.354-3.633.835-14.977 8.618-21.755 14.94-5.676 5.29-17.648 22.597-17.648 25.508 0 1.184-.819 2.804-1.833 3.611-1.015.806-2.39 4.079-3.11 7.269-4.032 18.31-2.65 41.708 3.077 52.497 1.702 3.22 3.11 6.627 3.11 7.568 0 2.922 14.797 20.15 23.045 26.834 8.581 6.954 23.487 14.36 27.578 13.702.916-.143 2.52.417 3.56 1.252 4.223 3.41 23.167 4.549 36.917 2.218zm-256.649-60.414c1.211-.62 5.355-2.518 9.197-4.21 8.392-3.696 16.486-11.587 20.545-20.032 4.235-8.815 4.209-25.635 0-34.919-3.208-7.008-12.32-16.145-18.898-18.98-2.292-.985-4.134-2.262-4.134-2.85 0-.593-.851-.753-1.866-.382-1.015.389-2.193.142-2.618-.485-1.08-1.673-189.589-1.602-190.653.142-.425.7-1.342.942-1.996.539-.655-.389-2.848.431-4.874 1.837-2.029 1.405-4.088 2.554-4.582 2.554-3.92 0-20.322 23.305-17.995 25.57.458.442.328 1.52-.49 2.383-2.423 2.825-1.768 12.54 1.308 19.697.59 1.363 1.768 4.277 2.619 6.479 2.356 6.056 14.388 17.03 21.353 19.447 3.28 1.141 6.818 2.557 7.868 3.16 2.553 1.466 182.43 1.57 185.285.143z"/></svg>