<?xml version="1.0" encoding="UTF-8" standalone="no"?>
<svg
   xmlns:dc="http://purl.org/dc/elements/1.1/"
   xmlns:cc="http://creativecommons.org/ns#"
   xmlns:rdf="http://www.w3.org/1999/02/22-rdf-syntax-ns#"
   xmlns:svg="http://www.w3.org/2000/svg"
   xmlns="http://www.w3.org/2000/svg"
   xmlns:sodipodi="http://sodipodi.sourceforge.net/DTD/sodipodi-0.dtd"
   xmlns:inkscape="http://www.inkscape.org/namespaces/inkscape"
   width="739"
   height="739"
   version="1.1"
   id="svg4"
   sodipodi:docname="casting.svg"
   inkscape:version="0.92.3 (2405546, 2018-03-11)">
  <metadata
     id="metadata10">
    <rdf:RDF>
      <cc:Work
         rdf:about="">
        <dc:format>image/svg+xml</dc:format>
        <dc:type
           rdf:resource="http://purl.org/dc/dcmitype/StillImage" />
      </cc:Work>
    </rdf:RDF>
  </metadata>
  <defs
     id="defs8" />
  <sodipodi:namedview
     pagecolor="#ffffff"
     bordercolor="#666666"
     borderopacity="1"
     objecttolerance="10"
     gridtolerance="10"
     guidetolerance="10"
     inkscape:pageopacity="0"
     inkscape:pageshadow="2"
     inkscape:window-width="1366"
     inkscape:window-height="714"
     id="namedview6"
     showgrid="false"
     inkscape:zoom="0.63870095"
     inkscape:cx="350.43105"
     inkscape:cy="402.10217"
     inkscape:window-x="0"
     inkscape:window-y="0"
     inkscape:window-maximized="1"
     inkscape:current-layer="svg4" />
  <path
     style="fill:#000000;stroke-width:1.83282959"
     d="M 562.00977 188.17578 C 397.17371 188.17578 394.86068 188.22921 391.50781 192.12891 C 388.20807 195.96682 388.10938 198.71796 388.10938 286.38672 C 388.10937 376.38374 388.12208 376.70634 391.80469 381.26562 C 395.22856 385.50455 396.85914 385.83984 414.00977 385.83984 C 424.19009 385.83984 433.9173 384.97046 435.62695 383.90625 C 440.44869 380.90487 442.49219 371.09785 442.49219 350.95508 L 442.49219 332.4707 L 571.27539 332.4707 C 713.74317 332.4707 706.39012 333.15043 708.54492 319.79102 C 709.59936 313.25374 709.7697 313.14038 719.91211 312.28711 C 736.83617 310.86327 736.50195 312.12564 736.50195 249.85547 C 736.50195 198.64321 736.40921 197.21021 732.80664 192.75 L 729.11133 188.17578 L 562.00977 188.17578 z M 72.179688 188.18359 C 21.909985 188.1905 18.125773 188.43729 13.033203 192.04883 C 1.7234875 200.06945 2.328125 188.93909 2.328125 388.80469 C 2.328125 588.67029 1.7234875 577.54189 13.033203 585.5625 C 18.125429 589.17383 21.903928 589.41992 72.007812 589.41992 C 122.02431 589.41992 125.89599 589.16793 130.95508 585.58008 C 138.85118 579.98028 140.65671 574.73906 141.71094 554.34961 C 142.41967 540.64218 143.39941 535.20112 145.62695 532.60742 C 148.28255 529.51529 153.96154 529.04351 199.09961 528.16016 C 236.37206 527.43074 250.62833 526.49089 253.51758 524.57422 C 259.90679 520.33576 264.03402 510.47804 264.04102 499.44336 C 264.04473 493.65929 265.15353 487.67023 266.69336 485.11328 C 269.25562 480.85852 270.27354 480.7207 299.03711 480.7207 C 320.58758 480.7207 330.29206 479.96422 334.40625 477.96484 C 338.55394 475.94916 346.10758 466.08703 362.54102 441.22852 C 386.83019 404.48687 390.58829 396.78646 388.94531 387.11914 C 388.36395 383.6985 377.8118 363.37559 365.49609 341.95703 C 348.48698 312.37609 341.61352 302.04068 336.9082 298.96484 C 331.32216 295.31329 327.79948 294.91406 301.04297 294.91406 C 267.95765 294.91406 267.20233 294.62385 265.10742 281.07812 C 263.53337 270.90024 258.44692 262.42397 251.66992 258.68359 C 246.5214 255.84199 239.00335 255.38281 197.64453 255.38281 C 155.32366 255.38281 149.22985 254.99294 146.49219 252.11133 C 143.89309 249.37555 143.38481 245.73414 143.38281 229.87305 C 143.37975 207.93745 140.80579 199.76674 131.66211 192.66211 C 125.96221 188.23326 125.19178 188.17559 72.179688 188.18359 z M 400.00586 203.98828 L 561.45508 203.98828 L 722.90625 203.98828 L 722.90625 250.43945 L 722.90625 296.89062 L 713.00586 296.89062 C 704.85425 296.89062 702.45258 297.70011 699.41016 301.4668 C 697.37781 303.98297 695.71484 308.43 695.71484 311.34961 L 695.71484 316.6582 L 566 316.6582 L 436.28711 316.6582 L 432.5918 321.23242 C 429.25254 325.36663 428.89648 327.93769 428.89648 347.91797 L 428.89648 370.02734 L 414.45117 370.02734 L 400.00586 370.02734 L 400.00586 287.00781 L 400.00586 203.98828 z M 73.074219 204.01953 C 118.58763 203.99264 124.53408 204.35051 126.60742 207.24805 C 128.14922 209.40276 129.22738 218.10233 129.78906 232.91211 L 130.63867 255.31641 L 137.03711 262.76172 L 143.4375 270.20703 L 194.32812 270.7832 L 245.21875 271.36133 L 248.68555 276.48633 C 250.592 279.30528 252.15234 283.83215 252.15234 286.54688 C 252.15234 293.84638 258.20644 303.93786 264.75586 307.55273 C 269.3554 310.09132 276.4491 310.72852 300.12305 310.72852 C 328.66613 310.72852 329.86131 310.88895 333.22266 315.17578 C 335.14068 317.62188 345.71963 335.41388 356.73242 354.71289 C 361.80023 363.59383 365.48938 370.12521 368.27344 375.23438 L 15.085938 375.23438 C 15.063009 277.79194 15.617551 213.17034 16.533203 210.9082 C 17.413299 208.73388 18.973494 206.30068 20.001953 205.50195 C 21.030413 204.70325 44.913671 204.03533 73.074219 204.01953 z M 721.72461 330.4375 C 714.68846 330.55099 707.61133 334.78558 707.61133 341.36523 C 707.61133 343.97387 692.59858 344.33203 582.69922 344.33203 C 460.05379 344.33203 457.72595 344.40358 454.38867 348.28516 C 451.23565 351.95242 450.99023 354.87311 450.99023 388.66211 L 450.99023 425.08594 L 455.46875 429.18359 C 459.90585 433.24295 461.0727 433.2793 583.77734 433.2793 L 707.61133 433.2793 L 707.61133 439.21094 C 707.61133 442.50537 709.12148 446.89746 711.00977 449.09375 C 713.40164 451.8757 716.67497 453.04688 722.05664 453.04688 C 727.43832 453.04688 730.71166 451.8757 733.10352 449.09375 C 736.33269 445.33797 736.50195 442.50501 736.50195 392.39258 C 736.50195 340.95549 736.40998 339.53147 732.80664 335.07031 C 730.1535 331.78557 725.9463 330.3694 721.72461 330.4375 z M 414.58594 397.70117 C 399.43424 397.70117 396.46034 398.25401 392.58789 401.79688 L 388.10938 405.89453 L 388.10938 497.01562 C 388.10937 579.03069 388.39031 588.49647 390.92188 591.75 C 393.61052 595.20546 401.13633 595.36523 561.71875 595.36523 C 727.43738 595.36523 729.75042 595.31209 733.10352 591.41211 C 736.33456 587.65406 736.50195 584.82384 736.50195 534.08984 C 736.50195 471.14964 736.96409 472.8125 719.50781 472.8125 C 709.82618 472.8125 709.31055 472.56971 709.31055 467.98242 C 709.31055 465.32514 707.46456 460.65382 705.20898 457.60352 L 701.10742 452.05859 L 571.98633 451.52734 L 442.86719 450.99805 L 442.2207 429.08594 C 441.59967 407.98316 441.40244 407.0002 436.8418 402.4375 C 432.50742 398.10117 430.62301 397.70117 414.58594 397.70117 z M 15.101562 405.21484 L 368.85352 405.21484 C 357.83981 423.2438 335.26029 457.67064 331.60156 461.44727 C 328.68001 464.46299 324.40801 464.90806 298.27344 464.91406 C 271.55794 464.92064 267.70522 465.34098 262.86523 468.77344 C 254.81546 474.4822 251.66301 481.51065 250.57422 496.17773 C 249.72586 507.60616 249.05944 509.59719 245.35352 511.77148 C 242.23206 513.60285 228.13584 514.27157 192.2207 514.29297 L 143.33594 514.32227 L 136.98633 521.08594 L 130.63867 527.84961 L 129.73828 547.97461 C 128.9867 564.75596 128.29765 568.55837 125.58984 570.86133 C 120.84735 574.89458 23.198546 574.91954 18.458984 570.88867 C 15.443861 568.32438 15.248018 561.38349 15.101562 405.21484 z M 428.89648 413.35352 L 428.89648 436.16602 C 428.89648 456.34189 429.28867 459.43313 432.29492 462.92969 C 435.63462 466.81399 437.96122 466.88281 565.70508 466.88281 L 695.71484 466.88281 L 695.71484 471.95508 C 695.71484 482.94329 702.75275 488.62695 716.36133 488.62695 L 722.90625 488.62695 L 722.90625 535.07812 L 722.90625 581.5293 L 562.25195 581.5293 C 435.23032 581.5293 401.42824 581.01171 400.7832 579.05664 C 400.33447 577.69664 400.16581 540.11536 400.41016 495.54297 L 400.85547 414.50195 L 414.87695 413.92773 L 428.89648 413.35352 z "
     id="path828" />
</svg>
