<?xml version="1.0" encoding="UTF-8" standalone="no"?><svg xmlns="http://www.w3.org/2000/svg" width="750" height="750.05"><path d="M91.276 748.75c-.532-.687-3.175-5.184-5.872-9.993l-4.904-8.743-40.25-.007L0 730v-52h14v-23H0V214h154v138h34v-9h22V57h136.985l.257 61.25.258 61.25 15.25.276 15.25.276V172h12V0h114v102h24.873l.314-3.25.313-3.25h96l.26 48.75.259 48.75H651v-6h99v140h-9v16h9v39h-22.825l-4.338 7.488-4.337 7.487-11.732.013-11.731.012-4.268-7.516-4.269-7.516-9.46.266-9.459.266-4.115 7-4.114 7-7.676.292-7.676.292V451h-11v20h11v46h-27.798l-5.373 9.25-5.372 9.25h-27.682l-5.193-9-5.193-9h-22.846l-5.388 9.278-5.388 9.277-13.634-.277-13.633-.278-5.485-9.25-5.485-9.25H486v138h-12v23h12.034l-.267 25.75-.267 25.75-15.573.274-15.572.275-5.77 9.975-5.77 9.976h-30.791l-5.762-9.98-5.762-9.98-13.058-.02-13.059-.02-5.784 10-5.785 10h-30.79l-5.762-9.98-5.762-9.98-13.145-.02-13.144-.02-5.662 10-5.662 10h-30.863l-5.762-9.98-5.762-9.98-13.145-.02-13.144-.02-5.676 10.025-5.676 10.025-15.646-.275-15.646-.275-5.534-9.741-5.533-9.741-13.145-.01-13.144-.008-5.662 10-5.662 10h-15.321c-11.074 0-15.59-.347-16.29-1.25zM450 666.5V655H38v23h412v-11.5zM622 495v-8H486v16h136v-8zm-270-26.506v-2.507l66.75.257 66.75.257.32 2.25.32 2.25H612v-20H318v20h34v-2.507zM622 366v-62h-77v8h-73.984l-.258-59.25-.258-59.25-38.25-.262-38.25-.262V202h-66.985l-.257-62.25-.258-62.25-47.75-.26-47.75-.26V343h87v85h304v-62zm110-2.5V357h-88v13h88v-6.5zm-8-28.5v-8h-80v16h80v-8zm8-78.5V205h-64v7h-62v-99h-63v7h-56V17h-80v155h87v118h30v-8h120v26h88v-51.5z"/></svg>