<?xml version="1.0" encoding="UTF-8" standalone="no"?><svg xmlns="http://www.w3.org/2000/svg" width="738.376" height="739"><path d="M0 614V489l6.75-.007c28.547-.03 58.456-20.599 70.915-48.77 4.836-10.936 6.606-21.366 6.06-35.723-.688-18.144-4.818-30.35-15.222-45C54.59 339.911 28.446 326 5.543 326H0V0h125.831l14.834 5.119c145.893 50.34 253.291 175.4 280.72 326.881 4.968 27.437 6.066 41.176 6.072 76 .006 34.68-.819 44.872-6.073 75-16.47 94.443-67.154 183.181-141.15 247.128L269.967 739H0V614zm91.588 99.496c33.631-9.891 66.78-25.894 94.778-45.754C247.54 624.35 292.396 559.646 310.625 488.5c2.634-10.284 7.458-33.75 7.025-34.183-.343-.343-18.837-3.309-20.65-3.31-1.124-.002-2.063 2.98-3.745 11.885-9.104 48.218-33.904 99.798-66.645 138.608-13.31 15.779-35.04 36.47-51.11 48.67-26.101 19.815-60.841 38.026-90.75 47.572-8.151 2.601-11.747 4.21-11.74 5.254.01 1.312 2.14 9.145 3.467 12.754.667 1.812 1.929 1.624 15.111-2.254zm226.09 11.698C403.241 639.73 449.991 527.482 449.991 407.5c0-86.986-24.97-170.96-72.64-244.292-16.742-25.753-34.157-47.048-58.32-71.315-35.176-35.327-68.61-59.784-113.532-83.049L188.5.04l46.163-.02L280.826 0l11.837 8.64C316.733 26.21 334.67 41.782 356 63.628 434.25 143.772 481.207 244.526 493.66 359c2.519 23.163 2.52 74.812.002 98-11.13 102.491-50.086 193.496-116.162 271.365l-9 10.607-32.323.014-32.322.014 13.822-13.806zM501 716.53l-16.5-5.267.312-3.882c.66-8.195 35.137-264.663 35.648-265.175.297-.297.54 62.536.54 139.627 0 132.864-.091 140.162-1.75 140.066-.963-.056-9.175-2.472-18.25-5.369zm61-14.994c0-.372-4.747-28.817-10.55-63.21-5.801-34.392-10.414-62.913-10.25-63.379.294-.83 52.838 114.855 52.813 116.274-.007.396-6.65 2.824-14.763 5.394-8.113 2.57-15.313 4.88-16 5.136-.688.254-1.25.158-1.25-.215zm17.613-94.286c-2.017-6.76-40.988-132.67-42.16-136.211-.811-2.454-1.067-4.029-.566-3.5 1.33 1.407 65.462 135.453 65.002 135.866-.686.618-18.71 5.595-20.26 5.595-.822 0-1.73-.787-2.016-1.75zm-14.977-134.338c-16.425-22.01-29.7-40.167-29.5-40.35.549-.5 80.795 62.838 80.564 63.59-.171.557-20.648 16.91-21.054 16.813-.08-.02-13.585-18.043-30.01-40.053zM611 442.37c-31.667-4.535-53.278-15.179-73.013-35.959-43.319-45.612-42.554-117.662 1.716-161.66 10.782-10.716 17.981-15.925 30.797-22.28 69.857-34.644 151.371 6.245 166.61 83.573 1.89 9.595 1.617 32.726-.505 42.752-7.554 35.694-29.658 65.029-61.172 81.185-18.832 9.655-46.446 14.965-64.433 12.389zm34.5-26.28c8.854-2.336 21.966-8.267 29.26-13.237 6.904-4.705 17.8-15.428 22.873-22.51 5.628-7.857 11.835-21.097 14.562-31.06 1.734-6.332 2.13-10.579 2.13-22.783 0-17.381-1.713-25.494-8.294-39.26-5.17-10.816-8.895-16.17-17.466-25.106-11.913-12.42-26.063-20.786-43-25.425-11.74-3.215-35.566-3.164-46.96.102-32.223 9.235-55.513 32.029-65.284 63.892-2.45 7.987-2.703 10.316-2.76 25.297-.053 14.336.24 17.55 2.234 24.5 9.483 33.047 35.43 58.267 67.705 65.806 10.839 2.532 11.222 2.566 24.5 2.22 8.625-.225 14.98-.98 20.5-2.436z"/></svg>