<?xml version="1.0" encoding="UTF-8" standalone="no"?><svg xmlns="http://www.w3.org/2000/svg" width="743" height="732"><path d="M32.813 730.142c-2.577-1.045-6.283-2.887-8.233-4.093-4.745-2.932-13.307-12.657-14.508-16.478-1.303-4.144-5.836-35.55-7.012-48.571-.52-5.775-1.492-20.85-2.157-33.5-1.196-22.731-1.18-23.228 1.457-42.525 1.467-10.74 3.782-23.564 5.143-28.5 8.8-31.898 8.88-32.887 3.287-40.607-4.713-6.505-5.387-17.099-3.332-52.368 8.815-151.327 15.033-236.48 18.035-247 4.03-14.121 15.106-22.098 25.79-18.572 2.076.685 8.37 5.631 15.366 12.075 10.475 9.648 12.273 10.92 15.49 10.956 4.47.05 19.515 4.311 26.588 7.53 6.742 3.069 22.92 14.147 36.36 24.9 21.257 17.004 52.46 54.946 83.565 101.611 32.136 48.212 39.271 59.713 61.148 98.557a99426.353 99426.353 0 0 0 32.067 56.898C327.44 520.33 332 528.852 332 529.393c0 2.728-32.906 42.69-42.108 51.139-2.416 2.217-9.845 8.405-16.51 13.751l-12.118 9.72 1.828 8.748c2.216 10.602 2.422 24.88.466 32.289-.793 3.003-3.652 9.886-6.353 15.294-4.803 9.617-5.21 10.095-18.406 21.586-7.423 6.463-16.376 13.473-19.897 15.578-3.521 2.105-11.014 6.694-16.65 10.198-9.06 5.63-11.498 6.647-21 8.748-25.06 5.542-25.089 5.541-49.752-1.636-24.937-7.257-31.839-6.524-55.5 5.894-15.586 8.18-21.505 10.254-31 10.862-5.878.376-8.514.068-12.187-1.422zm31.403-31.503c14.635-7.647 25.563-11.671 37.193-13.696 7.964-1.387 14.134-.48 31.865 4.686 22.105 6.44 23.134 6.55 36.375 3.861 9.597-1.948 12.963-3.154 19.712-7.061 13.47-7.799 23.302-14.712 32.968-23.18 7.802-6.835 9.805-9.257 13.421-16.223 3.88-7.475 4.25-8.833 4.25-15.591 0-8.99-3.168-24.376-10.486-50.935-3.03-11-5.512-20.548-5.512-21.218-.002-1.334 15.661-6.459 20.349-6.658 2.74-.116 3.03.25 4.66 5.876 4.429 15.282 5.184 17.5 5.962 17.5.457 0 4.819-3.082 9.694-6.85 10.477-8.097 37.333-38.3 37.333-41.986 0-2.274-54.252-97.495-65.168-114.383-51.814-80.151-79.88-116.92-105.832-138.638-12.966-10.85-17.91-14.566-18.542-13.934-.269.268 1.834 4.044 4.673 8.39 12.643 19.353 19.724 31.472 35.805 61.278C160.312 343.547 182 388.525 182 390.15c0 .782-7.982 4.812-18.8 9.491l-3.299 1.427-3.564-7.784C127.594 330.514 98.6 281.439 72.274 251c-8.956-10.355-22.893-23.826-23.663-22.873-1.451 1.797-8.826 108.008-15.234 219.398-2.592 45.064-2.662 48.3-1.135 52.5.895 2.461 2.77 7.625 4.167 11.475 2.012 5.546 2.545 8.902 2.565 16.153.023 7.945-.567 11.182-4.463 24.5-3.134 10.716-5.303 21.058-7.188 34.273l-2.7 18.925 1.63 29.575c1.101 19.965 2.53 35.398 4.396 47.498 2.714 17.59 2.83 17.988 6.213 21.37 3.216 3.217 3.768 3.41 8.258 2.878 3.281-.388 9.353-2.943 19.096-8.033zm29.346-92.889c-.552-1.837-6.345-45.683-7.498-56.75-2.198-21.1-4.134-69.579-3.855-96.5l.291-28 3-.345c1.65-.19 7.162-.036 12.25.343l9.25.689.006 25.656c.01 46.605 2.556 88.527 7.572 124.657 1.908 13.75 3.572 25.887 3.696 26.972.2 1.747-.745 2.108-8.274 3.163-11.443 1.602-15.981 1.634-16.438.115zM497.5 618.62c-9.914-3.243-17.897-7.526-26.335-14.128-14.916-11.671-17.646-16.218-50.612-84.313-15.191-31.378-21.484-47.69-25.737-66.711-1.995-8.92-2.231-12.755-2.25-36.468-.021-29.513.792-35.362 7.847-56.447 3.235-9.668 11.954-28.194 16.532-35.129l2.03-3.076-9.572-19.924c-23.86-49.66-27.58-57.62-29.495-63.095-6.155-17.592-1.516-38.012 11.546-50.829 5.707-5.6 8.2-6.988 37.355-20.804 21.034-9.968 33.114-15.135 36.973-15.814 12.086-2.13 30.715 4.585 40.606 14.635 6.383 6.486 7.559 8.626 29.662 53.974l17.55 36.006 5.45.79c60.927 8.833 109.044 43.869 137.628 100.213 13.422 26.458 40.27 83.392 42.205 89.5 9.377 29.606 2.332 59.703-18.903 80.754-5.62 5.572-8.88 7.552-29.894 18.157-27.744 14.002-125.35 61.433-139.133 67.611-14.847 6.656-18.567 7.484-33.385 7.433-10.833-.037-14.265-.436-20.068-2.335zm36.5-35.538c10.634-4.772 125.369-60.676 144.129-70.226 8.596-4.377 17.416-9.486 19.6-11.355 2.188-1.874 5.71-6.675 7.847-10.7 3.75-7.063 3.89-7.678 4.25-18.866.366-11.338.305-11.732-3.131-20-8.194-19.718-41.956-87.637-48.304-97.173-7.586-11.394-22.222-27.123-32.72-35.163-21.848-16.732-42.594-25.074-69.897-28.105-7.85-.872-15.459-2.047-16.907-2.612-6.055-2.363-7.1-4.222-35.503-63.173-7.365-15.285-14.51-29.563-15.877-31.73-2.828-4.48-8.844-7.982-13.697-7.974-3.337.005-51.403 22.447-57.734 26.955-4.568 3.253-6.356 7.41-5.844 13.586.335 4.042 2.756 10.035 10.738 26.586 5.668 11.753 15.27 31.674 21.339 44.27 7.893 16.382 11.165 24.263 11.493 27.686.503 5.233.543 5.143-10.228 22.773-6.426 10.516-8.534 15.013-12.595 26.87-5.37 15.675-6.44 23.029-6.45 44.269-.016 35.794 1.452 39.923 48.47 136.307 7.686 15.755 17.057 25.271 29.35 29.805 4.028 1.485 7.27 1.844 14.671 1.621 8.282-.249 10.462-.717 17-3.65zm-24.4-44.328c-3.451-5.362-43.706-90.224-42.943-90.532.463-.187 35.718-17.347 78.343-38.134 71.33-34.785 77.63-37.666 79.14-36.19 1.689 1.65 42.539 84.979 43.463 88.658.464 1.846-7.016 5.715-73.293 37.906-40.596 19.718-75.936 36.907-78.534 38.198l-4.725 2.348-1.45-2.254zM308.4 276.488c-1.104-1.685-1.44-3.537-1.022-5.627.755-3.776 5.672-13.62 9.8-19.62 5.109-7.425 10.754-20.652 12.985-30.428 1.766-7.734 2.162-12.991 2.334-31.013.235-24.591.489-25.528 7.831-28.862 5.463-2.48 11.025-2.43 16.35.148 5.97 2.89 8.322 6.517 8.322 12.831 0 5.067-7.341 35.598-12.523 52.083-6.02 19.152-22.182 44.812-31.757 50.424-5.749 3.369-10.14 3.392-12.32.064zm-125.64-17.773c-7.047-3.773-9.593-5.63-9.205-6.715.974-2.73 39.584-74.968 40.308-75.415.39-.241 5.193 1.916 10.673 4.795 8.622 4.528 9.929 5.547 9.702 7.564-.447 3.96-38.903 75.071-40.572 75.021-.641-.019-5.55-2.381-10.906-5.25zm-56.856-56.825c-2.972-5.613-5.534-10.524-5.693-10.913-.158-.39 13.567-8.039 30.5-16.998 16.934-8.96 34.412-18.238 38.84-20.618l8.05-4.327 5.71 10.862 5.708 10.861-2.26 1.477c-2.602 1.7-71.857 38.483-74.018 39.312-1.016.39-3.007-2.423-6.837-9.656zm119.835-30.186c-2.881-6.157-10.26-21.772-16.397-34.7-6.137-12.927-10.862-23.815-10.5-24.196 1.547-1.626 39.452-18.897 40.858-18.617.94.188 7.774 13.48 17.383 33.809 8.709 18.425 15.853 33.864 15.876 34.31.036.713-22.096 11.706-36.72 18.24l-5.26 2.35-5.24-11.196zm131.66-15.08c-10.192-10.611-22.634-15.274-37.141-13.92-5.463.51-9.275 1.893-21.693 7.868-8.286 3.987-15.378 6.951-15.761 6.588-.87-.825-32.816-67.127-32.77-68.013C270.09 88.03 401.8 24.886 416.5 18.93 449.155 5.697 483.958-1.143 511 .36c6.325.35 12.85 1.007 14.5 1.458 3.705 1.013 7.51 6.401 7.472 10.58-.027 2.89-.697 3.464-9.804 8.38-11.211 6.05-26.02 16.805-34.496 25.053-7.739 7.53-16.48 19.252-20.13 26.994l-2.957 6.275-17.733 8.948-17.733 8.95 8.56 17.553c7.932 16.267 8.43 17.65 6.795 18.845-1.79 1.309-60.608 29.615-61.493 29.593-.265-.006-3.227-2.87-6.582-6.364zm-222.158-23.07c-21.592-5.082-39.498-9.477-39.79-9.77-.71-.71 4.043-21.679 5.167-22.797 1.085-1.08 80.882 17.247 80.882 18.575 0 3.368-5.126 23.418-5.966 23.333-.569-.057-18.7-4.261-40.293-9.342z"/></svg>