<?xml version="1.0" encoding="UTF-8" standalone="no"?><svg xmlns="http://www.w3.org/2000/svg" width="739" height="739"><path d="M0 727.958c0-35.945 18.341-66.729 51.705-86.78 7.878-4.735 17.26-9.082 33.44-15.492 14.794-5.861 24.208-12.083 35.838-23.686 8.87-8.85 16.526-19.028 18.288-24.313.168-.505 4.284 1.675 9.146 4.845 10.044 6.546 21.21 11.533 32.996 14.737 10.763 2.925 35.508 3.135 45.587.387 13.154-3.586 24.426-8.592 35-15.541 3.025-1.988 6.008-3.944 6.629-4.347.71-.46 2.548 1.695 4.95 5.802 5.842 9.99 14.468 19.58 24.15 26.852 10.64 7.99 18.16 12.026 33.32 17.884 14.744 5.697 21.448 9.104 32.522 16.529C393.546 664.932 410 694.983 410 729.63V739H0v-11.042zm545-64.062c-66.306-1.733-117.314-9.73-128.75-20.187-1.985-1.815-2.25-3.029-2.25-10.295 0-22.092 7.98-41.276 23.602-56.744 10.797-10.69 22.01-17.542 39.775-24.306 20.322-7.737 34.651-18.836 44.07-34.134 3.693-5.995 3.953-6.203 5.957-4.763 4.382 3.15 15.216 9.016 20.854 11.293 13.779 5.566 32.112 6.844 46.332 3.23 8.605-2.187 21.845-8.129 28.848-12.947l4.419-3.04 3.681 6.06c8.818 14.515 23.227 25.81 43.244 33.9 15.4 6.222 22.336 9.804 30.218 15.605 22.426 16.504 34 38.733 34 65.301 0 8.71-.08 9.021-2.984 11.464-16.06 13.513-98.684 21.975-191.016 19.563zM193.5 567.52c-36.384-6.756-67.896-43.833-81.58-95.987-5.418-20.654-7.262-34.284-7.309-54.033-.04-16.844.132-18.565 2.682-26.797 10.556-34.073 36.635-58.594 72.183-67.87 10.239-2.671 30.534-3.586 41.297-1.862 33.546 5.374 60.793 25.05 75.222 54.321 7.52 15.257 9.292 23.075 9.34 41.208.104 39.864-13.113 83.634-34.023 112.676-7.39 10.263-21.327 23.555-30.268 28.867-8.417 5-18.405 8.585-27.646 9.92-8.586 1.241-11.13 1.185-19.898-.443zm376-62.602c-25.137-3.142-48.788-26.638-61.824-61.418-7.94-21.185-12.494-50.203-10.573-67.374 3.419-30.56 26.895-56.787 58.397-65.242 11.308-3.035 30.71-3.032 42 .005 28.191 7.585 50.59 29.781 57.126 56.61 3.577 14.683 1.186 42.161-5.733 65.882-4.017 13.773-14.26 34.166-22.16 44.119-16.305 20.543-36.155 30.052-57.233 27.418zM611 273.341c-12.877-1.991-21.605-3.962-28.88-6.52-19.804-6.961-37.041-17.259-51.223-30.6l-8.207-7.721-17.595-.655c-25.26-.94-44.688-5.242-64.553-14.294-7.508-3.422-20.543-11.284-20.541-12.39 0-.364 2.277-1.94 5.06-3.502 12.37-6.948 29.473-21.948 38.376-33.659 13.167-17.319 19.336-33.753 20.268-54 .803-17.439-3.227-34.796-11.262-48.506C471.1 59.2 470 56.87 470 56.314c0-.554 4.612-1.865 10.25-2.911 13.836-2.569 48.863-2.661 62.25-.165 56.779 10.589 95.288 43.403 97.272 82.889 1.303 25.935-12.066 49.189-38.553 67.063-7.722 5.21-24.44 13.534-31.719 15.792-6.61 2.05-8.5 3.678-8.5 7.319 0 3.864 1.57 6.396 8.395 13.546 9.49 9.94 22.247 18.951 40.105 28.33 11.17 5.866 11.412 6.697 1.5 5.164zm-449.917-6.74c.23-.22 5.905-2.687 12.613-5.484 24.433-10.188 48.671-24.734 62.978-37.796 10.012-9.141 14.026-15.394 12.862-20.035-.853-3.396-2.103-4.351-13.02-9.941-36.143-18.507-58.186-45.921-62.594-77.845-1.374-9.953-.465-20.385 2.739-31.45C190.89 34.907 250 0 318.983 0c45.353 0 84.137 13.327 114.296 39.276 13.299 11.442 25.597 30.908 29.837 47.224 2.888 11.116 2.876 27.991-.028 38.946-7.55 28.48-30.188 53.163-63.359 69.08C374.561 206.605 349.42 212 318.313 212h-15.239l-10.4 8.429c-25.366 20.557-49.975 32.782-82.67 41.07-11.858 3.006-50.994 7.087-48.92 5.102z"/></svg>