<?xml version="1.0" encoding="UTF-8" standalone="no"?>
<svg
   xmlns:dc="http://purl.org/dc/elements/1.1/"
   xmlns:cc="http://creativecommons.org/ns#"
   xmlns:rdf="http://www.w3.org/1999/02/22-rdf-syntax-ns#"
   xmlns:svg="http://www.w3.org/2000/svg"
   xmlns="http://www.w3.org/2000/svg"
   xmlns:sodipodi="http://sodipodi.sourceforge.net/DTD/sodipodi-0.dtd"
   xmlns:inkscape="http://www.inkscape.org/namespaces/inkscape"
   width="750"
   height="655.681"
   id="svg2"
   version="1.1"
   inkscape:version="0.91 r13725"
   sodipodi:docname="cross-section.svg">
  <metadata
     id="metadata10">
    <rdf:RDF>
      <cc:Work
         rdf:about="">
        <dc:format>image/svg+xml</dc:format>
        <dc:type
           rdf:resource="http://purl.org/dc/dcmitype/StillImage" />
        <dc:title />
      </cc:Work>
    </rdf:RDF>
  </metadata>
  <defs
     id="defs8" />
  <sodipodi:namedview
     pagecolor="#ffffff"
     bordercolor="#666666"
     borderopacity="1"
     objecttolerance="10"
     gridtolerance="10"
     guidetolerance="10"
     inkscape:pageopacity="0"
     inkscape:pageshadow="2"
     inkscape:window-width="1920"
     inkscape:window-height="1027"
     id="namedview6"
     showgrid="false"
     inkscape:zoom="1.4738392"
     inkscape:cx="309.58627"
     inkscape:cy="335.84654"
     inkscape:window-x="0"
     inkscape:window-y="0"
     inkscape:window-maximized="1"
     inkscape:current-layer="svg2" />
  <path
     style="fill:#000000"
     d="m 328.81055,89.861328 c -39.70044,1.098794 -75.57454,23.349972 -103.49606,50.123042 -37.86693,36.86354 -64.58579,84.43727 -79.27738,135.02344 -50.043727,24.49845 -100.086564,48.99872 -150.1289069,73.5 51.0441459,23.70087 101.8144569,47.99757 152.7441369,71.94727 7.25355,16.31596 18.2969,31.06264 32.02149,42.29101 0.94854,4.41909 7.51838,4.07489 10.45062,6.72643 68.19784,31.88606 136.1883,64.25431 204.53571,95.80678 13.22422,3.36179 27.04606,5.00074 40.70312,3.24804 40.84048,-4.86417 76.20306,-30.15799 103.63451,-59.51829 32.98981,-35.72047 56.30889,-79.80953 69.85182,-126.36452 48.35782,-24.35098 97.31525,-47.5191 145.52148,-72.15625 -48.9411,-23.97503 -98.51245,-46.67891 -147.73047,-70.0957 -8.2321,-18.96132 -21.10872,-36.03826 -38.1621,-47.86914 -9.18467,-6.19194 -20.19664,-9.55861 -30.01381,-14.73582 -62.26254,-28.86863 -124.26311,-58.34537 -186.53698,-87.150901 -2.39578,-0.319467 -3.70575,1.918646 -6.39257,0.476562 -5.85332,-0.961715 -11.79471,-1.367404 -17.72461,-1.251953 z m 1.58007,28.089842 c 20.27889,-1.56428 37.13432,11.17197 55.05742,18.54142 33.35937,15.64942 66.7675,31.20816 100.13008,46.8453 -44.69591,14.14792 -80.18823,48.19271 -106.66796,85.81445 -30.12277,43.68817 -49.90994,94.97585 -54.58594,147.96289 -53.7168,-25.15412 -107.34994,-50.46614 -161.02344,-75.71289 1.37098,-43.18777 15.61891,-85.86104 36.88477,-123.49023 22.44296,-38.6585 53.44997,-74.31872 95.11328,-92.57422 11.15167,-4.49941 23.01895,-7.97214 35.09179,-7.38672 z m 188.52344,87.98828 c 24.31677,-1.02078 46.99392,14.77526 58.15625,35.92383 9.80772,17.63187 13.8087,37.82804 14.99805,57.7168 -3.07078,0.66281 -8.9848,6.92615 -8.60357,0.78902 -4.76972,-27.02868 -19.34997,-54.39171 -45.1425,-66.43102 -27.44523,-13.22977 -60.13145,-5.36742 -84.74612,10.43497 -40.7515,26.27887 -68.42971,69.28612 -83.39653,114.75847 -5.55555,17.1165 -8.97577,34.90787 -10.22847,52.85871 -3.12445,1.09575 -9.57178,6.71531 -7.21978,0.0146 7.40021,-58.59461 33.74299,-115.14082 74.43636,-158.10851 24.34216,-24.87376 55.87997,-47.36529 91.74631,-47.95686 z m -11.21875,49.08594 c 18.5073,-0.68511 34.76755,12.53333 41.80792,29.01061 2.73639,5.73409 4.51572,11.86267 5.95575,18.03431 -26.91248,-12.5439 -53.77267,-25.17993 -80.59375,-37.91797 10.28835,-5.25803 21.2797,-9.17932 32.83008,-9.12695 z m 110.2168,21.02344 c 24.78119,11.50576 49.49208,23.15067 74.15039,34.93359 C 576.0938,368.01651 460.09121,425.06534 344.05273,481.97656 249.6276,437.35379 155.05301,392.72148 60.59375,348.11328 c 25.724772,-13.09074 51.72742,-25.62789 77.70117,-38.21484 -2.6955,16.09058 -3.08609,32.4182 -3.25,48.69531 67.54885,31.57938 135.09672,63.16086 202.64649,94.73828 16.51248,-7.98935 33.02607,-15.97641 49.53711,-23.96875 -0.54862,-48.26139 17.74506,-96.57994 49.07031,-133.28906 4.12585,-4.49688 8.32731,-8.93094 12.72461,-13.16406 40.76344,19.01437 81.49983,38.08923 122.10742,57.43554 16.45567,-7.96492 32.91071,-15.93115 49.36523,-23.89843 -0.26197,-13.55099 -0.62077,-27.16282 -2.91797,-40.55079 l 0.33399,0.15235 z m -43.49414,124.19922 c -19.1123,48.87945 -49.97569,94.46368 -94.5957,123.01367 -22.29066,13.92858 -50.12837,23.30004 -76.16407,14.6582 -17.22026,-5.55574 -30.66205,-19.41075 -38.65039,-35.07617 5.42709,-2.69995 10.85193,-5.51442 16.3086,-7.99023 14.33303,19.09105 38.689,29.9265 62.47461,27.54687 29.07184,-2.11621 55.08276,-18.78797 75.53125,-38.65039 23.50925,-23.14738 41.01244,-51.98994 52.61328,-82.77148 0.31582,0.21144 3.54111,-2.33878 2.48242,-0.73047 z m -42.11328,20.45117 c -16.86233,29.71653 -40.81628,57.76985 -73.42774,70.29883 -16.36838,6.27934 -36.7661,5.53214 -50.10351,-7.22266 -3.14903,-3.66012 8.02352,-5.17554 10.92668,-7.9094 37.49124,-18.46946 75.03358,-36.89952 112.60457,-55.16677 z"
     id="path4138"
     inkscape:connector-curvature="0" />
</svg>
