<?xml version="1.0" encoding="UTF-8" standalone="no"?><svg xmlns="http://www.w3.org/2000/svg" width="750" height="608.089"><path d="M.031 354.208V124.816H46.98V57.348h56.58V0h212.47l19.863 19.648a21385.281 21385.281 0 0 0 47.37 46.648l27.507 27H750V481.24h-57.782v56.223h-69.82v46.104H.03V354.174zm256.41 179.532c6.42-1.99 9.234-3.74 15.672-9.737 4.893-4.557 8.292-8.79 9.029-11.244l1.181-3.936 33.891-.216 33.89-.216 1.57 3.589c2.025 4.63 9.693 14.123 11.476 14.206.758 0 1.653.745 1.993 1.567.823 2.003 12.292 7.054 18.22 8.023 7.94 1.297 17.962.807 24.211-1.174 12.296-3.9 26.183-17.34 29.548-28.598 1.795-6.003 2.549-20.24 1.074-20.24-.57 0-.973-.88-.903-1.969.267-4.016-6.151-14.447-12.126-19.705-6.733-5.927-16.932-10.908-22.363-10.925-1.931-.01-3.197-.305-2.813-.66.384-.353 8.734-.757 18.558-.892 15.375-.21 18.364-.55 21.473-2.431 7.372-4.466 11.004-9.07 11.956-15.155.526-3.367 2.91-11.093 5.198-16.849.371-.93.562-2.527.43-3.555-.137-1.027.324-2.196 1.019-2.597.693-.402 1.262-1.934 1.262-3.406 0-1.474.48-2.956 1.064-3.293.585-.346 1.449-3.025 1.918-5.97.47-2.946 1.266-5.86 1.771-6.48.783-.964 3.032-8.381 4.259-14.06.201-.929 1.535-4.977 2.964-8.995 1.43-4.018 2.82-8.57 3.088-10.117.267-1.546 1.402-5.088 2.517-7.871 1.115-2.783 2.086-8.164 2.155-11.958.115-5.994-.282-7.278-2.967-9.79-1.7-1.589-5.492-3.373-8.426-3.963-3.19-.65-52.187-1.064-121.896-1.04-64.886 0-116.969-.401-117.48-.942-.505-.538-2.139-4.523-3.629-8.852-5.47-15.892-7.658-20.803-9.27-20.803-.905 0-1.646-.489-1.646-1.076 0-1.183-16.201-6.086-19.562-5.916-1.158 0-2.106-.304-2.106-.807 0-.905-6.878-2.795-8.854-2.43-.566.12-1.649-.281-2.408-.844-1.792-1.343-13.026-3.544-18.09-3.544-5.63 0-12.658 5.945-13.588 11.495-1.007 6.009 2.25 11.85 7.836 14.06 5.142 2.034 14.892 4.763 20.057 5.616 1.986.332 4.18 1.015 4.875 1.53.695.513 3.458 1.262 6.141 1.662 4.818.721 4.913.831 7.733 8.764 1.571 4.42 2.915 8.288 2.989 8.597.077.304.764 1.988 1.537 3.728.771 1.743 1.404 4.145 1.404 5.343 0 1.199.508 2.175 1.13 2.175.623 0 1.497 2.277 1.942 5.06.448 2.783 1.259 5.06 1.807 5.06.546 0 1.359 2.277 1.806 5.06.448 2.783 1.245 5.061 1.773 5.061.528 0 1.347 2.15 1.817 4.779.47 2.627 1.205 5.032 1.633 5.34.96.696 9.82 25.89 9.786 27.831-.013.77.456 1.406 1.042 1.406.587 0 1.433 2.277 1.879 5.06.447 2.783 1.258 5.06 1.806 5.06.857 0 2.082 3.97 2.691 8.716.1.77.571 1.406 1.047 1.406s1.119 1.391 1.425 3.092c.862 4.767 1.435 6.407 2.496 7.136 1.066.733 1.302 8.01.384 11.869-.932 3.927-4.315 9.377-5.905 9.516-6.245.538-8.494 1.199-12.851 3.773-17.054 10.056-25.296 24.937-23.303 42.073.475 4.09.754 7.817.619 8.282-.137.463.291.843.958.843.661 0 1.203.67 1.203 1.502 0 2.294 8.823 14.21 10.533 14.227.826.008 1.504.525 1.504 1.15 0 1.335 12.986 9.305 15.638 9.595 1 .118 2.629.5 3.622.88 2.458.93 11.833 1.493 16.251.977 1.987-.23 7.133-1.514 11.436-2.85zm24.514-58.65c-1.775-3.094-6.431-8.528-10.345-12.076-5.517-5.002-6.944-6.961-6.349-8.715.509-1.499 1.858-2.284 3.998-2.326 5.292-.122 105.143-.122 110.368 0l4.815.118-7.063 2.712c-9.075 3.486-17.2 9.906-22.089 17.456-2.13 3.288-4.053 6.487-4.275 7.108-.254.721-12.372 1.174-33.117 1.236l-32.714.118-3.229-5.622zm104.293-23.052c.993-.6 2.347-1.088 3.01-1.088.662 0 .388.489-.603 1.088-.994.599-2.347 1.088-3.01 1.088-.661 0-.388-.489.603-1.088zm-115.747-27.892c-4.976-.392-4.86-.203-10.094-16.526-1.785-5.565-3.955-11.89-4.823-14.055-1.88-4.684-3.431-10.35-3.156-11.526.1-.463-.342-.844-1.007-.844-.661 0-1.203-1.316-1.203-2.922 0-1.607-.75-4.517-1.665-6.465-2.224-4.733-6.533-18.047-6.02-18.605.643-.695 202.635-.55 203.385.142.37.347-.808 5.109-2.62 10.584-1.812 5.476-3.406 10.714-3.546 11.642-.136.93-1.488 5.228-2.998 9.558-1.51 4.33-2.883 8.63-3.05 9.558-.643 3.546-3.83 13.137-5.107 15.366-.734 1.28-1.019 2.625-.633 2.985.389.37-.313 2.957-1.547 5.766-1.804 4.097-2.846 5.124-5.259 5.176-13.024.28-147.224.426-150.657.166zm399.547-79.777l.304-172.325H343.308l-27.405-27.268c-15.073-14.998-36.508-35.998-47.635-46.666l-20.23-19.398H69.851v46.104H194.82l16.065 15.893c8.835 8.742 19.584 19.282 23.888 23.423 4.304 4.14 18.59 17.988 31.748 30.772l23.924 23.243h331.952v299.159l23.174-.304 23.173-.304.304-172.326zm58.08-57.067V114.696H401.292l-8.296-8.153c-4.563-4.483-20.014-19.537-34.336-33.453-14.321-13.915-31.927-31.246-39.123-38.513l-13.085-13.213H127.634v35.984h129.92l16.662 16.023c9.165 8.813 21.495 20.831 27.4 26.706 5.906 5.875 19.656 19.285 30.556 29.799l19.819 19.116 169.812.562 169.813.563.303 154.895.304 154.897h34.902V287.302z"/><path d="M-.006 559.997h622.31V608.1H-.006z"/></svg>