<?xml version="1.0" encoding="UTF-8" standalone="no"?><svg xmlns="http://www.w3.org/2000/svg" width="750" height="681.366"><path d="M125.684 678.906c-7.63-4.323-8.24-7.04-8.24-36.636v-26.216H65.01c-50.207 0-52.6-.133-56.34-2.323-2.148-1.275-4.978-4.03-6.288-6.121C.028 603.847 0 601.24 0 367.5c0-232.173.03-236.374 2.336-240.037 1.284-2.051 3.82-4.678 5.636-5.836 3.148-2.007 15.354-2.132 265.222-2.687l261.923-.585.598-53.886c.58-52.189.68-53.992 3.083-57.18 7.58-10.057 26.84-9.68 49.333.965 14.71 6.96 28.812 20.62 36.043 34.909 8.36 16.523 8.576 18.62 8.6 83.653l.02 57.472h19.105l.334-53.596c.324-52.047.404-53.687 2.805-56.816 5.148-6.712 8.284-8.037 18.899-7.987 5.385 0 12.487.76 15.783 1.625 11.513 3.03 25.347 10.465 34.027 18.29 12.977 11.699 15.9 16.72 25.068 43.054 1.055 3.037 1.7 482.566.65 484.866-.44.962-.669 2.492-.512 3.4.155.916-.246 2.745-.91 4.085-.657 1.338-2.67 6.636-4.466 11.77-7.141 20.393-26.267 37.51-51.114 45.744-6.023 1.998-20.187 2.115-284.388 2.374l-278.05.27-4.343-2.462zm556.045-34.31c7.734-2.237 15.557-7.298 21.201-13.713 15.593-17.727 12.463-44.152-6.991-59.039-5.456-4.174-12.84-6.692-24.133-8.226-8.652-1.18-12.553-3.202-16.767-8.695-2.465-3.215-2.471-3.616-2.783-169.427l-.312-166.204h-19.151v164.353c0 158.801-.093 164.652-2.324 173.198-4.27 16.253-10.596 26.637-23.666 38.839-9.47 8.84-20.468 14.604-34.426 18.038-9.296 2.287-13.466 2.334-214.23 2.334h-204.75v14.393c0 7.916.361 14.742.796 15.17.439.43 117.914.773 261.054.773 231.04 0 260.952-.202 266.478-1.8zm-116.268-65.729c17.152-5.197 28.312-18.769 29.818-36.265 1.123-13.022-3.716-25.045-13.742-34.157-5.296-4.813-19.767-10.252-27.275-10.252-5.313 0-11.255-2.586-15.105-6.578l-2.842-2.946-.599-167.07-.598-167.072H36.547l-.309 211.8c-.185 116.491-.062 212.458.247 213.26.454 1.167 53.793 1.46 261.172 1.46 251.027 0 260.866-.136 267.79-2.18zM173.173 517.55c-1.978-.85-4.944-2.976-6.591-4.714l-2.997-3.158-.346-38.936-.345-38.937-25.52-.353-25.518-.353-4.399-3.269c-8.182-6.084-7.992-4.68-7.992-58.934 0-48.788.01-48.906 2.697-52.755 5.965-8.533 6.613-8.702 35.14-9.097l25.683-.353V229.98l3.24-3.75c6.088-7.05 4.856-6.938 76.46-6.938 71.605 0 70.372-.135 76.46 6.933l3.24 3.75v78.005h37.153v-28.362l3.895-5.053c2.55-3.31 5.345-5.463 8.09-6.236 5.83-1.64 75.233-1.57 80.096.135 2.062.7 5.38 3.429 7.37 6.064l3.619 4.792v178.904l-2.697 3.859c-1.485 2.122-4.22 4.957-6.08 6.298-3.272 2.361-4.685 2.442-42.758 2.442-38.074 0-39.487-.134-42.759-2.442-7.538-5.438-8.776-8.823-8.776-23.987v-13.83h-37.153v78.005l-3.24 3.75c-6.094 7.052-4.815 6.937-76.721 6.887-52.037 0-66.402-.366-69.252-1.6zm112.964-148.597l.308-114.653h-87.501v114.167c0 62.792.364 114.523.815 114.958.447.43 19.998.66 43.445.481l42.631-.303.309-114.652zm140.227 0l-.312-66.224H396.09l-.312 66.224-.312 66.225h31.2l-.311-66.226zm-263.378.302V343H136.02l.343 26.256.342 26.258h26.28v-26.256zm196.552 0v-25.09h-37.153v50.18h37.153v-25.09zm353.554-31.467c0-222.145.565-205.686-7.48-218.044-3.342-5.133-12.984-13.633-15.467-13.633-.57 0-.895 94.42-.728 211.964l.308 211.964 4.795 1.396c2.635.774 7.49 2.771 10.786 4.45 3.296 1.682 6.397 3.081 6.891 3.108.494 0 .898-90.512.898-201.203zm-117.738-67.546l-.312-203.458-4.195-7.991c-2.956-5.634-6.064-9.472-10.532-13.011-3.485-2.761-6.857-5.02-7.493-5.02-.74 0-1.05 76.349-.855 212.046l.309 212.045 3.658.736c2.012.394 6.866 2.337 10.786 4.307 3.92 1.968 7.539 3.632 8.04 3.696.504.134.77-91.441.602-203.343z"/></svg>