<?xml version="1.0" encoding="UTF-8" standalone="no"?><svg xmlns="http://www.w3.org/2000/svg" width="744" height="740"><path d="M592.814 725.62c-60.327-7.788-109.896-14.375-110.152-14.64-.668-.688 37.838-299.813 38.706-300.681.63-.63 221.381 27.117 222.192 27.928.223.223-38.003 299.643-38.495 301.523-.095.366 5.985 1.131-112.251-14.13zm90.656-10.87c1.119-6.49 33.566-261.046 33.302-261.26-.15-.122-11.747-1.677-25.772-3.457a80451.64 80451.64 0 0 1-86.484-11.066c-33.541-4.308-61.127-7.689-61.303-7.514-.484.485-34.213 263.88-33.839 264.255.385.385 166.859 21.989 170.83 22.17 2.306.104 2.788-.358 3.266-3.128zM0 630V521h72V218H0V0h113v74h71v75h68.973l.264 33.75.263 33.75 21.75.27 21.75.269V253h137l.166 19.75.165 19.75.963-15.144c.86-13.544.73-16.765-1.245-30.5-1.214-8.446-2.453-16.593-2.753-18.106l-.546-2.75h24.742c24.508 0 24.736.02 24.201 2.065-.297 1.135-1.564 9.444-2.817 18.463l-2.277 16.397 2.421 38.788c1.332 21.333 2.572 51.95 2.756 68.037l.335 29.25H434v87H297v35.961l-21.75.27-21.75.269-.263 33.75-.264 33.75H184v75h-71v74H0V630zm277-260.5V237H92v265h185V369.5zm137 0V273H298v193h116v-96.5zm46 1.47v-8.03l-12.75.28-12.75.28-.301 6.395c-.166 3.517-.068 7.004.218 7.75.4 1.04 3.43 1.355 13.052 1.355H460v-8.03zm25.006-93.72c.009-28.138 3.635-45.934 13.12-64.399 9.572-18.636 25.453-33.224 41.526-38.146l7.202-2.205.662-6c3.054-27.654 12.431-48.768 28.87-65 9.926-9.802 18.621-14.954 30.258-17.93 12.812-3.275 32.832-.997 42.853 4.876 8.12 4.758 15.242 14.68 17.986 25.054 4.214 15.937.32 29.641-10.275 36.157-5.91 3.635-6.516 3.26-10.142-6.285l-3.277-8.628 2.74-2.186c2.417-1.926 2.726-2.823 2.62-7.584-.143-6.3-3.877-14.828-7.868-17.968-4.478-3.522-12.637-5.281-22.343-4.817-7.61.363-9.738.902-16.218 4.105-18.064 8.927-31.642 32.15-35.203 60.206l-.634 5 8.016 1.798c9.965 2.234 18.207 7.473 25.037 15.914 9.192 11.36 14.064 24.462 14.064 37.82 0 10.074-2.18 16.246-7.6 21.514-10.64 10.34-26.397 7.932-39.988-6.11-9.765-10.09-15.253-22.198-17.779-39.225-.758-5.11-1.586-9.498-1.841-9.752-.255-.255-3.325.967-6.823 2.715-12.16 6.076-23.77 21.052-29.376 37.89-4.172 12.534-5.593 23.476-5.593 43.067V295h-20l.006-17.75zm108.387-43.832c1.322-3.444.542-13.517-1.461-18.871-2.424-6.477-8.266-14.605-13.021-18.113-3.173-2.34-10.64-5.038-11.517-4.161-.776.776 2.616 17.68 4.602 22.932 4.602 12.174 19.009 24.437 21.397 18.213zM431 132.982V58.964l24.25.268 24.25.268.256 73.75.257 73.75H431v-74.018z"/></svg>