<?xml version="1.0" encoding="UTF-8" standalone="no"?><svg xmlns="http://www.w3.org/2000/svg" width="739" height="739"><path d="M0 647v-92l108.75.002 108.75.002-10-10.264c-6.798-6.978-11.665-13.094-15.2-19.1-2.859-4.86-5.351-9.293-5.537-9.853-.226-.676-2.294-.611-6.166.192-8.364 1.737-29.638 1.564-38.131-.31-42.507-9.376-73.114-42.304-80.918-87.055-3.915-22.45-.188-37.866 12.146-50.246 15.249-15.305 34.928-14.917 46.397.916 1.625 2.243 2.832 4.416 2.682 4.828-.15.411-3.834 3.068-8.185 5.904-7.222 4.705-8 4.998-8.92 3.353-1.843-3.292-5.55-6.369-7.672-6.369-5.12 0-12.537 6.524-15.917 14-5.506 12.177.504 40.684 12.479 59.196 16.879 26.091 47.162 40.78 76.386 37.049 4.505-.576 8.34-1.203 8.524-1.396.184-.192-.324-3.724-1.128-7.849-4.767-24.459 1.248-46.535 17.028-62.491 9.701-9.81 18.03-13.849 28.632-13.884 5.787-.02 8.414.464 11.5 2.116 12.702 6.8 18.983 21.363 16.6 38.492-3.394 24.407-17.414 42.81-40.913 53.704-3.855 1.788-5.102 2.854-4.674 4 3.785 10.133 20.573 28.094 32.487 34.757 4.125 2.307 11.1 5.42 15.5 6.916 7.34 2.497 9.567 2.756 27 3.143l19 .422 16.25 16.151L333 587.477V666h73v-78.478l16.239-16.261L438.477 555H739v184H0v-92zm715.5 0v-66.5l-134.477-.254-134.476-.253-8.774 8.733-8.773 8.732V690H309v-93.458l-8.228-8.271-8.228-8.271H23v134.003l346.25-.252 346.25-.251V647zM214.673 480.832c14.992-10.14 23.287-37.24 14.333-46.826-3.526-3.774-6.123-3.78-12.661-.03-8.85 5.075-15.937 15.828-18.924 28.71-1.563 6.74-1.424 11.056.711 22.093l1.022 5.28 5.673-3.202c3.12-1.761 7.551-4.472 9.846-6.025zM369 589.666c0-.376 13.05-20.25 29-44.166 15.95-23.916 29-43.712 29-43.991 0-.28-4.5-.509-9.999-.509h-9.998l-25.252 37.97c-13.888 20.883-25.58 37.87-25.981 37.75-.402-.121-18.265-17.095-39.697-37.72l-38.967-37.5-.053-15.75L277 470h185v30.831l-43.791 42.335c-47.227 45.656-49.21 47.529-49.21 46.5zm-37-221.678v-78.012l37.25.262 37.25.262.256 77.75.256 77.75H332v-78.012zM298 228v-39h7c3.85 0 7-.421 7-.936 0-.515-1.123-5.575-2.496-11.243-11.176-46.156-14.41-113.07-7.964-164.745.794-6.367 1.448-11.689 1.452-11.826C302.996.112 332.925 0 369.5 0c52.523 0 66.504.263 66.52 1.25.01.688.677 6.8 1.48 13.582 6.073 51.273 2.64 117.19-8.485 162.918L426.278 189H441v78H298v-39z"/></svg>