<?xml version="1.0" encoding="UTF-8" standalone="no"?><svg xmlns="http://www.w3.org/2000/svg" width="347.894" height="738.875"><path d="M114.563 731.625c-1.638-18.843-1.682-19.05-4.609-21.783-6.803-6.356-23.693-7.958-35.69-3.386-5.873 2.237-7.971 2.532-15.774 2.214-10.456-.426-15.785-2.757-20.91-9.145l-3.09-3.851.308-20.15c.36-23.638-1.026-45.037-3.391-52.339-2.296-7.086-5.255-9.493-16.917-13.76C2.711 605.115-.014 602.697 0 596.57c.014-6.15 3.511-12.743 17.225-32.481 14.165-20.386 18.706-27.599 19.841-31.512.49-1.687.246-6.254-.614-11.5-1.831-11.17-1.856-29.971-.052-39.364 9.834-51.21 58.492-92.81 121.59-103.956 83.837-14.808 167.499 28.291 186.58 96.118 2.417 8.596 2.718 11.571 3.156 31.252.388 17.43.15 23.788-1.2 32-3.478 21.169-12.752 42.7-25.781 59.862-10.806 14.232-28.868 45.005-32.028 54.567-8.462 25.604-7.392 59.064 2.608 81.57l2.555 5.75H115.194l-.63-7.25zm65.963-386.808c-7.941-1.23-14.293-3.413-18.76-6.448-3.12-2.12-4.814-2.494-11.3-2.494-7.1 0-7.833-.203-10.553-2.923-4.046-4.046-4.112-10.042-.153-14l2.77-2.77-2.77-2.538c-3.906-3.58-3.909-9.783-.01-13.685l2.763-2.763-2.763-2.723c-2.165-2.134-2.763-3.652-2.763-7.015 0-5.708 3.16-9.19 9.129-10.061 2.404-.35 24.546-.499 49.204-.33l44.833.308 2.917 3.266c3.897 4.363 3.938 9.06.115 13.34l-2.803 3.136 2.803 2.802c1.875 1.875 2.802 3.837 2.802 5.93 0 3.75-2.31 8.548-4.527 9.398-1.336.513-1.16.993 1.062 2.904 1.945 1.674 2.804 3.548 3.188 6.96.475 4.213.229 4.967-2.521 7.717-2.856 2.856-3.52 3.047-10.558 3.047-6.579 0-8.109.369-12.327 2.968-2.65 1.632-7.354 3.62-10.455 4.416-7.523 1.933-21.955 2.7-29.326 1.558zm-41.536-83.006c-9.945-4.552-12.972-10.022-14.068-25.425-.43-6.056-1.44-12.81-2.242-15.01-.802-2.2-8.729-19.92-17.615-39.377s-17.24-39.114-18.564-43.683c-7.282-25.128-4.995-52.05 6.468-76.145 8.736-18.362 21.196-32.962 37.246-43.641C148.996 6.033 165.118.908 187.99.16c12.231-.4 16.142-.135 24.992 1.689 21.935 4.52 38.777 13.683 55.08 29.966 23.773 23.744 34.074 51.622 31.801 86.06-1.023 15.498-3.849 23.653-22.352 64.5-9.467 20.9-17.548 38.9-17.958 40-.409 1.1-1.322 7.743-2.03 14.763-1.5 14.9-3.37 18.794-11.26 23.431l-4.773 2.805-49 .248c-47.622.24-49.126.189-53.5-1.812zm87.53-21.384c3.788-1.582 4.851-3.443 6.379-11.163.556-2.812 9.54-24.423 19.965-48.025s19.775-45.827 20.778-49.388c1.427-5.07 1.816-9.95 1.79-22.476-.032-15.276-.177-16.43-3.213-25.5-7.54-22.525-22.714-39.878-43.729-50.01-14.19-6.843-21.167-8.41-37.5-8.422-14.517-.01-22.503 1.585-34.504 6.892-13.861 6.13-27.821 18.148-36.61 31.516-12.885 19.6-17.03 45.649-10.822 68.024 1.144 4.125 10.564 26.679 20.932 50.12 11.534 26.074 19.315 44.973 20.046 48.685 1.22 6.206 3.598 9.546 7.458 10.48 1.1.266 16.302.536 33.782.6 25.681.093 32.448-.163 35.248-1.333zm-48.53-37.523v-12.029h27.064l-.282 11.75-.282 11.75-13.25.28-13.25.278v-12.029zm5.99-29.735c-.01-.436-1.58-20.144-3.498-43.794-2.369-29.21-3.488-49.173-3.49-62.25v-19.25h28l-.068 23.75c-.051 17.32-.93 34.31-3.25 62.75l-3.18 39-7.25.294c-3.988.162-7.256-.063-7.262-.5z"/></svg>