<?xml version="1.0" encoding="UTF-8" standalone="no"?>
<svg
   xmlns:dc="http://purl.org/dc/elements/1.1/"
   xmlns:cc="http://creativecommons.org/ns#"
   xmlns:rdf="http://www.w3.org/1999/02/22-rdf-syntax-ns#"
   xmlns:svg="http://www.w3.org/2000/svg"
   xmlns="http://www.w3.org/2000/svg"
   viewBox="0 0 750 656"
   height="656"
   width="750"
   version="1.1"
   id="svg2">
  <metadata
     id="metadata8">
    <rdf:RDF>
      <cc:Work
         rdf:about="">
        <dc:format>image/svg+xml</dc:format>
        <dc:type
           rdf:resource="http://purl.org/dc/dcmitype/StillImage" />
        <dc:title></dc:title>
      </cc:Work>
    </rdf:RDF>
  </metadata>
  <defs
     id="defs6" />
  <path
     id="path3338"
     d="M 167.97427,655.03103 118.44854,654.5 l -2.90588,-2.28677 c -6.28443,-4.94552 -5.91263,-1.32513 -6.69497,-65.19314 C 108.27885,540.58096 107.52304,196.68524 107.90865,159.75 L 108,151 l 271.5,0 271.5,0 0.0828,-18.25 c 0.0455,-10.0375 0.39296,-34.457816 0.77208,-54.267369 0.63852,-33.363165 0.83508,-36.266825 2.66723,-39.402466 5.75782,-9.854187 24.18739,-10.670908 45.02689,-1.995403 19.62113,8.168298 35.2448,23.314851 44.39784,43.042012 C 749.62705,92.369159 749.5,86.229162 749.5,348.5 c 0,271.29742 0.82799,244.60026 -8.1681,263.36682 -3.91907,8.1755 -5.78375,10.6624 -14.66103,19.55327 -11.01737,11.03424 -19.187,16.11925 -33.17087,20.64649 -6.82947,2.21102 -8.4373,2.28402 -66,2.99659 -65.7967,0.8145 -382.63151,0.79234 -459.52573,-0.0321 z m 503.04612,-35.89258 c 8.76406,-0.61233 11.64233,-1.26006 17.24076,-3.87988 25.22039,-11.80205 31.59948,-44.36522 12.82585,-65.47182 -6.17777,-6.94547 -21.77153,-13.7651 -31.5471,-13.79652 -3.87211,-0.0124 -12.39908,-4.00822 -15.16818,-7.10788 L 652.24344,526.5 651.54317,357.52741 c -0.38515,-92.93492 -0.91648,-169.32242 -1.18074,-169.75 C 650.09818,187.34984 536.28352,187 397.44098,187 L 145,187 l 0,215.91667 c 0,171.79766 0.25542,216.01973 1.25,216.42105 1.99986,0.80696 513.14666,0.61287 524.77039,-0.19927 z M 285.82337,556.31043 c -1.47214,-0.23601 -4.69072,-2.20199 -7.15239,-4.36884 l -4.47576,-3.93972 -0.34761,-38.91811 c -0.19119,-21.40496 -0.61615,-39.18642 -0.94436,-39.51435 -0.32822,-0.32794 -12.02822,-0.87808 -26,-1.22253 L 221.5,467.72059 l -4.65843,-3.37825 c -2.58229,-1.87264 -5.22817,-4.81869 -5.9368,-6.61029 -1.43058,-3.61691 -2.62221,-86.12372 -1.40836,-97.51301 0.84389,-7.91809 5.06648,-14.04501 11.04947,-16.03266 2.54803,-0.8465 12.66633,-1.55771 28.45412,-2 l 24.5,-0.68638 0.26144,-39.06707 0.26144,-39.06708 3.28888,-3.59061 c 5.71742,-6.24197 5.40452,-6.2158 74.68824,-6.24705 34.375,-0.0155 65.13977,0.34822 68.36615,0.80828 4.86909,0.69429 6.61126,1.52329 10.25,4.87736 l 4.38385,4.04089 0,39.87264 0,39.87264 19,0 19,0 0,-14.3625 0,-14.36249 3.08672,-3.88751 c 6.38407,-8.04029 5.39512,-7.84619 41.90073,-8.22385 17.8819,-0.185 36.33755,-0.0289 41.01255,0.34689 l 8.5,0.68325 4.75,4.89979 4.75,4.89979 0,91.82331 0,91.82332 -3.6893,4.31012 C 567.21735,508.06883 567.68805,508 525.09722,508 c -24.39415,0 -38.97339,-0.38023 -40.78212,-1.06362 -3.54042,-1.33766 -8.18569,-5.66634 -9.58999,-8.93638 -0.59048,-1.375 -1.33269,-8.8 -1.64935,-16.5 l -0.57576,-14 -18.5,0 -18.5,0 -0.5,40.17047 -0.5,40.17048 -2.5,2.67454 c -5.87687,6.28717 -1.96427,5.97291 -76,6.10428 -37.125,0.0659 -68.70448,-0.0733 -70.17663,-0.30934 z M 397.28012,521 c 0.24568,-0.275 0.75249,-52.5875 1.12624,-116.25 L 399.08591,289 354.54296,289 310,289 l 0,112.875 c 0,62.08125 0.27634,114.25668 0.61408,115.9454 0.40782,2.0391 1.3315,3.22891 2.75,3.54232 2.83904,0.62727 83.34247,0.2793 83.91604,-0.36272 z M 541,429.16193 c 0,-23.56094 -0.29698,-53.71094 -0.65995,-67 L 539.68011,338 524.84005,338 510,338 l -10e-4,24.25 c -7e-4,13.3375 -0.29898,43.4875 -0.66284,67 l -0.66155,42.75 16.16283,0 16.16283,0 0,-42.83807 z M 273.34154,412.33919 C 273.70369,401.52575 274,389.60075 274,385.83919 L 274,379 l -14,0 -14,0 0.004,12.25 c 0.002,6.7375 0.29701,18.6625 0.65555,26.5 l 0.65189,14.25 12.68599,0 12.68599,0 0.65846,-19.66081 z M 473,405.5 l 0,-25.5 -19,0 -19,0 0,25.5 0,25.5 19,0 19,0 0,-25.5 z M 711.98678,304.75 711.97356,98.5 708.03013,91.389959 c -2.35443,-4.245052 -6.21805,-9.188911 -9.58835,-12.269172 -9.88241,-9.031965 -9.03027,-10.651385 -9.78273,18.591362 -0.85738,33.320111 -0.85465,311.956931 0.004,364.623971 0.6574,40.34308 0.6791,40.66406 2.75,40.6869 1.14805,0.0127 5.91237,1.79045 10.58737,3.95063 4.675,2.16019 8.8375,3.94982 9.25,3.97698 0.4125,0.0272 0.74405,-92.76313 0.73678,-206.20063 z"
     style="fill:#000000" />
</svg>
