<?xml version="1.0" encoding="UTF-8" standalone="no"?><svg xmlns="http://www.w3.org/2000/svg" width="739" height="739"><path d="M0 680.5V622l167.25.03 167.25.032 13.765 12.219L362.03 646.5l-169.515.253L23 647.006V714h692v-66.994l-169.057-.253-169.056-.253 13.781-12.25L404.45 622H739v117H0v-58.5zm350.71-83.173L332 580.68v-16.578l36.75-33.421c20.213-18.382 37.088-33.228 37.5-32.992.413.236.75 18.803.75 41.26 0 37.468-.144 40.992-1.75 42.8-.962 1.084-8.275 7.742-16.25 14.797-7.975 7.054-15.643 13.861-17.04 15.127l-2.542 2.3-18.709-16.646zM332 503.322v-32.846l36.341-32.935c19.988-18.114 36.863-33.109 37.5-33.321.863-.288 1.159 7.93 1.159 32.158 0 32.448-.01 32.55-2.25 34.685-8.524 8.111-71.035 64.503-71.798 64.77-.59.207-.952-12.158-.952-32.511zm.24-110.942l.26-50.88h74l.274 16.707.274 16.708-2.774 2.952c-2.632 2.8-66.888 61.098-70.556 64.013-1.645 1.307-1.723-1.309-1.477-49.5zM282 279v-39h174v78H282v-39zm-33.312-81.75L237.5 174.5l-20.25-.27-20.25-.271V0h345v174h-40.535L490 197l-11.465 23H259.876l-11.188-22.75z"/></svg>