<?xml version="1.0" encoding="UTF-8" standalone="no"?><svg xmlns="http://www.w3.org/2000/svg" width="739" height="739"><path d="M0 630V521h82V218H0V0h113v74h71v75h69v69h44v116.693l-11.75 13.206-11.75 13.206-.258-61.552-.257-61.553H102v263h170.985l.257-61.553.258-61.552 11.75 13.206L297 404.307V521h-44v69h-69v75h-71v74H0V630zm715.25-140.023L693 479.114V259.87l22.589-10.935c12.424-6.014 22.774-10.935 23-10.935.226 0 .411 59.175.411 131.5s-.338 131.464-.75 131.42c-.412-.045-10.762-4.969-23-10.943zM595 369.5V283h78v173h-78v-86.5zm-278.967 19.128c-8.977-10.105-16.293-18.767-16.258-19.25.034-.483 7.387-9.09 16.34-19.128L332.392 332h16.369l32.87 36.168c18.078 19.893 33.229 36.768 33.669 37.5.66 1.1-6.472 1.332-41.074 1.332h-41.873l-16.32-18.372zm94.487-18.083c-18.14-20.035-33.14-36.903-33.334-37.486-.243-.731 9.8-1.048 32.48-1.023l32.834.036 33 36.475c18.15 20.06 33.15 36.92 33.333 37.464.216.639-11.284.984-32.5.975l-32.833-.014-32.98-36.427zm93.048-.515C485.106 349.697 470 332.822 470 332.53c0-.291 22.725-.53 50.5-.53H571v75h-33.864l-33.568-36.97z"/></svg>