<?xml version="1.0" encoding="UTF-8" standalone="no"?><svg xmlns="http://www.w3.org/2000/svg" width="794" height="741"><path d="M18 576V411h23v24.692l13.25.637c7.287.35 14.938.929 17 1.285l3.75.648v19.01l-4.54-.622c-2.496-.343-10.146-.922-17-1.289L41 454.695V718h695l.002-127.75.002-127.75-8.002.326-8.003.326V444l4.25-.011c2.338-.006 5.938-.29 8-.63l3.75-.62V411h24v330H18V576zm76.667 97.333c-.367-.366-.667-64.491-.667-142.5V389h46.049l1.05-2.75c7.016-18.385 10.805-59.337 7.985-86.312-2.626-25.124-9.521-48.863-20.629-71.025-8.132-16.225-12.378-27.01-16.333-41.487-5.441-19.918-6.532-28.776-6.579-53.426-.047-24.364.682-29.113 7.138-46.5C128.92 43.765 171.541 12.34 218 9.849l6.5-.349.521 9.5c.287 5.225.512 9.569.5 9.653-.011.084-4.296.66-9.521 1.28-24.225 2.874-42.492 11.262-59.598 27.365-14.993 14.115-23.896 29.698-29.348 51.369-3.813 15.157-2.404 47.616 2.988 68.833 3.696 14.546 6.08 20.813 15.123 39.76 19.145 40.115 25.808 71.174 24.506 114.24-.606 20.027-2.467 34.464-6.478 50.262L161.354 389h48.318l.659 67.898c.362 37.345.362 101.47 0 142.5L209.67 674h-57.169c-31.443 0-57.469-.3-57.835-.667zM186 531.5V412h-67v239h67V531.5zm400 0V389h25c13.75 0 25-.211 25-.47 0-.257-1.152-3.97-2.56-8.25-4.12-12.52-7.462-30.644-8.687-47.106-1.877-25.223 1.264-50.294 9.32-74.393 6.137-18.357 9.966-26.124 24.647-49.99 13.932-22.65 21.22-49.737 21.262-79.029.016-11.537-.276-13.659-3.101-22.5-5.462-17.097-11.66-27.202-24.488-39.927-21.64-21.467-50.184-33.999-84.946-37.295-6.02-.571-11.576-1.039-12.345-1.04-1.147 0-1.275-1.735-.715-9.701.375-5.336.779-9.778.897-9.873.119-.095 5.562.224 12.096.708 39.368 2.92 73.545 17.83 99.18 43.273 14.448 14.338 22.917 28.146 29.498 48.093 2.871 8.7 3.355 11.676 3.725 22.9 1.193 36.192-8.134 70.537-27.142 99.943-20.454 31.643-29.917 66.274-28.266 103.438.896 20.155 5.444 41.819 12.065 57.469l1.587 3.75H702v285H586V531.5zm91.5 0v-119l-33.75-.263-33.75-.264v239.054l33.75-.264 33.75-.263v-119zm-243 115.446c-13.662-.89-25.192-2.242-64-7.501-12.11-1.641-26.072-2.772-38.5-3.12-18.528-.516-20.422-.389-38 2.559-10.175 1.706-20.75 3.217-23.5 3.359l-5 .257-1.053-9.28c-1.02-8.983-.988-9.293 1-9.672 1.129-.215 11.503-1.879 23.053-3.697 28.519-4.49 47.405-4.478 81.5.054 52.732 7.01 56.633 7.336 89 7.47l30.5.125 16-3.777c8.8-2.077 18.615-4.405 21.81-5.174 4.376-1.052 5.921-1.107 6.256-.223 1.616 4.264 5.278 17.164 4.962 17.48-1.026 1.025-32.976 8.45-41.892 9.736-12.994 1.872-44.149 2.576-62.136 1.404zm8-80.549c-16.164-.828-34.7-2.743-62-6.403-33.31-4.467-55.329-6.109-67.5-5.033-4.675.413-17.407 2.22-28.294 4.017-10.887 1.797-20.043 3.018-20.347 2.714-.874-.874-2.58-16.675-1.97-18.261.301-.787 1.8-1.433 3.33-1.436 1.53-.003 11.09-1.346 21.245-2.984 32.78-5.288 44.488-5.104 94.036 1.485 36.77 4.889 43.697 5.483 71.5 6.133 28.546.668 34.241.067 61.992-6.539 9.3-2.213 16.972-3.926 17.052-3.807.806 1.212 5.462 18.045 5.092 18.414-1.173 1.174-32.091 8.385-41.904 9.774-10.87 1.539-39.32 2.588-52.232 1.926zM227 469.179v-9.858l9.75-1.177c5.362-.647 24.6-3.244 42.75-5.771 32.154-4.477 33.462-4.58 51-4.005 9.9.324 26.55 1.718 37 3.099 41.467 5.477 51.931 6.52 75.5 7.522 31.261 1.329 36.236.811 81.5-8.478 19.8-4.063 37.688-7.69 39.75-8.06l3.75-.674v9.593c0 9.134-.107 9.615-2.25 10.085-1.238.272-13.5 2.784-27.25 5.582-13.75 2.799-29.95 6.147-36 7.441-30.006 6.418-62.438 5.873-121.968-2.046-32.233-4.289-52.209-5.834-64.532-4.992-5.225.357-20.75 2.189-34.5 4.072-13.75 1.882-30.625 4.117-37.5 4.966-6.875.85-13.512 1.773-14.75 2.052-2.216.5-2.25.357-2.25-9.35zM198 179.5V51h382v257H198V179.5zm123 6.5v-24h48v-22h-48V92h-22v48h-48v22h48v48h22v-24zm214-44v-15h-99v30h99v-15zM252 19.5V0h84v39h-84V19.5zm191.678 18.844c-.373-.372-.678-9.152-.678-19.51V0h85.043l-.271 19.25-.272 19.25-41.572.26c-22.865.144-41.878-.043-42.25-.416z"/></svg>