<?xml version="1.0" encoding="UTF-8" standalone="no"?>
<!-- Created with Inkscape (http://www.inkscape.org/) -->

<svg
   xmlns:dc="http://purl.org/dc/elements/1.1/"
   xmlns:cc="http://creativecommons.org/ns#"
   xmlns:rdf="http://www.w3.org/1999/02/22-rdf-syntax-ns#"
   xmlns:svg="http://www.w3.org/2000/svg"
   xmlns="http://www.w3.org/2000/svg"
   xmlns:sodipodi="http://sodipodi.sourceforge.net/DTD/sodipodi-0.dtd"
   xmlns:inkscape="http://www.inkscape.org/namespaces/inkscape"
   id="svg2"
   version="1.1"
   inkscape:version="0.92.3 (2405546, 2018-03-11)"
   width="750"
   height="693"
   viewBox="0 0 750 693"
   sodipodi:docname="engrave.svg">
  <metadata
     id="metadata8">
    <rdf:RDF>
      <cc:Work
         rdf:about="">
        <dc:format>image/svg+xml</dc:format>
        <dc:type
           rdf:resource="http://purl.org/dc/dcmitype/StillImage" />
        <dc:title />
      </cc:Work>
    </rdf:RDF>
  </metadata>
  <defs
     id="defs6" />
  <sodipodi:namedview
     pagecolor="#ffffff"
     bordercolor="#666666"
     borderopacity="1"
     objecttolerance="10"
     gridtolerance="10"
     guidetolerance="10"
     inkscape:pageopacity="0"
     inkscape:pageshadow="2"
     inkscape:window-width="1366"
     inkscape:window-height="714"
     id="namedview4"
     showgrid="false"
     inkscape:zoom="0.2959844"
     inkscape:cx="-495.89951"
     inkscape:cy="98.308067"
     inkscape:window-x="0"
     inkscape:window-y="0"
     inkscape:window-maximized="1"
     inkscape:current-layer="svg2"
     showguides="true" />
  <path
     style="fill:#000000;stroke-width:1.51539743"
     d="M 8.4801386,691.09153 3.9000187,686.80746 V 645.6809 604.55434 l 4.3089233,-4.42582 c 4.00813,-4.11685 5.621502,-4.58499 23.111501,-6.7062 21.063619,-2.55464 25.736043,-3.86169 30.211621,-8.45134 1.70541,-1.74887 42.749566,-88.5879 91.209246,-192.97563 66.70513,-143.69055 89.2138,-190.77492 92.6585,-193.82627 4.81212,-4.26258 11.6366,-5.26752 17.12243,-2.52137 3.33605,1.67 7.74761,8.75256 7.74761,12.4384 0,1.99455 -173.435218,376.65109 -179.480496,387.71562 -3.21574,5.88567 -14.32729,15.55307 -21.728219,18.90423 -3.708482,1.6792 -13.012138,3.89901 -20.674815,4.9329 l -13.932114,1.8798 -0.431503,23.00523 -0.43152,23.00522 h 85.434837 85.43482 v -21.14383 -21.14384 l -8.46958,-3.62687 c -10.09408,-4.32253 -19.61729,-13.07946 -24.60227,-22.62269 -2.84408,-5.44468 -3.63928,-9.46958 -3.6879,-18.66627 -0.0553,-10.47613 0.74928,-13.78215 7.55513,-31.0419 4.70234,-11.92516 9.09711,-20.61803 11.48476,-22.71688 l 3.86765,-3.39982 67.64276,-0.44889 c 46.90338,-0.31126 69.49367,0.0576 73.67963,1.20318 5.73319,1.56895 6.45821,2.48754 14.41205,18.26017 11.75773,23.31582 13.81402,29.84817 12.86755,40.87712 -0.43288,5.04419 -2.23274,12.22825 -3.9997,15.96456 -3.81653,8.07023 -14.46348,18.44215 -22.65753,22.07225 l -5.87581,2.60308 v 21.91532 21.91531 h 74.79599 74.79597 l -20.12875,-18.8696 -20.12876,-18.86961 0.17481,-82.10275 0.17481,-82.10273 -18.56356,-0.52081 c -13.53692,-0.37978 -19.33413,-1.11609 -21.40925,-2.71921 -4.80716,-3.71374 -66.81496,-76.57237 -67.90447,-79.78718 -0.56284,-1.66073 -0.82865,-37.07706 -0.59072,-78.70298 l 0.43263,-75.68346 4.08996,-3.82562 c 3.94903,-3.69378 4.73049,-3.8256 22.67888,-3.8256 h 18.58891 V 176.5514 132.58325 h -41.17371 c -44.89366,0 -45.88642,-0.16969 -49.56291,-8.47181 -1.3168,-2.97358 -1.72108,-15.75698 -1.39109,-43.988181 0.45776,-39.164724 0.52173,-39.84941 4.0295,-43.132395 2.84689,-2.66447 5.84311,-3.48345 14.88538,-4.068755 l 11.32102,-0.732802 0.78344,-10.755445 c 0.69281,-9.511308 1.29199,-11.164262 5.17973,-14.2896504 6.28836,-5.0552378 14.11832,-4.7618239 20.01089,0.7498776 l 4.58013,4.2840798 v 19.26195 c 0,10.594068 -0.72601,20.530809 -1.61333,22.081639 -2.63075,4.597855 -10.04642,7.246848 -20.28709,7.246848 h -9.521 l 0.43362,21.617676 0.43361,21.617668 65.55421,0.73281 65.55421,0.7328 c 0,0 -120.38169,-0.66873 152.39406,-0.7328 H 713.69729 V 82.752683 60.768606 h -9.4791 c -10.94307,0 -17.32799,-2.562036 -19.98658,-8.019883 -2.83248,-5.814736 -2.46999,-36.477704 0.4946,-41.840016 4.52834,-8.1908717 14.60612,-9.7829292 22.51636,-3.5571124 4.37331,3.4420324 4.79061,4.5860554 5.2126,14.2896504 l 0.45868,10.548062 11.27695,0.429041 c 10.37415,0.394702 11.59722,0.785037 15.2771,4.875672 l 4.00014,4.446617 v 41.037236 41.037237 l -4.58012,4.28406 -4.5801,4.28408 h -41.64291 -41.64287 v 43.96815 43.96816 h 18.87379 c 17.80743,0 19.08524,0.19777 22.61594,3.50026 2.05818,1.92514 4.17354,5.7174 4.70084,8.42722 0.52729,2.70984 0.75028,37.90309 0.49555,78.20723 l -0.46312,73.28025 -33.42645,38.83854 c -18.94594,22.01346 -35.23671,39.60354 -37.60516,40.60445 -2.34458,0.9908 -11.228,1.79491 -20.23923,1.832 l -16.06053,0.0661 v 81.72948 81.72947 l -19.58602,18.27609 c -10.77232,10.05183 -19.58602,18.7806 -19.58602,19.39726 0,0.61666 27.34187,1.1212 60.75973,1.1212 66.44917,0 65.33568,-0.13909 69.22741,8.64907 1.50481,3.39813 1.5238,5.53369 0.0853,9.61029 -3.60315,10.21214 8.96531,9.58714 -192.7905,9.58714 h -181.9565 l -4.58011,-4.28408 -4.58012,-4.28406 v -39.57164 -39.57165 l 3.88344,-4.31688 c 2.6414,-2.93625 5.9155,-4.62084 10.23708,-5.26722 8.3979,-1.25608 17.0227,-8.64117 18.20135,-15.58512 0.67515,-3.97762 -0.50315,-8.08164 -5.14668,-17.92607 l -6.02228,-12.76742 -55.66754,-0.0276 -55.66754,-0.0276 -5.06387,12.82405 c -6.0053,15.20823 -6.14255,17.43416 -1.47766,23.96575 4.24098,5.93802 12.39042,10.08655 19.94651,10.1539 6.05614,0.054 9.52231,1.97942 12.27912,6.82095 1.25458,2.20331 1.82282,15.37365 1.82282,42.24887 v 39.04764 l -4.58013,4.28406 -4.5801,4.28409 H 119.0658 13.060243 Z m 527.8389114,-51.84125 22.3586,-20.95083 -0.44254,-17.87528 -0.44251,-17.87529 -41.27153,22.18297 -41.27152,22.18296 17.74273,16.64313 c 9.75853,9.15372 18.46848,16.64314 19.35546,16.64314 0.887,0 11.67408,-9.42787 23.97131,-20.9508 z m -13.26929,-70.64951 35.47772,-19.05287 0.0243,-26.86942 c 0.0141,-14.7782 -0.54306,-26.6496 -1.23648,-26.38089 -0.6934,0.26869 -21.48947,11.37065 -46.21352,24.67102 l -44.95277,24.18248 -0.009,26.85922 -0.009,26.85922 10.72099,-5.60795 c 5.8964,-3.08437 26.68581,-14.18173 46.19858,-24.66081 z M 631.40322,414.90582 c 9.92856,-11.58172 18.05194,-21.47456 18.05194,-21.98408 0,-0.50951 -39.16491,-0.92639 -87.03314,-0.92639 h -87.03314 l -3.78227,-3.53779 c -2.08023,-1.94579 -4.22492,-5.1875 -4.76595,-7.2038 -1.31017,-4.8827 3.09417,-13.32139 8.05645,-15.43622 2.78884,-1.18855 30.94438,-1.66869 97.85458,-1.66869 h 93.93916 v -57.89139 -57.8914 H 512.35304 358.01521 v 57.8914 57.89139 h 40.03329 c 33.0711,0 40.84895,0.39453 44.72344,2.26862 8.68488,4.20083 10.21077,14.65122 3.10916,21.2938 l -4.58011,4.28408 h -33.02504 c -18.16376,0 -33.02503,0.34697 -33.02503,0.77105 0,0.42408 8.18328,10.31692 18.18509,21.98408 l 18.18511,21.21302 h 100.86509 100.8651 z M 224.26051,474.6022 c -2.76098,-2.58255 -4.13086,-5.43646 -4.13086,-8.60602 0,-4.03187 24.84936,-63.08205 34.59235,-82.20266 4.50714,-8.84531 12.71328,-11.58966 21.68259,-7.25126 3.79759,1.83689 6.95163,7.85463 22.64197,43.1998 11.03525,24.85881 18.22974,43.02521 18.22974,46.03095 0,3.41067 -1.29337,6.17507 -4.13086,8.82919 l -4.13088,3.86386 H 268.70297 228.3914 Z m 54.96889,-25.81465 c -5.42793,-12.79742 -9.69615,-21.61767 -10.46101,-21.61767 -0.51988,0 -1.71125,1.81368 -2.64748,4.0304 -0.93622,2.21674 -3.19581,7.49291 -5.02131,11.72485 l -3.31907,7.69443 h 11.11294 c 8.26019,0 10.91348,-0.47028 10.33593,-1.83201 z"
     id="path823"
     inkscape:connector-curvature="0"
     sodipodi:nodetypes="cccccscsccsccscccccccscccccscsssscccccccccsscsccscccscscscscccscscccccccccscccccsccccccccccsccscscsccccssccsccccccssscccccccscccccccccccccscccccsccccccsssccssscccccccscccssscccscsccssccccccscccsc" />
</svg>
