<?xml version="1.0" standalone="no"?>
<!DOCTYPE svg PUBLIC "-//W3C//DTD SVG 20010904//EN"
 "http://www.w3.org/TR/2001/REC-SVG-20010904/DTD/svg10.dtd">
<svg version="1.0" xmlns="http://www.w3.org/2000/svg"
 width="220.000000pt" height="150.000000pt" viewBox="0 0 220.000000 150.000000"
 preserveAspectRatio="xMidYMid meet">

<g transform="translate(0.000000,150.000000) scale(0.100000,-0.100000)"
fill="#000000" stroke="none">
<path d="M17 1493 c-4 -3 -7 -341 -7 -750 l0 -743 1095 0 1095 0 -2 747 -3
748 -1086 3 c-597 1 -1089 -1 -1092 -5z m2133 -748 l0 -705 -1045 0 -1045 0 0
705 0 705 1045 0 1045 0 0 -705z"/>
<path d="M866 1432 c-3 -4 -13 -50 -22 -102 -16 -85 -16 -94 -1 -105 13 -9 17
-33 19 -106 3 -86 5 -94 23 -94 18 0 20 8 23 97 2 73 6 97 17 102 13 4 15 -13
15 -115 0 -93 -3 -120 -12 -116 -7 2 -36 13 -64 23 l-51 18 16 27 c13 23 14
30 3 41 -17 17 -182 24 -210 9 -19 -10 -21 -8 -24 21 -2 27 -8 34 -30 36 -33
4 -97 -28 -148 -74 l-39 -35 -17 25 c-9 14 -21 26 -28 26 -28 -1 -116 -141
-116 -185 0 -11 -6 -11 -30 3 -22 13 -32 14 -41 5 -16 -16 -25 -184 -10 -211
11 -20 9 -22 -19 -22 -17 0 -33 -6 -36 -13 -8 -22 34 -118 71 -163 l34 -41
-24 -11 c-14 -7 -25 -18 -25 -26 0 -25 84 -91 141 -110 l56 -19 -16 -28 c-11
-20 -13 -31 -5 -39 16 -16 142 -24 192 -12 l42 10 0 -29 c0 -16 6 -32 13 -35
22 -8 118 34 164 72 l42 35 17 -26 c9 -14 22 -25 29 -25 17 0 79 93 101 150
10 25 18 46 19 48 1 1 15 -3 30 -10 24 -11 29 -10 41 7 17 23 19 166 4 196
-10 17 -7 19 21 19 22 0 32 5 36 20 5 19 14 20 209 20 l204 0 0 -35 c0 -19 5
-35 10 -35 6 0 10 16 10 35 l0 35 273 2 272 3 0 300 0 300 -272 3 -273 2 0 35
c0 19 -4 35 -10 35 -5 0 -10 -16 -10 -35 l0 -35 -264 0 c-201 0 -267 -3 -273
-12 -4 -8 -14 20 -23 67 -11 59 -19 81 -32 83 -9 2 -19 -1 -22 -6z m484 -437
l0 -255 -180 0 -180 0 0 255 0 255 180 0 180 0 0 -255z m130 170 c0 -50 4 -85
10 -85 6 0 10 35 10 85 l0 85 50 0 50 0 0 -255 0 -255 -50 0 -50 0 0 85 c0 50
-4 85 -10 85 -6 0 -10 -35 -10 -85 l0 -85 -40 0 -40 0 0 255 0 255 40 0 40 0
0 -85z m520 -170 l0 -255 -175 0 -175 0 0 255 0 255 175 0 175 0 0 -255z
m-1450 85 c0 -35 -3 -40 -24 -40 -13 0 -43 -7 -66 -15 -56 -20 -57 -19 -29 11
20 22 106 84 116 84 2 0 3 -18 3 -40z m220 -17 c0 -5 -9 -19 -19 -32 -18 -24
-19 -24 -60 -8 -23 10 -54 17 -69 17 l-27 1 25 14 c26 15 150 21 150 8z m-450
-122 c-27 -28 -46 -41 -48 -33 -5 17 25 92 45 115 15 16 17 16 32 -10 16 -26
16 -27 -29 -72z m365 31 c75 -33 116 -65 149 -116 100 -157 59 -346 -96 -447
-100 -64 -235 -64 -331 1 -126 85 -177 238 -127 374 24 62 73 134 98 143 9 3
24 12 33 19 50 43 200 57 274 26z m162 -3 c91 -34 100 -46 56 -74 -20 -14 -28
-15 -31 -6 -8 23 -64 81 -78 81 -8 0 -14 5 -14 10 0 13 0 13 67 -11z m-628
-118 c24 -18 24 -19 7 -66 -9 -27 -16 -58 -16 -69 -1 -19 -2 -19 -15 4 -15 26
-21 150 -7 150 4 0 18 -9 31 -19z m721 -64 c0 -48 -10 -43 -20 12 -5 31 -4 38
7 34 8 -3 13 -21 13 -46z m-722 -184 c27 -102 27 -102 -15 -55 -21 23 -44 56
-50 72 -11 29 -11 30 21 30 29 0 32 -3 44 -47z m752 -61 l0 -63 -30 18 c-18
10 -28 23 -26 33 2 8 10 39 17 68 12 50 14 51 26 30 7 -13 12 -51 13 -86z
m-652 -122 c36 -37 44 -50 30 -50 -25 0 -99 30 -121 49 -18 15 -18 16 3 33 12
10 26 18 31 18 5 0 31 -22 57 -50z m572 45 c0 -11 -42 -108 -57 -131 l-17 -26
-16 32 -17 32 46 48 c42 44 61 58 61 45z m-392 -147 c41 -8 50 -13 38 -20 -19
-11 -156 -24 -156 -15 0 3 5 18 12 32 9 20 17 25 32 20 12 -3 45 -11 74 -17z
m204 -16 c-23 -21 -56 -43 -72 -49 -30 -11 -30 -11 -30 22 0 32 3 35 38 40 20
4 46 10 57 15 44 19 48 7 7 -28z"/>
<path d="M1480 995 c0 -14 5 -25 10 -25 6 0 10 11 10 25 0 14 -4 25 -10 25 -5
0 -10 -11 -10 -25z"/>
<path d="M465 917 c-58 -28 -90 -60 -82 -82 8 -20 31 -19 48 2 37 44 129 63
213 44 61 -15 150 -113 125 -138 -5 -5 -9 -53 -7 -109 3 -91 5 -99 23 -99 21
0 44 49 65 144 11 46 11 56 -2 65 -8 6 -23 27 -33 46 -22 44 -81 107 -119 127
-16 8 -63 17 -105 20 -66 4 -83 1 -126 -20z"/>
<path d="M520 855 c-5 -14 -15 -25 -22 -25 -7 0 -29 -18 -49 -40 -58 -63 -62
-136 -13 -210 33 -50 77 -73 139 -73 99 0 169 72 169 175 1 48 -4 62 -30 95
-17 21 -42 43 -55 50 -13 7 -27 21 -31 32 -6 17 -16 21 -53 21 -39 0 -47 -3
-55 -25z m116 -75 c18 0 51 -46 59 -81 8 -35 -24 -107 -56 -127 -28 -18 -100
-18 -128 0 -12 7 -31 33 -43 56 -30 64 -15 109 52 152 28 18 50 36 50 41 0 4
12 -3 26 -16 15 -14 33 -25 40 -25z"/>
<path d="M1217 533 c-4 -3 -7 -42 -7 -85 l0 -78 40 0 c22 0 40 5 40 10 0 6
-13 10 -30 10 -27 0 -30 3 -30 30 0 23 4 30 20 30 11 0 20 5 20 10 0 6 -9 10
-20 10 -15 0 -20 7 -20 25 0 21 5 25 31 25 17 0 28 4 24 10 -7 11 -58 14 -68
3z"/>
<path d="M1323 533 c-16 -6 -18 -163 -3 -163 6 0 10 18 10 40 0 22 4 40 10 40
5 0 15 -18 21 -40 7 -22 16 -40 21 -40 11 0 10 13 -2 46 -8 19 -8 30 0 38 14
14 13 59 -2 74 -12 12 -33 14 -55 5z m45 -41 c3 -17 -2 -22 -17 -22 -16 0 -21
6 -21 26 0 33 33 30 38 -4z"/>
<path d="M1415 530 c-4 -6 7 -10 24 -10 17 0 31 -2 31 -5 0 -3 -16 -37 -35
-75 l-35 -70 45 0 c25 0 45 5 45 10 0 6 -14 10 -30 10 l-30 0 30 60 c39 78 39
90 -4 90 -19 0 -38 -4 -41 -10z"/>
<path d="M1817 533 c-4 -3 -7 -42 -7 -85 l0 -78 40 0 c22 0 40 5 40 10 0 6
-13 10 -30 10 -27 0 -30 3 -30 30 0 23 4 30 20 30 11 0 20 5 20 10 0 6 -9 10
-20 10 -15 0 -20 7 -20 25 0 21 5 25 31 25 17 0 28 4 24 10 -7 11 -58 14 -68
3z"/>
<path d="M1124 450 c11 -44 25 -79 31 -77 10 4 43 106 44 140 1 9 -3 17 -8 17
-4 0 -14 -28 -21 -62 l-14 -62 -15 59 c-9 32 -21 60 -27 62 -6 2 -2 -28 10
-77z"/>
<path d="M1524 450 c-11 -44 -17 -80 -12 -80 5 0 13 12 18 26 12 31 44 29 48
-4 4 -26 22 -30 21 -4 -1 33 -34 135 -44 139 -6 2 -19 -33 -31 -77z m38 15 c3
-16 1 -25 -7 -25 -8 0 -10 9 -7 25 2 14 6 25 7 25 1 0 5 -11 7 -25z"/>
<path d="M1610 450 c0 -47 4 -80 10 -80 6 0 10 18 10 40 0 36 3 40 25 40 23 0
25 -4 25 -40 0 -22 5 -40 10 -40 6 0 10 33 10 80 0 47 -4 80 -10 80 -5 0 -10
-13 -10 -30 0 -25 -4 -30 -25 -30 -21 0 -25 5 -25 30 0 17 -4 30 -10 30 -6 0
-10 -33 -10 -80z"/>
<path d="M1710 450 c0 -47 4 -80 10 -80 6 0 10 26 11 58 l1 57 26 -57 c15 -32
30 -58 35 -58 4 0 7 36 7 80 0 47 -4 80 -10 80 -5 0 -10 -21 -10 -47 l-1 -48
-25 48 c-13 26 -29 47 -34 47 -6 0 -10 -34 -10 -80z"/>
<path d="M1910 450 c0 -89 17 -110 22 -27 l3 52 19 -52 c11 -29 24 -53 28 -53
4 0 8 36 8 80 0 47 -4 80 -10 80 -5 0 -10 -19 -11 -42 l0 -43 -19 43 c-29 64
-40 53 -40 -38z"/>
<path d="M1373 293 c-16 -6 -18 -163 -3 -163 6 0 10 15 10 34 0 30 3 35 28 38
23 2 28 8 30 36 5 50 -22 73 -65 55z m45 -46 c3 -22 -1 -27 -17 -27 -17 0 -21
6 -21 31 0 24 4 30 18 27 10 -2 18 -14 20 -31z"/>
<path d="M1573 273 c-20 -30 -22 -88 -4 -121 14 -26 56 -30 65 -6 8 22 7 117
-2 130 -17 25 -42 23 -59 -3z m47 -64 c0 -51 -3 -60 -17 -57 -37 7 -36 118 2
118 12 0 15 -13 15 -61z"/>
<path d="M1673 273 c-31 -48 -14 -143 26 -143 35 0 53 82 30 134 -17 36 -36
39 -56 9z m41 -19 c9 -23 7 -77 -3 -93 -12 -19 -27 -7 -34 29 -11 51 21 106
37 64z"/>
<path d="M1482 245 c-27 -56 -27 -65 -2 -65 15 0 20 -7 20 -25 0 -14 5 -25 10
-25 6 0 10 11 10 25 0 16 6 25 15 25 8 0 15 5 15 10 0 6 -7 10 -15 10 -11 0
-15 12 -15 45 0 25 -4 45 -8 45 -4 0 -18 -20 -30 -45z m18 -30 c0 -8 -4 -15
-10 -15 -5 0 -7 7 -4 15 4 8 8 15 10 15 2 0 4 -7 4 -15z"/>
</g>
</svg>
