<?xml version="1.0" encoding="UTF-8" standalone="no"?><svg xmlns="http://www.w3.org/2000/svg" width="699" height="739"><path d="M0 630V521h71V218H0V0h112v73h71v75h70v69h181l.147 4.75c.081 2.612.511-.425.956-6.75.693-9.85.456-13.898-1.647-28.218-1.35-9.195-2.456-17.633-2.456-18.75 0-1.986.542-2.032 24-2.032 22.19 0 24 .132 24 1.75 0 .963-1.119 9.175-2.486 18.25l-2.486 16.5 2.236 38 2.236 38 .6-48c.635-50.776.683-51.323 5.975-69 1.153-3.85 3.863-10.55 6.022-14.89 10.138-20.369 24.181-33.738 42.135-40.112l7.68-2.726.577-4.636c3.154-25.34 10.29-44.193 22.56-59.602 13.434-16.872 30.726-25.757 50.451-25.922 22.369-.187 36.026 7.226 44.007 23.888 7.532 15.727 5.993 32.853-3.685 40.996-3.444 2.898-9.544 6.16-10.163 5.433-.602-.706-6.659-17.03-6.659-17.947 0-.466.872-1.124 1.938-1.462 3.268-1.038 4.294-6.207 2.557-12.878-1.926-7.393-2.649-8.692-6.93-12.45-8.823-7.747-27.052-7.937-40.89-.426-11.3 6.133-22.791 21.404-28.093 37.333-2.454 7.37-6.132 25.685-5.32 26.495.22.221 3.925 1.303 8.233 2.405 9.373 2.397 15.717 6.264 22.562 13.753 10.238 11.203 15.973 25.45 16.094 39.983.062 7.425-.283 9.09-3.034 14.68-4.688 9.523-13.855 14.617-23.48 13.048-11.264-1.835-25.177-13.943-32.082-27.918-3.746-7.58-7.517-22.533-7.542-29.903-.013-3.705-.123-3.832-2.763-3.182-7.376 1.815-17 9.528-23.827 19.096-10.751 15.066-15.352 30.927-16.156 55.694l-.544 16.75H699v305H479v-64h-45v64H253v67.974l-34.75.263-34.75.263-.262 37.237-.262 37.237-35.238.263-35.238.263-.262 36.75-.263 36.75H0V630zm413.754-260.75L413.5 236.5h-322l-.254 132.75L90.993 502h323.014l-.253-132.75zM679 369V236H499v266h180V369zm-200 2v-67h-45v134h45v-67zm107.743-205.25c4.564-5.773-.544-23.978-9.522-33.936-3.8-4.214-10.069-7.753-13.805-7.792-1.97-.02-2.04.304-1.28 5.867 1.313 9.596 2.754 14.96 5.448 20.276 3.126 6.169 9.894 13.68 13.916 15.442 3.78 1.656 4.041 1.663 5.243.143zM431 73.5V0h48v147h-48V73.5z"/></svg>