<?xml version="1.0" encoding="UTF-8" standalone="no"?><svg xmlns="http://www.w3.org/2000/svg" width="734.408" height="737"><path d="M422.833 733.51c-20.52-7.451-35.804-17.083-50.675-31.934-17.128-17.106-27.871-35.238-34.687-58.543-2.898-9.91-3.134-32.932-.442-43.033 7.99-29.981 25.33-56.142 64.626-97.5 8.361-8.8 18.369-20.41 22.24-25.8 18.41-25.637 30.087-59.72 31.504-91.95.313-7.112.986-12.75 1.523-12.75 1.568 0 21.447 12.26 33.272 20.522 26.788 18.715 58.148 47.573 75.501 69.478 33.853 42.732 50.977 86.72 50.977 130.949 0 24.152-3.802 40.947-13.593 60.05-11.295 22.036-28.04 39.895-52.511 56.002C543.073 713.934 522.83 725 521.301 725c-.299 0 1.46-4.163 3.909-9.25 16.177-33.615 13.231-83.6-7.504-127.32-6.295-13.274-19.158-33.43-21.333-33.43-.263 0-.793 1.687-1.177 3.75-1.066 5.722-6.906 20.225-12.499 31.04-5.69 11.005-10.298 17.308-24.431 33.418-17.653 20.122-27.591 37.694-31.265 55.275-2.168 10.379-1.892 29.212.567 38.708 2.04 7.874 3.896 12.209 7.307 17.059l1.933 2.75-2.318-.05c-1.275-.028-6.52-1.576-11.657-3.44zM35.568 303.993L0 160.988l3.586-.93c5.342-1.386 75.808-19.22 132.086-33.43 27.225-6.875 72.836-18.405 101.357-25.623 28.522-7.218 52.004-12.978 52.182-12.8.179.18 2.62 9.543 5.425 20.81 2.805 11.266 5.284 21.015 5.51 21.663.28.81 26.286-5.348 83.05-19.667 45.454-11.464 82.885-21.087 83.181-21.383.297-.297-1.862-10.213-4.798-22.036-2.935-11.823-5.127-21.667-4.872-21.875.256-.207 42.01-10.844 92.787-23.637C640.134-.756 641.855-1.146 643.962.66c1.18 1.012 11.498 10.343 22.928 20.736 16.94 15.402 20.96 19.562 21.736 22.5.524 1.982 11.04 43.975 23.367 93.317l22.415 89.714-10.218 28.74c-5.62 15.808-10.849 29.093-11.619 29.522-3.047 1.699-184.36 46.681-184.866 45.864-.297-.481-2.714-9.643-5.37-20.359l-4.83-19.483-13.166 3.413c-7.242 1.878-44.667 11.347-83.167 21.044-38.5 9.696-70.086 17.686-70.191 17.755-.105.069 2.054 9.07 4.798 20.003s4.63 20.205 4.19 20.604c-.744.68-286.011 72.97-287.944 72.97-.488 0-16.893-64.353-36.456-143.006zm141.604 90.94c46.2-11.649 99.525-25.1 118.5-29.892 18.975-4.793 34.5-9.125 34.499-9.628-.001-.647-58.399-235.339-59.001-237.116-.038-.111-54.278 13.497-120.533 30.24-66.256 16.744-120.522 30.448-120.592 30.453-.17.012 58.559 235.158 59.15 236.828.257.725 1.257 1.088 2.222.806.965-.282 39.555-10.044 85.755-21.692zM427.559 288.42c44.887-11.318 82.013-20.966 82.502-21.438.828-.801-35.885-150.639-37.278-152.142-.528-.57-164.695 40.41-165.631 41.347-.496.495 37.662 152.813 38.282 152.813.282 0 37.238-9.261 82.125-20.58zm194.567-5.81c36.275-9.177 66.103-16.834 66.285-17.016.373-.373-58.633-236.822-59.255-237.443-.507-.508-140.736 34.841-141.693 35.717-.39.357 12.637 54.022 28.95 119.254l29.657 118.605 5.051-1.216c2.778-.669 34.73-8.724 71.005-17.9zm64.844-142.478C668.124 64.715 665.267 54.202 663.02 52c-2.258-2.211-2.488-2.269-1.989-.5.31 1.1 10.564 42.042 22.786 90.982 19.912 79.736 22.342 88.687 23.386 86.133 1.028-2.515-1.351-12.92-20.233-88.483z"/></svg>