<?xml version="1.0" encoding="UTF-8" standalone="no"?>
<svg
   xmlns:dc="http://purl.org/dc/elements/1.1/"
   xmlns:cc="http://creativecommons.org/ns#"
   xmlns:rdf="http://www.w3.org/1999/02/22-rdf-syntax-ns#"
   xmlns:svg="http://www.w3.org/2000/svg"
   xmlns="http://www.w3.org/2000/svg"
   xmlns:sodipodi="http://sodipodi.sourceforge.net/DTD/sodipodi-0.dtd"
   xmlns:inkscape="http://www.inkscape.org/namespaces/inkscape"
   viewBox="0 0 723 670"
   height="670"
   width="723"
   version="1.1"
   id="svg2"
   inkscape:version="0.91 r13725"
   sodipodi:docname="keyboard-typing.svg">
  <sodipodi:namedview
     pagecolor="#ffffff"
     bordercolor="#666666"
     borderopacity="1"
     objecttolerance="10"
     gridtolerance="10"
     guidetolerance="10"
     inkscape:pageopacity="0"
     inkscape:pageshadow="2"
     inkscape:window-width="1920"
     inkscape:window-height="1054"
     id="namedview6"
     showgrid="false"
     inkscape:zoom="0.98913506"
     inkscape:cx="323.187"
     inkscape:cy="325.79479"
     inkscape:window-x="0"
     inkscape:window-y="0"
     inkscape:window-maximized="1"
     inkscape:current-layer="svg2"
     fit-margin-top="0"
     fit-margin-left="0"
     fit-margin-right="0"
     fit-margin-bottom="0" />
  <metadata
     id="metadata8">
    <rdf:RDF>
      <cc:Work
         rdf:about="">
        <dc:format>image/svg+xml</dc:format>
        <dc:type
           rdf:resource="http://purl.org/dc/dcmitype/StillImage" />
        <dc:title></dc:title>
      </cc:Work>
    </rdf:RDF>
  </metadata>
  <defs
     id="defs6" />
  <path
     style="fill:#000000"
     d="m 460.07549,660.74999 c 0.0415,-5.0875 0.41129,-22.3 0.8217,-38.25 0.67012,-26.04289 0.95337,-29.45886 2.77785,-33.5 2.67032,-5.91466 11.8718,-14.45527 19.07232,-17.70252 3.16395,-1.42686 5.91699,-2.72936 6.11785,-2.89443 0.42823,-0.35193 -0.40699,-1.35269 -21.278,-25.49563 -8.75204,-10.12408 -19.46404,-23.13242 -23.80446,-28.90742 -8.51412,-11.32821 -16.74766,-26.88188 -19.32174,-36.5 -1.90329,-7.11169 -3.32817,-50.52166 -3.40942,-103.87033 l -0.0516,-33.87033 18.75,0.52006 c 12.76175,0.35397 20.50655,1.02735 24.25,2.10846 6.9563,2.00898 7.63564,1.99792 8.46819,-0.13786 0.37519,-0.9625 1.02034,-21.3392 1.43367,-45.28156 l 0.75151,-43.53156 2.58372,-5.64358 c 3.76558,-8.2251 9.46348,-13.88846 17.99709,-17.88797 6.8854,-3.22704 7.84175,-3.40533 18.26582,-3.40533 9.89469,0 11.58641,0.27472 16.83589,2.734 8.56465,4.01237 13.05037,8.00526 18.05438,16.07083 l 4.46401,7.19517 0.69595,36 c 0.38278,19.8 0.99142,37.8 1.35255,40 l 0.65659,4 8.21054,-0.35208 c 9.62374,-0.41269 16.47724,1.00039 24.62445,5.07715 l 5.89436,2.94947 8.60564,-3.33727 c 7.56249,-2.93274 9.69659,-3.32908 17.60564,-3.2697 10.87373,0.0816 17.98743,2.51448 25.59983,8.75506 2.8026,2.29755 6.1372,5.02327 7.4102,6.05715 2.129,1.72902 2.8523,1.77832 9.019,0.61475 19.1444,-3.61229 34.8722,3.48704 45.1939,20.39991 l 3.5974,5.89443 -0.6785,41.60557 c -1.1628,71.31544 -4.049,91.54367 -18.8934,132.4194 l -6.4374,17.72612 2.5945,0.5803 c 11.8531,2.65116 17.3772,5.21589 24.2051,11.23791 9.3434,8.24063 10.8894,16.88182 10.8894,60.8656 l 0,30.27623 -12.933,0 -12.9329,0 -0.3171,-36.44572 -0.317,-36.44573 -3.4462,-3.55427 -3.4462,-3.55428 -98.11671,0 -98.11674,0 -2.93709,3.06458 -2.93709,3.06458 -0.28519,36.93542 -0.28519,36.93542 -13.46481,0 -13.46481,0 0.0755,-9.25 z m 199.39164,-101.75 c 1.234,-4.125 4.7606,-14.57559 7.8368,-23.22354 6.4062,-18.00932 10.9695,-35.63343 13.1483,-50.78092 3.8698,-26.903 4.6917,-100.9287 1.213,-109.25423 -1.7899,-4.28399 -4.6365,-5.74131 -11.2146,-5.74131 -3.4687,0 -5.1214,0.62718 -7.6849,2.91636 -3.2217,2.87707 -3.2704,3.05221 -3.6094,13 l -0.3437,10.08364 -12.7745,0 -12.7744,0 -0.4816,-15.75 c -0.6525,-21.34151 -2.9317,-26.25 -12.18891,-26.25 -4.3524,0 -12.10488,3.28501 -12.95001,5.4874 -0.29453,0.76753 -0.85219,9.29685 -1.23925,18.95405 l -0.70374,17.55855 -12.85011,0 -12.85011,0 0,-17.11765 0,-17.11764 -3.88235,-3.88236 c -3.52374,-3.52373 -4.36727,-3.88235 -9.13197,-3.88235 -5.7503,0 -11.10483,2.5666 -13.22541,6.33938 -0.76965,1.36929 -1.35132,8.29534 -1.58818,18.91062 l -0.37375,16.75 -12.89917,0 -12.89917,0 0,-70.39641 0,-70.39641 -3.51834,-3.08914 c -5.93603,-5.2119 -12.75928,-5.43187 -19.07462,-0.61493 L 500,254.10177 l 0,87.44911 0,87.44911 -12.86089,0 -12.86089,0 -0.72422,-24.75 c -0.80924,-27.65517 -1.11177,-29.00369 -7.78882,-34.719 -4.88605,-4.18228 -9.83057,-6.59596 -14.90689,-7.27683 L 447,361.73665 l 0.0158,42.88167 c 0.0211,57.27421 0.99573,68.54526 7.11012,82.228 3.91714,8.76576 9.83307,16.77954 27.5168,37.27458 20.17425,23.38148 30.02863,36.10639 30.84705,39.83264 l 0.67199,3.05956 72.0308,-0.25656 72.03077,-0.25655 2.2437,-7.5 z M 0,232.99999 0,0 l 355.5,0 355.50003,0 0,170.1743 0,170.17432 -2.25,-2.0687 c -3.4109,-3.13605 -19.6885,-10.93884 -24.5,-11.74428 l -4.25,-0.71145 0,-143.27253 c 0,-78.79989 -0.2863,-145.361012 -0.6362,-147.913614 L 678.72773,29.99695 355.11387,30.248474 31.5,30.499999 31.24757,232.74999 l -0.25243,202.25 187.00243,0 187.00243,0 0,15.5 0,15.5 -202.5,0 -202.5,0 0,-233 z m 53.23687,150.75 0.26313,-34.25 39.25,-0.26161 39.25,-0.2616 0,34.5116 0,34.51161 -39.51313,0 -39.51313,0 0.26313,-34.25 z m 104.76313,-0.25 0,-34.5 123,0 123,0 0,34.5 0,34.5 -123,0 -123,0 0,-34.5 z m 421,-158 0,-79.5 39,0 39.00003,0 0,79.5 0,79.5 -39.00003,0 -39,0 0,-79.5 z m -526,41 0,-34.5 39.5,0 39.5,0 0,34.5 0,34.5 -39.5,0 -39.5,0 0,-34.5 z m 105,0 0,-34.5 39.5,0 39.5,0 0,34.5 0,34.5 -39.5,0 -39.5,0 0,-34.5 z m 105,0 0,-34.5 39.5,0 39.5,0 0,34.5 0,34.5 -39.5,0 -39.5,0 0,-34.5 z m 105.45464,33.24239 c -0.26542,-0.69168 -0.3638,-16.10418 -0.21861,-34.25 l 0.26397,-32.99239 39.25,-0.26161 39.25,-0.2616 0,34.5116 0,34.51161 -39.03138,0 c -30.42858,0 -39.13776,-0.27719 -39.51398,-1.25761 z M 53,179.48838 l 0,-34.5116 39.25,0.2616 39.25,0.26161 0.26313,34.25 0.26313,34.25 -39.51313,0 -39.51313,0 0,-34.51161 z m 105,0.51161 0,-34 39.5,0 39.5,0 0,34 0,34 -39.5,0 -39.5,0 0,-34 z m 105,0 0,-34 39.5,0 39.5,0 0,34 0,34 -39.5,0 -39.5,0 0,-34 z m 106,0 0,-34 39,0 39,0 0,34 0,34 -39,0 -39,0 0,-34 z m 105,0 0,-34 39,0 39,0 0,34 0,34 -39,0 -39,0 0,-34 z M 53,89.000006 l 0,-34.00001 39.5,0 39.5,0 0,34.00001 0,33.999984 -39.5,0 -39.5,0 0,-33.999984 z m 105,0 0,-34.00001 39.5,0 39.5,0 0,34.00001 0,33.999984 -39.5,0 -39.5,0 0,-33.999984 z m 105,0 0,-34.00001 39.5,0 39.5,0 0,34.00001 0,33.999984 -39.5,0 -39.5,0 0,-33.999984 z m 105,0 0,-34.00001 39.5,0 39.5,0 0,34.00001 0,33.999984 -39.5,0 -39.5,0 0,-33.999984 z m 106,0 0,-34.00001 39,0 39,0 0,34.00001 0,33.999984 -39,0 -39,0 0,-33.999984 z m 105,0 0,-34.00001 39,0 39.00003,0 0,34.00001 0,33.999984 -39.00003,0 -39,0 0,-33.999984 z"
     id="path3338"
     inkscape:connector-curvature="0" />
</svg>
