<?xml version="1.0" encoding="UTF-8" standalone="no"?><svg xmlns="http://www.w3.org/2000/svg" width="739" height="739"><path d="M0 630V521h72V218H0V0h113v74h71v75h69v68h39v35.99l99.75.255 99.75.255v232l-99.75.255-99.75.255V522h-39v68h-69v75h-71v74H0V630zm272-260.5V237H92v265h180V369.5zm75.45 95.617c-.522-.486-4.482-3.395-8.8-6.464l-7.849-5.582-5.731 4.042c-3.153 2.223-7.046 5.116-8.651 6.429l-2.919 2.386 17.45.036c10.14.021 17.052-.334 16.5-.847zm98.744-.384c-.579-.697-4.408-3.61-8.51-6.474l-7.458-5.207-7.863 5.591c-4.325 3.075-8.29 5.988-8.813 6.474-.552.513 6.304.883 16.372.883 13.867 0 17.113-.253 16.272-1.267zm-48.41-12.983l15.284-10.909-2.284-1.746C404.007 433.913 381.162 418 380.5 418c-.662 0-23.513 15.918-30.291 21.1l-2.291 1.753 16.167 11.554c8.892 6.356 16.673 11.262 17.29 10.903.62-.358 8.003-5.56 16.41-11.56zm73.81-27.49c-.53-.528-23.616 15.81-23.55 16.667.024.315 5.312 4.284 11.75 8.82l11.706 8.248.275-16.64c.151-9.151.07-16.844-.181-17.094zm-161.856 19.391c1.78-1.183 3.243-2.398 3.25-2.7.014-.628-19.542-14.951-20.414-14.951-.316 0-.574 6.78-.574 15.068v15.068l7.25-5.166c3.987-2.842 8.707-6.135 10.488-7.319zm37.264-26.709c8.524-6.081 15.59-11.369 15.701-11.75.27-.921-30.72-22.72-32.122-22.594-1.74.157-31.081 21.439-31.081 22.545 0 1.08 29.35 22.643 31.002 22.776.552.045 7.977-4.895 16.5-10.977zm99.61-.087c8.502-6.13 15.33-11.494 15.173-11.92-.245-.668-23.118-17.463-29.5-21.661-2.096-1.38-3.04-.863-17.752 9.734-8.546 6.155-15.715 11.484-15.93 11.842-.425.704 30.32 23.15 31.709 23.15.464 0 7.8-5.015 16.3-11.145zm-45.348-38.837c6.47-4.615 11.42-8.703 11-9.084-.662-.6-20.022-14.471-28.788-20.625l-3.024-2.124-15.81 11.291c-8.694 6.21-15.809 11.62-15.809 12.024 0 .403 7.122 5.82 15.826 12.036l15.827 11.303 4.507-3.216 16.27-11.605zM472 368.88v-17.118l-3.25 2.423c-1.788 1.333-7.188 5.242-12 8.687-4.813 3.445-8.75 6.432-8.75 6.638 0 .603 22.377 16.489 23.227 16.489.425 0 .773-7.703.773-17.119zm-159 .619c0-.202-4.725-3.77-10.5-7.93l-10.5-7.563v30.986l10.5-7.563c5.775-4.16 10.5-7.728 10.5-7.93zm34.358-24c8.552-6.05 15.457-11.31 15.345-11.687-.232-.787-29.397-21.758-31.245-22.467-1.405-.54-32.684 21.504-32.248 22.726.413 1.158 31.151 22.98 31.944 22.679.36-.138 7.653-5.201 16.204-11.251zm98.713.428c8.486-6.09 15.557-11.425 15.714-11.855.157-.43-6.743-5.85-15.333-12.044-12.24-8.825-16.006-11.073-17.412-10.395-.987.476-8.348 5.591-16.358 11.366-11.288 8.138-14.296 10.77-13.373 11.697 1.638 1.646 30.053 22.209 30.762 22.261.314.023 7.514-4.94 16-11.03zm-51.184-34.602c7.487-5.321 14.64-10.46 15.897-11.421l2.284-1.746-15.69-11.246c-8.63-6.186-16.225-11.246-16.878-11.246-.653 0-8.265 5.072-16.915 11.272-14.207 10.183-15.552 11.399-13.906 12.578l15.821 11.36c7.7 5.531 14.399 10.071 14.887 10.09.487.018 7.012-4.32 14.5-9.641zM472 297.95c0-13.888-.246-16.901-1.325-16.25-5.29 3.194-22.552 15.943-22.384 16.533.254.89 21.9 16.656 22.959 16.72.412.026.75-7.625.75-17.003zm-168.926 7.848c5.46-3.96 9.92-7.448 9.914-7.75-.007-.301-1.47-1.516-3.25-2.7-1.781-1.183-6.5-4.476-10.488-7.318l-7.25-5.166v15.068c0 8.287.258 15.068.574 15.068.316 0 5.041-3.24 10.5-7.202zm37.288-26.72l7.861-5.578-8.611-.289c-4.737-.159-12.55-.159-17.362 0l-8.75.289 8.5 6.151c4.675 3.383 8.95 5.893 9.5 5.578.55-.315 4.538-3.083 8.862-6.15zm105.832-4.811c.841-1.014-2.405-1.267-16.272-1.267-10.068 0-16.924.37-16.372.883.522.486 4.488 3.399 8.813 6.474l7.863 5.591 7.458-5.207c4.102-2.864 7.931-5.777 8.51-6.474zm115.796 222.21c-29.42-38.237-53.49-69.914-53.49-70.394 0-1.456 49.769-39.217 50.571-38.37 3.139 3.31 106.873 138.942 106.679 139.481-.2.558-49.604 38.806-50.123 38.806-.081 0-24.217-31.285-53.637-69.522zm66.952 33.46l9.139-7.063-2.79-3.71c-9.496-12.627-10.742-14.041-11.73-13.314-.583.43-4.983 3.802-9.777 7.494l-8.716 6.712 6.54 8.472c3.596 4.66 6.912 8.472 7.367 8.472.456 0 4.941-3.178 9.967-7.063zM599.28 489.63c4.246-3.23 7.721-6.212 7.721-6.627 0-.416-4.745-6.894-10.544-14.395l-10.543-13.638-9.479 7.237c-5.213 3.98-9.275 7.765-9.028 8.41.248.647 5.015 7.075 10.594 14.286 8.961 11.584 10.342 12.965 11.85 11.855.939-.691 5.182-3.899 9.429-7.128zm-39.555-49.392c4.523-3.489 8.412-6.657 8.642-7.04.23-.383-2.61-4.594-6.31-9.356l-6.727-8.659-9.674 7.477c-8.517 6.582-9.523 7.68-8.414 9.18 8.562 11.584 12.3 15.946 13.192 15.397.587-.36 4.768-3.51 9.29-6.999zM668 480.151v-7.848l14.03-10.72 14.03-10.72-6.354-8.181c-3.495-4.5-16.108-20.863-28.03-36.362L640 378.14v-16.647l28-36.35c15.4-19.993 28-36.509 28-36.702 0-.192-6.3-5.164-14-11.047l-14-10.697V251h71v237h-71v-7.849zm-41-33.702c-9.075-11.842-16.624-21.883-16.775-22.314-.441-1.26 24.94-20.37 25.846-19.46.453.453 8.249 10.452 17.325 22.217l16.502 21.393-12.699 9.833c-6.984 5.408-12.924 9.839-13.199 9.847-.275.008-7.925-9.675-17-21.516zm-93.588-113.516C519.71 322.403 508.5 313.4 508.5 312.926c0-.476 23.625-31.565 52.5-69.087 28.875-37.523 52.968-68.845 53.54-69.605.83-1.1 6.107 2.502 26 17.748 13.728 10.521 25.071 19.442 25.207 19.824.192.54-103.542 136.175-106.676 139.482-.41.433-11.957-7.827-25.659-18.355zm34.954-27.13c-.568-.947-17.209-13.76-18.262-14.062-.462-.133-3.435 3.134-6.606 7.259-3.172 4.125-6.176 8.02-6.677 8.656-.626.795 2.117 3.494 8.8 8.659l9.708 7.503 6.728-8.659c3.7-4.762 6.54-8.973 6.31-9.356zm28.102-35.426c5.793-7.492 10.532-13.963 10.532-14.379 0-.616-7.804-6.875-17.15-13.755-1.509-1.11-2.897.281-11.923 11.949-5.618 7.263-10.263 13.76-10.321 14.438-.078.9 16.575 14.989 18.112 15.323.12.026 4.958-6.083 10.75-13.576zm34.54-44.877c2.95-3.85 5.758-7.528 6.237-8.173.595-.8-2.044-3.427-8.285-8.25-5.036-3.892-9.53-7.077-9.985-7.077-.455 0-3.777 3.82-7.381 8.49l-6.553 8.489 9.706 7.484c5.338 4.116 9.973 7.158 10.3 6.76.327-.397 3.009-3.873 5.96-7.723zm-8.508 99.942c-6.6-5.169-12-9.834-12-10.368 0-1.073 32.701-44.061 33.5-44.039.275.008 6.202 4.43 13.171 9.826l12.671 9.811-17.03 22.164c-9.366 12.19-17.318 22.128-17.67 22.084-.353-.044-6.042-4.309-12.642-9.478z"/></svg>