<?xml version="1.0" encoding="UTF-8" standalone="no"?><svg xmlns="http://www.w3.org/2000/svg" width="739" height="739"><path d="M0 590V441h547v20H29v258h681V461h-87v-20h116v298H0V590zm534.215 124.286l-4.243-2.505 1.894-3.14c5.33-8.844 32.134-55.639 32.134-56.103 0-.826-3.902-4.54-4.75-4.521-.412.009-9.975 5.367-21.25 11.906l-20.5 11.89-2.245-3.657c-1.234-2.01-2.098-4.102-1.92-4.647.272-.826 37.283-22.804 40.064-23.79.494-.175.586-1.983.205-4.019l-.695-3.7H484v-10h68.767l.603-2.25c.331-1.238.609-2.758.616-3.378.008-.621-9.211-6.44-20.486-12.933-11.275-6.492-20.5-12.146-20.5-12.564 0-.935 4.046-7.875 4.59-7.875.217 0 9.71 5.395 21.099 11.99l20.704 11.99 2.304-2.165c1.267-1.19 2.3-2.423 2.295-2.74-.004-.316-7.644-13.82-16.977-30.008l-16.968-29.434 4.12-2.34c2.266-1.287 4.375-2.084 4.688-1.771.313.313 8.043 13.486 17.178 29.273 15.048 26.007 16.837 28.68 19.038 28.443 5.2-.56 5.086-.138 4.724-17.482l-.34-16.256-6.227-10.484L567 541.532V199h36v341.068l-6.5 11.32-6.5 11.321v33.041l3.16.632c1.738.348 3.246.516 3.352.375.106-.141 7.716-13.3 16.91-29.243 9.195-15.943 16.87-29.139 17.055-29.324.326-.326 4.633 1.8 7.345 3.627 1.013.682-2.697 7.855-15.857 30.657l-17.18 29.766 2.437 2.436 2.437 2.437 18.42-10.66c26.153-15.134 23.386-14.055 25.847-10.072 1.14 1.845 2.074 3.826 2.074 4.402 0 .575-8.662 6.041-19.25 12.146-10.588 6.104-19.86 11.486-20.607 11.96-.937.595-1.145 1.828-.67 3.986l.686 3.125H685v10h-68.75l-.65 3.246c-.796 3.985-2.148 2.95 22.04 16.878l19.138 11.02-2.436 4.36-2.436 4.358-18.203-10.528a7625.263 7625.263 0 0 1-20.96-12.15c-2.648-1.56-2.858-1.524-5.272.89l-2.514 2.514 17.002 29.456c18.573 32.179 17.81 29.87 11.041 33.42-2.496 1.31-2.517 1.281-14-18.705-6.325-11.01-14.085-24.436-17.244-29.838l-5.743-9.821-2.989 1.041-2.989 1.042-.267 24.159-.268 24.158-4.75.305-4.75.305v-48.774l-3.472-1.066-3.473-1.066-16.205 28.148c-8.913 15.481-16.698 28.889-17.299 29.794-.993 1.495-1.482 1.416-5.336-.86zM86.132 687.988c-10.854-2.296-20.323-9.819-24.914-19.792-4.834-10.498-4.196-29.63 1.522-45.696 13.092-36.783 46.148-73.936 88.376-99.33 23.018-13.842 57.73-27.041 75.594-28.744 6.931-.661 10.526 1.157 15.288 7.73 5.805 8.014 4.795 11.844-3.124 11.844-9.728 0-25.55 4.795-41.374 12.54-33.012 16.155-65.73 45.879-88.12 80.053-11.166 17.045-15.362 27.677-15.353 38.907.01 12.703 5.665 18.521 17.957 18.476 11.72-.042 23.233-6.397 38.879-21.462 23.818-22.932 45.64-56.764 65.58-101.672 2.602-5.861 5.854-11.711 7.226-13 5.975-5.611 27.331-.776 27.331 6.188 0 .946-3.861 9.764-8.581 19.595C217.85 604.801 201 647.956 201 659.695c0 5.939 1.146 7.743 6.22 9.793 8.205 3.315 24.94 2.08 35.935-2.65l4.845-2.084.008-8.627c.017-19.096 11.182-58.945 29.174-104.127 16.825-42.25 24.971-53.174 39.82-53.393 6.228-.092 10.975 2.126 14.393 6.723 1.793 2.412 2.097 4.189 2.05 12-.046 7.5-.528 10.314-2.646 15.449-4.018 9.74-8.597 16.624-17.384 26.13l-8.084 8.745-6.058 16.428c-15.175 41.153-22.518 71.085-19.328 78.786 1.509 3.642 5.815 5.562 10.932 4.875 15.995-2.145 32.27-25.197 34.728-49.189l.671-6.554-2.888-.022c-4.08-.031-10.665-3.244-13.166-6.423-4.454-5.663-3.74-17.36 1.4-22.903 4.113-4.435 8.28-6.085 15.378-6.085 7.475 0 10.873 1.478 16.339 7.105 5.785 5.956 7.963 12.85 8.004 25.328.064 19.43-6.127 37.814-17.635 52.363-2.353 2.975-2.822 4.24-2.04 5.5 3.927 6.327 27.265 5.803 40.419-.907l3.707-1.891-2.562-6.283c-3.416-8.378-4.266-24.18-1.817-33.795 3.701-14.532 11.927-27.078 24.256-36.996C409.52 575.851 422.808 571 439.478 571c10.361 0 17.4 1.72 22.534 5.509 11.464 8.458 10.475 25.535-1.712 29.557-5.209 1.72-8.3.552-8.3-3.135 0-5.178-2.538-8.73-7.12-9.963-8.631-2.324-18.415 1.3-26.89 9.962-18.414 18.818-18.669 49.97-.496 60.62 14.66 8.591 40.374 10.419 59.278 4.213l6.346-2.083 5.894 5.832c3.241 3.207 5.64 6.242 5.33 6.743-2.34 3.787-25.233 9.626-40.842 10.418-22.492 1.14-44.632-2.485-58.008-9.498l-7.008-3.675-7.492 3.764c-12.66 6.362-21.025 8.092-39.492 8.17-16.964.07-19.537-.505-25.144-5.625-2.13-1.946-2.17-1.945-6.452.24-16.778 8.56-36.713 8.897-49.422.838l-4.79-3.038-9.096 2.989c-13.426 4.41-22.135 5.485-39.763 4.906-18.76-.616-24.499-2.147-30.48-8.128-7.234-7.234-6.723-15.082 2.63-40.441 2.153-5.836 3.806-10.72 3.674-10.852-.133-.132-2.697 2.997-5.699 6.954-7.924 10.445-26.181 28.989-35.324 35.878-14.294 10.77-28.89 16.644-43.134 17.357-4.4.22-9.966-.015-12.368-.524zM541.5 177.204C501.76 155.27 470.982 102.442 461.565 40c-1.591-10.551-3.54-30.692-3.556-36.75L458 0h253.294l-.695 11.75c-4.354 73.68-34.7 136.194-79.358 163.48l-7.741 4.73-38.5.002-38.5.002-5-2.76z"/></svg>