<?xml version="1.0" encoding="UTF-8" standalone="no"?><svg xmlns="http://www.w3.org/2000/svg" width="739" height="739"><path d="M0 680.5V622h739v117H0v-58.5zm715 0V647H24v67h691v-33.5zm-529-90.725c-48.675-7.723-88.672-14.19-88.881-14.373-.582-.506 2.156-19.404 2.809-19.39 2.656.058 182.262 28.844 182.7 29.283.529.529-1.127 12.9-2.27 16.955-.322 1.144-1.422 1.718-3.175 1.658-1.476-.05-42.508-6.41-91.183-14.133zm274.098 5.151c-.706-4.99-1.03-9.328-.718-9.64 1.294-1.294 182.061-29.19 182.679-28.19.773 1.25 3.314 17.878 2.803 18.343-.52.473-178.953 28.565-181.42 28.563-1.833-.002-2.2-1-3.344-9.076zm-118.85-6.182l-9.253-8.183.253-200.53.252-200.531h74l.252 200.589.253 200.588-9.253 8.143-9.252 8.143-19-.017-19-.018-9.252-8.183zM173 512.381c-62.975-32.783-114.943-60.02-115.484-60.528-.634-.594.578-3.845 3.406-9.137 2.415-4.519 4.466-8.325 4.559-8.458.153-.219 230.597 119.565 231.333 120.246.403.373-6.223 13.436-7.982 15.739-1.223 1.6-10.696-3.132-115.832-57.862zm276.181 51.02c-2.355-4.748-4.147-8.763-3.981-8.92.165-.158 52.265-27.353 115.777-60.434 107.366-55.923 115.572-60.021 116.831-58.347 1.763 2.34 8.415 15.43 8.006 15.752-.723.568-229.445 119.477-230.832 120.005-1.125.429-2.629-1.66-5.8-8.055zM218.08 450.262L130.072 358.5l7.058-6.75c3.882-3.712 7.353-6.711 7.714-6.664.36.047 40.102 41.334 88.314 91.75l87.657 91.664-5.657 5.823c-3.112 3.202-6.426 6.245-7.364 6.761-1.417.78-16.647-14.638-89.714-90.822zm209.705 84.989l-6.662-6.75 78.049-81.5c42.926-44.825 82.496-86.148 87.933-91.83l9.886-10.33 7.004 6.226c3.853 3.424 7.005 6.617 7.005 7.096C611 359.193 436.11 542 435.123 542c-.372 0-3.674-3.038-7.338-6.75zM283 113V74h173v78H283v-39zm-34.072-89.558C242.918 11.036 238 .686 238 .442 238 .2 297.175 0 369.5 0S501 .2 501 .442c0 .244-4.918 10.594-10.928 23L479.143 46H259.857l-10.929-22.558z"/></svg>