<?xml version="1.0" encoding="UTF-8" standalone="no"?>
<svg
   xmlns:dc="http://purl.org/dc/elements/1.1/"
   xmlns:cc="http://creativecommons.org/ns#"
   xmlns:rdf="http://www.w3.org/1999/02/22-rdf-syntax-ns#"
   xmlns:svg="http://www.w3.org/2000/svg"
   xmlns="http://www.w3.org/2000/svg"
   id="svg4"
   version="1.1"
   height="737.75"
   width="738">
  <metadata
     id="metadata10">
    <rdf:RDF>
      <cc:Work
         rdf:about="">
        <dc:format>image/svg+xml</dc:format>
        <dc:type
           rdf:resource="http://purl.org/dc/dcmitype/StillImage" />
        <dc:title></dc:title>
      </cc:Work>
    </rdf:RDF>
  </metadata>
  <defs
     id="defs8" />
  <path
     id="path2"
     d="M 127.5,736.544 C 59.27,725.51 8.441,672.17 1.05,603.851 0.34,597.289 0,497.819 0,297.1 V 0.06 h 24.996 l 0.252,252.514 0.252,252.513 5.453,-7.15 c 13.782,-18.07 31.233,-32.316 52.547,-42.893 22.86,-11.345 40.264,-15.366 66.5,-15.366 23.555,0 42.66,4.158 63.642,13.853 19.1,8.824 42.423,27.806 55.207,44.929 L 274,505.36 270.22651,431.61835 237.24564,409.51377 238.004,266.56 238.002,133.31 238,0.061 h 24.992 l 0.254,123.303 0.254,123.303 59.75,-43.429 L 383,159.81 V 0.06 h 25 l 0.051,80.25 0.051,80.25 58.633,42.5 c 32.247,23.375 58.998,42.65 59.445,42.832 0.446,0.183 0.926,-54.942 1.066,-122.5 L 527.5,0.561 539.743,0.281 551.986,0 552.243,133.062 552.5,266.124 550.18644,409.51377 454.76569,481.55989 453,566.061 h 260 v -566 h 25 v 687 H 428 l 1.56303,-196.61007 -32.5535,20.2083 L 299.1,444.96598 298.736,530.311 c -0.354,77.174 -0.42,79.495 -2.539,88.6 -7.097,30.503 -19.898,53.897 -41.16,75.221 -21.35,21.412 -45.831,34.688 -75.624,41.012 -13.092,2.778 -39.061,3.479 -51.913,1.4 z" />
</svg>
