<?xml version="1.0" encoding="UTF-8" standalone="no"?><svg xmlns="http://www.w3.org/2000/svg" width="738" height="737.75"><path d="M127.5 736.544C59.27 725.51 8.441 672.17 1.05 603.851.34 597.289 0 497.819 0 297.1V.06h24.996l.252 252.514.252 252.513 5.453-7.15c13.782-18.07 31.233-32.316 52.547-42.893 22.86-11.345 40.264-15.366 66.5-15.366 23.555 0 42.66 4.158 63.642 13.853 19.1 8.824 42.423 27.806 55.207 44.929l5.151 6.9V377.42l-17.998-55.43-17.998-55.43-.002-133.25L238 .061h24.992l.254 123.303.254 123.303 59.75-43.429L383 159.81V.06h25l.051 80.25.051 80.25 58.633 42.5c32.247 23.375 58.998 42.65 59.445 42.832.446.183.926-54.942 1.066-122.5L527.5.561l12.243-.28L551.986 0l.257 133.062.257 133.062-29.143 89.719c-16.029 49.345-29.602 90.956-30.163 92.468l-1.02 2.75H453v115h260v-566h25v687H428v-236H299.1l-.364 79.25c-.354 77.174-.42 79.495-2.539 88.6-7.097 30.503-19.898 53.897-41.16 75.221-21.35 21.412-45.831 34.688-75.624 41.012-13.092 2.778-39.061 3.479-51.913 1.4z"/></svg>