<?xml version="1.0" encoding="UTF-8" standalone="no"?><svg xmlns="http://www.w3.org/2000/svg" width="739" height="738"><path d="M128 644.645V551.29l-7.04-.59c-12.675-1.063-34.903-13.144-43.24-23.503-10.127-12.582-7.853-5.055-44.166-146.197L0 250.585V108h129V54c0-29.7.143-54 .319-54 1.822 0 12.458 3.868 17.181 6.25 13.829 6.97 21.556 13.798 29.863 26.389 3.487 5.285 5.114 9.2 7.082 17.042 2.387 9.513 2.555 11.763 2.555 34.25V108h79V82.243c0-24.212.146-26.289 2.439-34.62 3.479-12.646 11.997-25.188 22.25-32.762 6.45-4.765 19.215-11.472 24.624-12.938 2.096-.569 4.459-1.282 5.25-1.585C320.802-.138 321 7.255 321 53.893V108h418v160H608l-.008 5.25c-.016 11.16-1.856 21.677-4.911 28.08-3.665 7.678-12.775 16.727-20.3 20.164-13.258 6.054-11.233 5.905-84.9 6.266l-67.62.33-6.023 23.705c-3.313 13.038-13.946 54.407-23.629 91.932-19.032 73.76-18.36 71.778-28.536 84.1-8.427 10.207-30.046 21.774-42.693 22.843l-7.38.623V738H128v-93.355zM287 624.5V542H164v165h123v-82.5zM321 389V268H129v242h192V389zM153.763 196.75l-.263-35.25-12.25-.28-12.25-.282V232h25.026l-.263-35.25zM205 206.5V181h-26v51h26v-25.5zm50 0V181h-25v51h25v-25.5zm51 0V181h-25v51h25v-25.5zm51 0V181h-25v51h25v-25.5zm51-10.03v-35.532l-12.25.281-12.25.281-.263 35.25-.263 35.25H408v-35.53zm51 10.03V181h-25v51h25v-25.5zm51 0V181h-25v51h25v-25.5zm51 0V181h-25v51h25v-25.5zm51 0V181h-25v51h25v-25.5zm51-10V161h-25v71h25v-35.5zm51 10V181h-25v51h25v-25.5z"/></svg>