<?xml version="1.0" encoding="UTF-8" standalone="no"?>
<svg
   xmlns:dc="http://purl.org/dc/elements/1.1/"
   xmlns:cc="http://creativecommons.org/ns#"
   xmlns:rdf="http://www.w3.org/1999/02/22-rdf-syntax-ns#"
   xmlns:svg="http://www.w3.org/2000/svg"
   xmlns="http://www.w3.org/2000/svg"
   xmlns:sodipodi="http://sodipodi.sourceforge.net/DTD/sodipodi-0.dtd"
   xmlns:inkscape="http://www.inkscape.org/namespaces/inkscape"
   width="740.014"
   height="739"
   version="1.1"
   id="svg4"
   sodipodi:docname="milling-5ax.svg"
   inkscape:version="0.92.3 (2405546, 2018-03-11)">
  <metadata
     id="metadata10">
    <rdf:RDF>
      <cc:Work
         rdf:about="">
        <dc:format>image/svg+xml</dc:format>
        <dc:type
           rdf:resource="http://purl.org/dc/dcmitype/StillImage" />
        <dc:title></dc:title>
      </cc:Work>
    </rdf:RDF>
  </metadata>
  <defs
     id="defs8" />
  <sodipodi:namedview
     pagecolor="#ffffff"
     bordercolor="#666666"
     borderopacity="1"
     objecttolerance="10"
     gridtolerance="10"
     guidetolerance="10"
     inkscape:pageopacity="0"
     inkscape:pageshadow="2"
     inkscape:window-width="1366"
     inkscape:window-height="714"
     id="namedview6"
     showgrid="false"
     inkscape:zoom="0.22581489"
     inkscape:cx="-222.45265"
     inkscape:cy="739.64955"
     inkscape:window-x="0"
     inkscape:window-y="0"
     inkscape:window-maximized="1"
     inkscape:current-layer="flowRoot851" />
  <g
     aria-label="5
AX"
     transform="translate(251.421,289.2198)"
     style="font-style:normal;font-weight:normal;font-size:40px;line-height:1.25;font-family:sans-serif;text-align:end;letter-spacing:0px;word-spacing:0px;text-anchor:end;fill:#000000;fill-opacity:1;stroke:none"
     id="flowRoot851">
    <path
       id="path884"
       style="font-style:normal;font-variant:normal;font-weight:bold;font-stretch:normal;font-size:192px;font-family:sans-serif;-inkscape-font-specification:'sans-serif Bold';text-align:end;text-anchor:end"
       d="m 367.91016,218.9043 48.5625,71.4375 h -37.59375 l -32.71875,-47.8125 -32.4375,47.8125 h -37.78125 l 48.5625,-71.4375 -46.6875,-68.53125 h 37.6875 l 30.65625,45.09375 30.5625,-45.09375 h 37.875 z m -141.5625,45.9375 h -56.4375 l -8.90625,25.5 h -36.28125 l 51.84375,-139.96875 h 43.03125 l 51.84375,139.96875 h -36.28125 z m -47.4375,-25.96875 h 38.34375 l -19.125,-55.6875 z m 52.90625,-468.5625 h 149.53125 v 44.21875 h -101.5625 v 36.09375 q 6.875,-1.875 13.75,-2.8125 7.03125,-1.09375 14.53125,-1.09375 42.65625,0 66.40625,21.40625 23.75,21.25 23.75,59.374997 0,37.8125 -25.9375,59.21875 -25.78125,21.4062499 -71.71875,21.4062499 -19.84375,0 -39.375,-3.90625 -19.375,-3.75000002 -38.59375,-11.5625 V -54.689453 q 19.0625,10.9375 36.09375,16.40625 17.1875,5.46875 32.34375,5.46875 21.875,0 34.375,-10.625 12.65625,-10.78125 12.65625,-29.0625 0,-18.4375 -12.65625,-29.062497 -12.5,-10.625 -34.375,-10.625 -12.96875,0 -27.65625,3.4375 -14.6875,3.28125 -31.5625,10.312497 z m -478.20546,-57.31615 v 174 h 40.53517 l 11.46484,23 11.46484,23 H 35.60315 l 11.50781,-23 11.50781,-23 h 39.99219 v -174 z m 86.00001,240 v 39 39 h 174 v -78 z m 39,102 v 49.56055 c 10e-6,35.41031 0.30995,49.36671 1.08594,48.88672 0.598,-0.37 22.085,-19.15229 47.75,-41.73829 l 46.66406,-41.0664 0.28906,-7.82227 0.29102,-7.82031 z m 95.20508,42.16797 c -0.435,0.183 -22.02075,19.00703 -47.96875,41.83203 l -47.17774,41.5 -0.0293,32.42383 -0.0293,32.42578 2.25,-2.01172 c 1.237,-1.107 22.837,-20.10484 48,-42.21484 l 45.75,-40.19922 v -32.04492 c 0,-17.624 -0.35792,-31.89494 -0.79492,-31.71094 z m -0.10742,91 c -0.497,0.183 -22.097,18.97853 -48,41.76953 l -47.09766,41.43945 v 7.81055 7.8125 h 96 v -49.58203 c 0,-29.094 -0.37234,-49.446 -0.90234,-49.25 z M -251.421,306.2802 v -143.5 l 88.97202,-1.1071 -4.23846,194.96634 657.8978,-1.52026 c 0,0 -2.78869,48.49435 -2.61736,94.66102 h -740.014 z" />
  </g>
</svg>
