<?xml version="1.0" encoding="UTF-8" standalone="no"?>
<svg
   xmlns:dc="http://purl.org/dc/elements/1.1/"
   xmlns:cc="http://creativecommons.org/ns#"
   xmlns:rdf="http://www.w3.org/1999/02/22-rdf-syntax-ns#"
   xmlns:svg="http://www.w3.org/2000/svg"
   xmlns="http://www.w3.org/2000/svg"
   id="svg4"
   version="1.1"
   height="739"
   width="740.014">
  <metadata
     id="metadata10">
    <rdf:RDF>
      <cc:Work
         rdf:about="">
        <dc:format>image/svg+xml</dc:format>
        <dc:type
           rdf:resource="http://purl.org/dc/dcmitype/StillImage" />
        <dc:title></dc:title>
      </cc:Work>
    </rdf:RDF>
  </metadata>
  <defs
     id="defs8" />
  <path
     d="m 619.33116,508.1241 48.5625,71.4375 h -37.59375 l -32.71875,-47.8125 -32.4375,47.8125 h -37.78125 l 48.5625,-71.4375 -46.6875,-68.53125 h 37.6875 l 30.65625,45.09375 30.5625,-45.09375 h 37.875 z m -141.5625,45.9375 h -56.4375 l -8.90625,25.5 h -36.28125 l 51.84375,-139.96875 h 43.03125 l 51.84375,139.96875 h -36.28125 z m -47.4375,-25.96875 h 38.34375 l -19.125,-55.6875 z m 168.0625,-361.0625 q 23.59375,6.09375 35.78125,21.25 12.34375,15 12.34375,38.28125 0,34.6875 -26.5625,52.8125 -26.5625,17.96875 -77.5,17.96875 -17.96875,0 -36.09375,-2.96875 -17.96875,-2.8125 -35.625,-8.59375 V 239.3741 q 16.875,8.4375 33.4375,12.8125 16.71875,4.21875 32.8125,4.21875 23.90625,0 36.5625,-8.28125 12.8125,-8.28125 12.8125,-23.75 0,-15.9375 -13.125,-24.0625 -12.96875,-8.28125 -38.4375,-8.28125 h -24.0625 v -38.75 h 25.3125 q 22.65625,0 33.75,-7.03125 11.09375,-7.1875 11.09375,-21.71875 0,-13.4375 -10.78125,-20.78125 -10.78125,-7.34375 -30.46875,-7.34375 -14.53125,0 -29.375,3.28125 -14.84375,3.28125 -29.53125,9.6875 V 65.3116 q 17.8125,-5 35.3125,-7.5 17.5,-2.5 34.375,-2.5 45.46875,0 67.96875,15 22.65625,14.84375 22.65625,44.84375 0,20.46875 -10.78125,33.59375 -10.78125,12.96875 -31.875,18.28125 z M 5.0319534,2.214203 V 176.2142 H 45.567115 l 11.46484,23 11.46484,23 H 287.02415 l 11.50781,-23 11.50781,-23 h 39.99219 V 2.214203 Z M 91.031955,242.2142 v 39 39 H 265.03196 v -78 z m 39.000005,102 v 49.56055 c 1e-5,35.41031 0.30995,49.36671 1.08594,48.88672 0.598,-0.37 22.085,-19.15229 47.75,-41.73829 l 46.66406,-41.0664 0.28906,-7.82227 0.29102,-7.82031 z m 95.20508,42.16797 c -0.435,0.183 -22.02075,19.00703 -47.96875,41.83203 l -47.17774,41.5 -0.0293,32.42383 -0.0293,32.42578 2.25,-2.01172 c 1.237,-1.107 22.837,-20.10484 48,-42.21484 l 45.75,-40.19922 v -32.04492 c 0,-17.624 -0.35792,-31.89494 -0.79492,-31.71094 z m -0.10742,91 c -0.497,0.183 -22.097,18.97853 -48,41.76953 l -47.09766,41.43945 v 7.81055 7.8125 h 96 v -49.58203 c 0,-29.094 -0.37234,-49.446 -0.90234,-49.25 z M 0,595.5 V 452 l 88.972017,-1.1071 -4.238453,194.96634 657.897796,-1.52026 c 0,0 -2.78869,48.49435 -2.61736,94.66102 H 0 Z"
     style="font-style:normal;font-variant:normal;font-weight:bold;font-stretch:normal;font-size:192px;line-height:1.25;font-family:sans-serif;-inkscape-font-specification:'sans-serif Bold';text-align:end;letter-spacing:0px;word-spacing:0px;text-anchor:end;fill:#000000;fill-opacity:1;stroke:none"
     id="path822" />
</svg>
