<?xml version="1.0" encoding="UTF-8" standalone="no"?><svg xmlns="http://www.w3.org/2000/svg" width="739" height="739"><path d="M165 715.5V692h120v-24.005l-21.75.609c-20.903.585-22.568.486-42.75-2.532-16.93-2.532-23.096-3.908-31.816-7.102l-10.815-3.961-20.033-18.967c-20.841-19.732-26.432-23.813-43.336-31.635-7.814-3.615-8.29-3.703-20.5-3.804-17.265-.142-21.548 1.439-28.167 10.397-4.464 6.041-4.804 6.92-4.818 12.458-.011 4.493.947 8.548 3.9 16.5 2.154 5.798 4.85 14.724 5.993 19.834l2.077 9.292-3.575 11.059c-2.674 8.27-5.483 14.182-11.139 23.442-6.975 11.42-8.326 13.003-17.355 20.336-8.35 6.782-10.986 8.33-17.906 10.516C17.328 736.232 12.665 737 7.448 737H0v-20h5.818c8.767 0 14.812-2.272 22.555-8.476 5.506-4.413 8.11-7.546 13.105-15.766 3.428-5.642 7.249-13.337 8.49-17.1 2.053-6.226 2.148-7.395 1.052-13-.662-3.387-3.187-11.533-5.612-18.102C41.225 633.221 41 632.071 41 622.004v-10.608l8.273-11.448 8.272-11.448 8.478-3.368c10.324-4.102 20.059-5.417 33.977-4.592 9.417.56 11.548 1.07 20.666 4.953 20.889 8.897 28.753 14.604 55.196 40.048 12.13 11.672 12.98 12.284 21.138 15.208 17.169 6.155 49.325 9.313 77.354 7.598l10.666-.652-.26-46.598-.26-46.597-142.25-.253L0 553.993V0h739v553.993l-142.25.254-142.25.253-.257 68.75-.257 68.75H574v47h-27v-20H192v20h-27v-23.5zM427 623v-69H312v138h115v-69zm285-379.5V27H27v433h685V243.5zM77 244V58h20v61h96v20H97v104h167v20h-61v105h132v20H183V263H97v167H77V244zm464.903 168.043c-5.712-1.036-9.611-3.031-13.1-6.704-2.974-3.13-6.21-9.98-5.044-10.672.408-.242 3.666-.748 7.241-1.125 3.575-.377 7.248-.896 8.162-1.153 1.202-.339 1.846.37 2.327 2.56.79 3.6 4.815 7.051 8.223 7.051 1.366 0 3.73-1.288 5.365-2.923 3.644-3.644 4.01-9.426.85-13.442-1.738-2.21-2.867-2.635-7-2.635H544l.014-3.75c.022-6.034.953-8.25 3.468-8.25 1.236 0 3.434-.933 4.883-2.073 5.076-3.993 2.589-11.927-3.74-11.927-2.965 0-7.625 3.945-7.625 6.455 0 1.85-1.027 1.89-10.077.395-6.387-1.055-6.91-1.323-6.329-3.25 1.353-4.482 4.766-8.727 9.023-11.221 5.92-3.47 18.33-4.408 26.579-2.01 12.938 3.76 16.77 17.186 7.281 25.517l-3.4 2.986 3.698 1.814c5.155 2.528 8.23 7.482 8.203 13.212-.024 5.1-2.53 11.343-6.013 14.977-5.046 5.266-17.7 8.047-28.062 6.168zm61.097.079c-8.137-1.777-14.929-7.839-17.208-15.359-1.765-5.824-1.735-31.012.044-36.038 3.126-8.835 10.506-13.772 21.664-14.494 15.524-1.004 24.183 5.502 27.377 20.568 3.194 15.071-.035 33.366-7.043 39.903-4.99 4.655-16.666 7.203-24.834 5.42zm12.4-15.447c1.912-2.573 2.1-4.156 2.1-17.679 0-13.541-.186-15.101-2.106-17.674-3.506-4.698-9.289-4.36-11.903.695-3.504 6.777-2.817 29.784 1.067 35.712 2.234 3.41 7.938 2.855 10.843-1.054zM396 390.5c0-11.825-.235-21.5-.521-21.5-.287 0-2.253 1.146-4.37 2.546-2.116 1.401-6.157 3.424-8.978 4.496l-5.131 1.95v-14.72l4.424-1.69c6.165-2.354 12.062-6.848 15.19-11.574l2.652-4.008H414v66h-18v-21.5zm60 0c0-19.741-.491-23.75-2.509-20.486-.772 1.25-7.472 4.715-12.644 6.54L437 377.91v-14.64l4.424-1.689c6.165-2.354 12.062-6.848 15.19-11.574l2.652-4.008H474v66h-18v-21.5zm39.667 20.833c-.367-.366-.667-4.416-.667-9V394h19v18h-8.833c-4.859 0-9.134-.3-9.5-.667zM495 374v-9h19v18h-19v-9zm-118.024-88.478c-5.391-1.729-10.599-6.515-13.08-12.022l-1.804-4 2.267-.613c1.247-.338 5.236-.932 8.864-1.32 6.316-.677 6.628-.608 7.302 1.613 2.057 6.772 9.344 9.041 14.02 4.365 3.53-3.529 3.47-10.622-.121-14.212-2.205-2.205-3.213-2.504-7-2.077l-4.424.498v-3.252c0-4.744 1.115-9.549 2.078-8.954.459.284 2.413-.144 4.342-.95 5.498-2.297 6.405-9.969 1.459-12.331-4.012-1.917-8.493.022-10.058 4.352-1.062 2.937-1.622 3.375-3.784 2.963-11.049-2.105-14.037-2.785-14.037-3.193 0-.258.856-2.138 1.903-4.179 4.314-8.413 10.645-11.507 23.597-11.533 10.584-.022 16.851 2.199 20.444 7.244 4.618 6.486 3.36 15.576-2.784 20.119l-3.024 2.236 4.182 2.112c11.647 5.882 9.679 24.364-3.362 31.576-3.646 2.016-6.091 2.513-13.456 2.737-5.828.176-10.594-.24-13.524-1.179zm91.91.158c-6.134-2.293-9.647-5.492-12.574-11.454-2.705-5.508-2.812-6.3-2.812-20.794 0-14.795.055-15.175 3.021-20.979 2.622-5.128 3.79-6.303 8.832-8.882 5.06-2.588 6.864-2.968 13.979-2.948 11.326.032 17.718 3.494 21.954 11.89 4.414 8.748 4.849 30.054.828 40.572-3.62 9.474-9.36 13.086-21.614 13.606-5.071.215-9.324-.155-11.615-1.011zm13.264-11.76c3.667-1.963 4.854-6.952 4.794-20.138-.064-13.902-1.224-18.534-5.194-20.748-2.472-1.379-3.028-1.379-5.5.003-4.759 2.658-5.711 6.09-5.68 20.463.019 8.847.452 13.8 1.357 15.5 3.127 5.88 5.92 7.223 10.223 4.92zm47.614 12.142c-12.58-4.054-17.414-14.657-16.583-36.377.397-10.371.75-12.169 3.403-17.356 2.552-4.992 3.757-6.194 8.769-8.758 5.06-2.588 6.864-2.968 13.979-2.948 14.752.042 21.725 6.013 24.704 21.154 1.361 6.919.817 23.418-.967 29.34-3.082 10.23-10.157 15.112-22.528 15.545-4.423.155-9.272-.115-10.777-.6zm12.386-12.142c3.667-1.963 4.854-6.952 4.794-20.138-.064-13.902-1.224-18.534-5.194-20.748-2.472-1.379-3.028-1.379-5.5.003-4.411 2.464-5.542 6.15-5.652 18.416-.113 12.766.648 17.319 3.5 20.946 2.185 2.777 4.787 3.269 8.052 1.52zM325 264.432v-21.568l-2.952 2.102c-3.122 2.223-13.434 7.034-15.077 7.034-.536 0-.971-3.133-.971-6.99v-6.99l6.25-2.864c6.166-2.826 14.192-9.822 15.31-13.346.487-1.533 1.714-1.81 8.007-1.81H343v66h-18v-21.568zM424 277v-9h19v18h-19v-9zm.211-28.75l.289-8.75 9.25-.288 9.25-.287V257h-19.078l.29-8.75zM236.5 158.104c-4.864-2.252-8.885-6.385-10.897-11.202-2.427-5.811-3.643-18.783-2.61-27.845C225.038 101.137 232.567 94 249.43 94c12.402 0 20.353 5.84 23.815 17.49.655 2.206 1.204 9.41 1.22 16.01.043 17.76-3.597 26.384-12.923 30.62-5.635 2.56-19.496 2.551-25.041-.016zm17.9-13.427c1.912-2.571 2.1-4.153 2.1-17.677 0-13.524-.188-15.106-2.1-17.677-2.65-3.564-8.15-4.362-10.693-1.552-4.759 5.259-4.953 30.626-.288 37.745 2.372 3.621 7.984 3.192 10.982-.84zm41.237 13.858c-4.751-1.694-9.176-5.783-11.818-10.92-2.22-4.317-1.513-5.563 3.181-5.608 1.375-.014 4.862-.308 7.75-.655 4.389-.527 5.25-.37 5.25.953 0 .87 1.067 2.824 2.37 4.34 1.806 2.098 3.267 2.755 6.13 2.755 5.59 0 8.5-3.778 8.5-11.033 0-4.769-.398-5.92-2.923-8.444-3.594-3.594-7.506-3.796-11.826-.608-2.944 2.171-3.587 2.255-10.444 1.356-4.019-.527-7.39-1.014-7.491-1.082-.101-.068 1.042-7.766 2.541-17.106l2.725-16.983 21.21-.27L332 94.96V109h-14.5c-13.511 0-14.5.128-14.5 1.875 0 1.031-.274 3.246-.61 4.92l-.608 3.046 4.359-1.519c5.464-1.904 13.131-1.244 18.73 1.612 10.524 5.369 13.403 20.271 6.058 31.359-4.66 7.037-10.87 9.719-22.375 9.663-5.035-.024-10.769-.655-12.917-1.42zm90.792-.428C377.041 153.843 373 144.291 373 126.366c0-14.336 1.748-20.464 7.388-25.893 4.991-4.806 9.96-6.476 19.228-6.463 17.129.024 25.326 10.749 25.37 33.19.032 17.215-4.508 27.195-14.218 31.252-5.356 2.238-19.08 2.044-24.339-.345zm17.972-13.432c1.91-2.573 2.099-4.157 2.099-17.679 0-13.546-.185-15.1-2.108-17.674-1.673-2.24-2.9-2.822-5.944-2.822-3.308 0-4.11.469-5.827 3.408-1.663 2.849-2 5.313-2.056 15-.075 13.433.759 18.416 3.55 21.207 2.838 2.838 7.603 2.171 10.286-1.44zm42.028 13.432c-10.01-4.546-13.947-14.762-13.21-34.266.549-14.492 2.111-19.256 7.957-24.26 7.087-6.066 21.09-7.533 30.424-3.187 8.673 4.039 12.216 11.275 13.12 26.795 1.124 19.312-3.45 30.876-13.952 35.263-5.356 2.238-19.08 2.044-24.339-.345zm17.972-13.432c1.91-2.573 2.099-4.157 2.099-17.679 0-13.546-.185-15.1-2.108-17.674-1.673-2.24-2.9-2.822-5.944-2.822-3.327 0-4.108.465-5.886 3.5-1.773 3.026-2.05 5.192-2.041 16 .01 13.053 1.264 19.167 4.304 20.987 2.954 1.768 7.33.711 9.576-2.312zM344 150.5V142h19v17h-19v-8.5zm.667-20.167c-.367-.366-.667-4.416-.667-9V113h19v18h-8.833c-4.859 0-9.134-.3-9.5-.667z"/></svg>