<?xml version="1.0" encoding="UTF-8" standalone="no"?><svg xmlns="http://www.w3.org/2000/svg" width="739" height="739"><path d="M450.319 736.929c-5.91-2.926-7.366-5.776-9.007-17.637-1.397-10.099-1.377-10.526.696-14.808 2.238-4.623 6.44-7.864 11.492-8.86 5.594-1.103 263.97-31.795 268.528-31.897 5.386-.122 10.303 2.452 12.943 6.773 2.138 3.5 4.514 20.014 3.527 24.508-.911 4.149-4.607 8.295-9.185 10.306-2.543 1.117-23.133 4-61.813 8.658-31.9 3.84-91.665 11.043-132.81 16.006-41.147 4.962-76.022 9.022-77.5 9.021-1.48 0-4.572-.932-6.871-2.07zm1.299-68.143c-2.02-13.956-44.612-373.545-44.386-374.734.214-1.128 7.125-2.274 31.272-5.185C580.55 271.737 670.035 261 670.754 261c.471 0 1.43 5.287 2.129 11.75.7 6.463 10.687 90.725 22.194 187.25 11.508 96.525 21.035 176.843 21.173 178.484l.25 2.984L590 656.624c-69.575 8.335-129.034 15.446-132.131 15.802l-5.631.646-.62-4.286zM503 485.566c16.225-1.965 42.55-5.149 58.5-7.074l58.5-7.065c16.225-1.96 32.2-3.87 35.5-4.245 5.444-.619 6.026-.914 6.28-3.182.29-2.586-13.426-118.98-14.1-119.654-.21-.209-7.535.507-16.28 1.59-8.745 1.083-28.95 3.54-44.9 5.461-122.63 14.768-136.74 16.509-137.157 16.927-.195.194 2.902 27.704 6.882 61.131l7.236 60.777 5.02-.547c2.76-.3 18.294-2.154 34.519-4.12zM0 189.458C0 9.36.088-.108 1.75.392 2.712.682 97.325 25.268 212 55.028s208.77 54.415 209.101 54.79c1.089 1.234 5.124 39.359 4.251 40.165-.712.659-412.29 222.397-422.102 227.408L0 379.051V189.458zm393.984 76.69c-5.151-2.737-7.708-7.166-8.623-14.933-1.9-16.14-.444-21.036 7.37-24.77 4.1-1.96 4.276-1.983 124.269-16.437 41.525-5.002 91.937-11.091 112.026-13.532 38.928-4.73 40.819-4.746 46.378-.373 3.943 3.101 5.21 6.413 6.523 17.039 1.002 8.115.96 10.192-.262 13.118-1.414 3.382-6.243 7.763-10.045 9.11-2.012.714-30.493 4.234-174.748 21.6-50.395 6.066-93.377 11.03-95.516 11.03-2.138 0-5.455-.833-7.372-1.852zM415 195.356c0-.684 25.062-30.661 26.842-32.106.847-.688 3.142-1.257 5.1-1.265 6.916-.03 6.806 1.72 2.275-36.116-2.26-18.87-3.995-34.424-3.856-34.563.362-.362 140.95-17.347 141.136-17.051.085.135 1.846 14.87 3.915 32.745s4 33.529 4.292 34.786c.498 2.144.883 2.249 6.164 1.675l5.632-.612 16.923 12.54c10.143 7.517 16.353 12.732 15.5 13.017-.783.262-50.698 6.365-110.923 13.563-60.225 7.197-110.287 13.257-111.25 13.465-.962.208-1.75.173-1.75-.078z"/></svg>