<?xml version="1.0" encoding="UTF-8" standalone="no"?>
<!-- Created with Inkscape (http://www.inkscape.org/) -->

<svg
   xmlns:dc="http://purl.org/dc/elements/1.1/"
   xmlns:cc="http://creativecommons.org/ns#"
   xmlns:rdf="http://www.w3.org/1999/02/22-rdf-syntax-ns#"
   xmlns:svg="http://www.w3.org/2000/svg"
   xmlns="http://www.w3.org/2000/svg"
   xmlns:sodipodi="http://sodipodi.sourceforge.net/DTD/sodipodi-0.dtd"
   xmlns:inkscape="http://www.inkscape.org/namespaces/inkscape"
   id="svg2"
   version="1.1"
   inkscape:version="0.91 r13725"
   width="750"
   height="693"
   viewBox="0 0 750 693"
   sodipodi:docname="parcel.svg">
  <metadata
     id="metadata8">
    <rdf:RDF>
      <cc:Work
         rdf:about="">
        <dc:format>image/svg+xml</dc:format>
        <dc:type
           rdf:resource="http://purl.org/dc/dcmitype/StillImage" />
        <dc:title></dc:title>
      </cc:Work>
    </rdf:RDF>
  </metadata>
  <defs
     id="defs6" />
  <sodipodi:namedview
     pagecolor="#ffffff"
     bordercolor="#666666"
     borderopacity="1"
     objecttolerance="10"
     gridtolerance="10"
     guidetolerance="10"
     inkscape:pageopacity="0"
     inkscape:pageshadow="2"
     inkscape:window-width="1920"
     inkscape:window-height="1054"
     id="namedview4"
     showgrid="false"
     inkscape:zoom="1.1839376"
     inkscape:cx="315.88971"
     inkscape:cy="314.76627"
     inkscape:window-x="0"
     inkscape:window-y="0"
     inkscape:window-maximized="1"
     inkscape:current-layer="svg2" />
  <path
     style="fill:#000000"
     d="m 366.56657,648.97388 c -7.62885,-2.15915 -13.79502,-5.02881 -28,-13.03085 -34.81577,-19.61263 -172.06668,-96.02038 -195,-108.55673 -14.3,-7.81701 -32.27994,-17.64568 -39.95543,-21.84149 -15.630334,-8.54435 -23.55368,-15.11979 -28.09239,-23.31336 l -2.952183,-5.32947 -0.5,-41.43128 -0.5,-41.43128 -5,-2.94206 c -2.75,-1.61814 -16.025,-9.0204 -29.5,-16.44947 -13.475,-7.42908 -26.411916,-14.81979 -28.7487012,-16.42381 -5.001499,-3.43313 -7.1646568,-7.17525 -7.8765255,-13.62586 -0.44564056,-4.03819 0.042769,-5.843 3.4855575,-12.88017 3.59947,-7.35742 3.843188,-8.31684 2.413266,-9.5 -2.278213,-1.88506 -5.226026,-8.79927 -5.2508465,-12.31607 -0.036429,-5.16166 5.4384045,-14.48236 17.1637357,-29.22062 6.222433,-7.82134 20.088514,-25.33132 30.813514,-38.91106 33.611336,-42.5579 31.490024,-40.20293 42.037791,-46.66811 5.204214,-3.18988 14.187212,-8.31568 19.962212,-11.39068 9.59871,-5.11098 100.00812,-54.9781 142,-78.32295 39.67998,-22.059566 78.24129,-43.612216 89.72041,-50.146446 17.70835,-10.08008 23.18487,-12.13968 32.27959,-12.13968 9.04488,0 14.10251,1.89193 31.5,11.78337 33.82458,19.23114 211.62282,117.760236 232.5,128.842746 5.775,3.06562 14.775,8.18493 20,11.37625 8.83607,5.39688 10.21883,6.71075 19.78545,18.79979 5.65699,7.14856 19.21626,24.24739 30.1317,37.99739 32.47065,40.90273 34.71099,43.8231 36.8584,48.04651 4.21367,8.28719 3.78657,15.25514 -1.30603,21.30735 l -2.35862,2.80305 3.41151,6.53882 c 4.45105,8.53129 5.23703,13.52719 3.03521,19.29257 -2.21685,5.80473 -5.48588,8.27018 -25.55762,19.27508 -9.075,4.97563 -22.8,12.59659 -30.5,16.93547 l -14,7.88888 -0.5,41.45613 -0.5,41.45614 -2.83963,5.12268 c -4.58976,8.2799 -11.87889,14.56884 -25.66037,22.13935 -6.875,3.77661 -23.075,12.65038 -36,19.7195 -12.925,7.06911 -58.6,32.44238 -101.5,56.38503 -42.9,23.94265 -81.375,45.39473 -85.5,47.67129 -4.125,2.27656 -12.9,7.12556 -19.5,10.77557 -18.94232,10.47569 -29.58694,13.20563 -40,10.25848 z m -10.13609,-51.77952 c 0.75518,-7.22518 -0.31709,-127.51946 -1.2403,-139.1453 l -0.62361,-7.85291 -15,27.82696 c -8.25,15.30483 -16.73471,30.44108 -18.85491,33.63611 -4.16403,6.27499 -9.37034,9.74276 -14.62721,9.74276 -4.73339,0 -11.95154,-3.69291 -63.51788,-32.49668 -112.95875,-63.09614 -131.40509,-73.2649 -131.93777,-72.73222 -0.30923,0.30923 -0.55299,11.84973 -0.54169,25.64557 l 0.0205,25.08333 28.62158,16 c 15.74187,8.8 34.52013,19.30675 41.72946,23.34834 15.98249,8.95985 98.36134,54.93288 142.10788,79.3059 17.6,9.80569 32.27339,17.83241 32.60754,17.83715 0.33415,0.005 0.89952,-2.78482 1.25637,-6.19901 z m 71.13609,-11.6022 c 47.3758,-26.34378 86.59515,-48.24707 185.73378,-103.72891 l 26.73378,-14.96127 0.0162,-24.16821 c 0.009,-13.29252 -0.23616,-24.8259 -0.54462,-25.62974 -0.4316,-1.12472 -4.17642,0.55624 -16.25,7.29422 -8.62902,4.81566 -46.51414,25.97742 -84.18914,47.02614 -83.10776,46.43163 -89.81836,49.97759 -94.58068,49.97759 -5.35618,0 -10.22486,-2.75912 -13.96973,-7.91676 -1.8303,-2.52078 -10.44271,-17.77707 -19.1387,-33.90286 l -15.81089,-29.31963 -0.62361,7.81963 c -0.92296,11.57346 -1.99565,131.88522 -1.2403,139.112 0.35685,3.41419 0.92222,6.20404 1.25637,6.19967 0.33415,-0.004 15.00754,-8.01522 32.60754,-17.80187 z M 301.91147,470.65198 c 2.16382,-3.7125 12.14232,-22.05 22.17444,-40.75 10.03212,-18.7 19.74806,-36.72757 21.59097,-40.06128 l 3.35074,-6.06127 -3.73052,-2.26208 c -6.88665,-4.17585 -18.56705,-10.74018 -44.73053,-25.13832 -14.3,-7.8695 -46.025,-25.54346 -70.5,-39.27546 -51.07196,-28.65457 -116.02098,-64.66505 -123.10865,-68.25665 -2.65367,-1.34472 -5.48261,-2.44494 -6.28652,-2.44494 -0.803908,0 -4.809248,5.2875 -8.900758,11.75 -11.266312,17.79504 -43.159711,70.26263 -45.505526,74.86081 l -2.066581,4.05084 6.184016,3.5524 c 11.449802,6.57734 37.891432,21.30382 91.184019,50.78429 55.44254,30.66979 133.65819,74.19546 146.5,81.52473 4.125,2.35429 8.0424,4.32471 8.70534,4.37873 0.66294,0.054 2.97574,-2.9393 5.13956,-6.6518 z m 159.92807,2.37513 c 4.24987,-2.40618 18.07703,-10.12664 30.72703,-17.15658 12.65,-7.02995 52.925,-29.42038 89.5,-49.75652 36.575,-20.33614 71.225,-39.54073 77,-42.67686 5.775,-3.13614 18.70094,-10.31761 28.7243,-15.95882 l 18.22431,-10.25676 -2.09227,-4.10119 c -2.20777,-4.32759 -39.60508,-65.75042 -48.07992,-78.9684 -2.73295,-4.2625 -5.67271,-7.75 -6.53281,-7.75 -0.86009,0 -5.87926,2.32517 -11.15371,5.16705 -14.52994,7.82876 -68.50645,37.79062 -96.0899,53.33861 -28.47672,16.05151 -87.81315,49.11461 -109.5,61.01495 -8.25,4.52707 -17.7,9.71437 -21,11.52733 -3.3,1.81297 -6.9658,4.03438 -8.14622,4.93647 -2.14047,1.63577 -2.08431,1.75493 21.01372,44.57787 25.12432,46.57963 27.32248,50.43772 28.73703,50.43772 0.51778,0 4.41858,-1.96869 8.66844,-4.37487 z M 209.3671,246.52786 c 7.80971,-4.33076 28.59947,-15.90023 46.19947,-25.70994 17.6,-9.8097 41.225,-22.88798 52.5,-29.06285 11.275,-6.17486 21.43343,-11.89175 22.57428,-12.7042 1.14085,-0.81244 4.06585,-2.00703 6.5,-2.65464 2.43415,-0.64761 7.63948,-2.99805 11.56742,-5.22321 l 7.1417,-4.04573 0.74296,-24.61266 c 0.70753,-23.43911 0.23746,-50.682156 -0.89402,-51.813636 -0.29035,-0.29035 -4.93891,1.84495 -10.33013,4.74512 -27.87585,14.995606 -192.82313,107.050986 -210.7276,117.604906 -2.70896,1.59681 -5.07175,3.34237 -5.25062,3.879 -0.17888,0.53664 3.2792,3.17069 7.68463,5.85344 13.01777,7.92738 55.38053,31.45356 56.79191,31.53941 0.71529,0.0435 7.69029,-3.46424 15.5,-7.79501 z m 370.48705,-4.77349 c 27.3558,-15.23331 41.21242,-23.46055 41.21242,-24.46949 0,-1.14809 -12.10034,-8.15551 -68,-39.3794 -28.325,-15.8215 -56.45,-31.55376 -62.5,-34.96056 -20.97776,-11.81275 -93.00801,-51.433936 -94.60229,-52.037226 -1.32498,-0.50139 -1.71438,0.46618 -2.25,5.59068 -0.82949,7.936166 -0.82667,29.642326 0.007,52.653386 l 0.65455,18.0704 7.09545,4.01786 c 3.9025,2.20982 9.12045,4.54214 11.59545,5.18294 2.475,0.64079 5.175,1.72474 6,2.40878 0.825,0.68404 7.575,4.53075 15,8.54825 7.425,4.0175 27,14.84373 43.5,24.05829 63.58418,35.50909 77.04243,42.8883 78.28758,42.92537 0.70817,0.0211 11.50817,-5.65309 24,-12.60928 z"
     id="path3338"
     inkscape:connector-curvature="0" />
</svg>
