<?xml version="1.0" encoding="UTF-8" standalone="no"?><svg xmlns="http://www.w3.org/2000/svg" width="705.203" height="770"><path d="M0 661V552h71V249H0V31h112v73h71v75h70v69h39v48h204l.123 39.75.123 39.75 5.192-41.232c2.856-22.677 5.388-41.386 5.627-41.574 1.55-1.224 103.268-46.694 103.634-46.328.696.696-12.54 106.883-13.426 107.708-.425.397-23.37 10.948-50.987 23.447l-50.214 22.726.543 4.626c2.53 21.578 9.14 40.333 20.131 57.127 7.285 11.13 7.08 11.073 12.602 3.553 9.456-12.879 23.555-24.966 37.022-31.738 25.937-13.044 50.864-9.25 56.97 8.67 2.158 6.332 2.093 9.911-.317 17.66-5.634 18.114-25.931 36.6-48.867 44.508-14.204 4.897-26.885 4.557-40.259-1.079-4.082-1.72-5.868 25.81-2.488 38.34 4.807 17.818 17.438 33.451 33.576 41.559 8.629 4.335 8.232 4.492 11.956-4.719 5.985-14.803 13.132-23.023 26.198-30.13 12.263-6.67 25.181-8.452 35.361-4.879 6.84 2.4 13.691 9.294 15.438 15.532 5.316 18.989-11.729 42.37-36.387 49.913-5.021 1.536-9.804 2.151-17.25 2.218l-10.3.092v6.54c-.001 8.643 2.119 16.621 7.138 26.873 8.014 16.367 24.247 29.108 43.574 34.202 8.908 2.348 28.006 3.002 32.485 1.112 4.105-1.732 10.506-7.94 11.692-11.34.915-2.625.75-3.337-1.224-5.312-1.254-1.254-2.854-2.47-3.555-2.705-.911-.303-.073-3.05 2.931-9.609l4.207-9.183 3.126 1.579c9.45 4.775 14.543 12.366 14.81 22.078.131 4.752-.449 7.232-2.935 12.545-8.256 17.642-25.58 25.322-51.167 22.682-24.275-2.504-43.214-11.63-58.678-28.273-14.407-15.505-21.08-31.728-22.12-53.773l-.546-11.585-6.62-2.807c-24.964-10.587-43.395-30.875-50.442-55.524-2.39-8.358-3.886-22.68-3.186-30.5.344-3.85 1.758-11.652 3.142-17.337l2.517-10.337-5.856-6.163c-3.22-3.39-7.417-8.63-9.325-11.645l-3.469-5.481-.5 18.481-.5 18.482-101.75.255-101.75.254V553h-39v67.974l-34.75.263-34.75.263-.262 37.237-.262 37.237-35.238.263-35.238.263-.262 36.75-.263 36.75H0V661zm610.29-70.487c5.734-1.494 12.15-4.929 16.6-8.887 4.014-3.569 8.11-10.785 8.11-14.287 0-4.307-2.635-5.678-9.904-5.152-11.343.82-23.176 9.423-28.252 20.541-4.017 8.798-3.892 9.272 2.446 9.272 2.91 0 7.86-.67 11-1.487zM271.353 400.25l-.146-132.75H91.5l-.254 132.75L90.993 533H271.5l-.146-132.75zM567.5 485.895c13.533-4.155 30.009-17.344 34.964-27.989 1.384-2.973 2.52-6.046 2.526-6.827.055-7.99-18.998-6.284-34.738 3.11-10.366 6.185-31.221 28.175-28.912 30.485.341.34 2.992 1.445 5.89 2.452 5.907 2.054 10.476 1.777 20.27-1.23zM476 400.5V316H292v169h184v-84.5zm81.364-64.879c10.004-4.18 10.973-17.207 1.738-23.358-4.111-2.738-8.475-2.884-13.04-.436-9.361 5.02-9.203 18.419.272 23.11 4.908 2.428 6.603 2.534 11.03.684zm67.228-37.871c3.402-26.101 10.079-82.338 9.811-82.638-.19-.214-22.903 9.83-50.471 22.32-27.57 12.489-50.246 22.564-50.393 22.388-.398-.477 12.478-257.115 12.973-258.57C546.846.267 560.837 0 611.969 0H677l-.049 2.25c-.027 1.238-5.764 66.15-12.75 144.25l-12.701 142-13 6.708c-7.15 3.69-13.329 6.727-13.73 6.75-.403.023-.482-1.87-.178-4.208z"/></svg>