<?xml version="1.0" encoding="UTF-8" standalone="no"?><svg xmlns="http://www.w3.org/2000/svg" width="740.02" height="739"><path d="M314.02 630.128V521.256l63.25-.558c64.004-.564 78.197-1.27 105.75-5.257 14.848-2.15 35.412-6.069 49.858-9.503L545.235 503H740.02v236h-426V630.128zm401.755-7.378l.255-95.75h-79.755l-79.755.001-9 2.463c-14.07 3.85-42.394 9.234-60.5 11.5-23.525 2.945-50.055 3.997-101.25 4.018l-44.75.018v174.005l187.25-.252 187.25-.253.255-95.75zm-490.67-38.985c-4.433-5.646-8.046-10.49-8.031-10.765.025-.462 25.207-19.415 64.21-48.328 8.775-6.505 15.793-11.373 15.595-10.818-.472 1.327-61.73 78.949-62.853 79.642-.475.294-4.49-4.085-8.922-9.731zM124.136 573.25c-3.387-11.615-3.972-14.222-3.284-14.632 1.497-.892 140.453-43.666 140.783-43.336.196.197-15.95 8.169-35.88 17.716a99891.425 99891.425 0 0 0-67.103 32.18C141.675 573.33 127.407 580 126.945 580c-.462 0-1.726-3.038-2.808-6.75zm-86.612-1.54c-4.027-12.147-9.672-30.865-9.384-31.117.621-.543 127.116-21.69 127.493-21.313.19.191-17.757 8.513-39.884 18.494a102731.66 102731.66 0 0 0-59.027 26.646c-12.366 5.592-18.934 8.085-19.198 7.29zM7.347 497.59c.298-.774 2.827-8.702 5.62-17.616 2.794-8.915 5.273-16.52 5.508-16.9.361-.586 263.848 34.03 268.46 35.268.872.234-61.8.478-139.272.542-120.798.1-140.78-.085-140.316-1.293zm362.173-2.687C224.132 483.018 92.335 408.688 7.667 290.828L0 280.156l.26-45.828.26-45.828 6.67 13.076c23.637 46.338 54.835 89.08 89.057 122.011 63.537 61.14 140.307 101.466 225.273 118.332 31.693 6.29 45.385 7.506 85 7.545 38.776.039 48.095-.624 77.15-5.484 91.546-15.313 175.932-59.27 242.53-126.337l13.82-13.918-.038 32.388-.038 32.387-8.212 7.085C650.998 445.24 553.82 485.917 446.52 494.967c-13.903 1.173-62.36 1.132-77-.064zm28-66.617c-79.947-1.725-158.001-26.564-226.097-71.952C93.333 304.286 33.67 225.714 4.092 135.973L.02 123.619V0h327v7.34c0 9.725 2.984 21.135 8.41 32.161 10.23 20.786 29.539 36.518 52.387 42.683 11.946 3.224 30.78 2.978 42.51-.556 15.946-4.803 26.398-11.283 37.873-23.481 12.644-13.441 20.236-30.871 21.513-49.397l.603-8.75H740.02v269.713l-7.552 8.893c-10.405 12.254-33.812 35.8-46.448 46.725-70.702 61.126-165.62 99.251-254.5 102.225-8.25.276-17.025.602-19.5.724-2.475.122-9 .125-14.5.006zm69.5-112.322c16.233-2.752 39.658-9.49 58-16.682 91.059-35.705 162.252-113.811 189.131-207.495 2.206-7.689 3.814-14.175 3.575-14.415-.473-.473-13.755-4.372-14.892-4.372-.38 0-1.893 3.938-3.36 8.75-10.062 32.998-30.671 71.592-53.603 100.376-10.347 12.988-30.476 33.71-42.85 44.114-39.863 33.513-87.908 56.818-138.709 67.283-7.03 1.449-12.853 2.71-12.94 2.805-.181.197 2.413 16.001 3.2 19.493.43 1.915.997 2.227 3.235 1.783 1.492-.296 5.638-1.034 9.213-1.64z"/></svg>