<?xml version="1.0" encoding="UTF-8" standalone="no"?>
<svg
   xmlns:dc="http://purl.org/dc/elements/1.1/"
   xmlns:cc="http://creativecommons.org/ns#"
   xmlns:rdf="http://www.w3.org/1999/02/22-rdf-syntax-ns#"
   xmlns:svg="http://www.w3.org/2000/svg"
   xmlns="http://www.w3.org/2000/svg"
   xmlns:sodipodi="http://sodipodi.sourceforge.net/DTD/sodipodi-0.dtd"
   xmlns:inkscape="http://www.inkscape.org/namespaces/inkscape"
   width="750"
   height="692.78"
   version="1.1"
   id="svg4"
   sodipodi:docname="press.svg"
   inkscape:version="0.92.3 (2405546, 2018-03-11)">
  <metadata
     id="metadata10">
    <rdf:RDF>
      <cc:Work
         rdf:about="">
        <dc:format>image/svg+xml</dc:format>
        <dc:type
           rdf:resource="http://purl.org/dc/dcmitype/StillImage" />
      </cc:Work>
    </rdf:RDF>
  </metadata>
  <defs
     id="defs8" />
  <sodipodi:namedview
     pagecolor="#ffffff"
     bordercolor="#666666"
     borderopacity="1"
     objecttolerance="10"
     gridtolerance="10"
     guidetolerance="10"
     inkscape:pageopacity="0"
     inkscape:pageshadow="2"
     inkscape:window-width="1366"
     inkscape:window-height="714"
     id="namedview6"
     showgrid="false"
     inkscape:zoom="0.68131294"
     inkscape:cx="253.76805"
     inkscape:cy="362.53404"
     inkscape:window-x="0"
     inkscape:window-y="0"
     inkscape:window-maximized="1"
     inkscape:current-layer="svg4" />
  <path
     style="fill:#000000;stroke-width:1.39873779"
     d="M 12.836951,688.38386 C 3.5514763,684.65958 3.792702,687.59396 3.792702,578.36572 v -98.69011 l 64.783022,0.74693 64.783026,0.74694 v -23.0954 c 0,-24.87265 1.15568,-30.1874 7.44913,-34.25672 3.05543,-1.97562 13.4728,-2.1915 105.75038,-2.1915 93.99179,0 102.67069,0.18729 106.14797,2.29058 6.62474,4.00711 7.75704,8.96308 7.75704,33.95194 v 22.88968 h 48.76924 48.76925 V 301.34557 121.93308 h -48.76925 -48.76924 v 22.88972 c 0,32.17813 -2.22628,35.97916 -21.83161,37.27412 l -10.09289,0.66663 -0.41547,84.15341 c -0.45626,92.4131 -0.0214,88.12785 -9.3568,92.2173 -6.86563,3.00757 -136.84535,3.00757 -143.71098,0 -9.33611,-4.08979 -8.90148,0.19825 -9.34697,-92.21664 l -0.40566,-84.15276 -10.28199,-0.67915 c -11.01261,-0.72738 -16.52255,-3.2886 -19.82095,-9.21346 -1.22552,-2.20137 -1.80512,-10.82807 -1.81975,-27.0847 l -0.0214,-23.85447 H 68.575782 3.7927603 V 68.805334 C 3.7927603,9.15615 3.9852896,7.8296533 13.156295,4.2922572 17.561293,2.5931873 49.466596,2.324754 247.00824,2.324754 c 205.29929,0 229.24711,0.2173108 233.58989,2.1197149 5.38625,2.3595229 9.43125,8.8421871 9.43125,15.1149181 0,5.094629 -6.72134,11.623752 -13.19667,12.819298 -2.55028,0.470853 -102.4938,0.8561 -222.09673,0.8561 H 37.27612 V 62.128918 91.023064 H 376.47711 715.6781 V 62.17496 33.326843 l -75.33756,-0.382008 c -82.82711,-0.419986 -79.6811,-0.09259 -84.1333,-8.753891 -2.85066,-5.545634 -0.91695,-13.198443 4.52851,-17.9219777 l 3.77238,-3.2722554 85.01297,-0.3673992 c 95.02091,-0.4106463 93.48942,-0.5416241 97.50906,8.3393483 1.85161,4.090954 2.1313,48.105367 2.1313,335.39803 0,365.87442 0.75834,338.17027 -9.36353,342.07442 -7.50274,2.89392 -71.87985,2.85458 -78.50574,-0.048 -8.83463,-3.87011 -8.89839,-4.19654 -9.38502,-48.04531 l -0.44373,-39.98144 H 376.47705 101.49073 L 101.047,640.3478 c -0.48663,43.84879 -0.5504,44.17521 -9.385024,48.04532 -6.528119,2.8597 -71.691133,2.85204 -78.825025,-0.009 z M 715.67804,540.56223 V 511.66808 H 376.47705 37.276062 v 6.71957 6.71957 h 40.809111 c 43.779597,0 48.109067,0.56282 52.899617,6.87663 2.78848,3.67516 3.1002,14.3387 0.50791,17.37549 -5.59824,6.55818 -6.37098,6.6579 -51.59452,6.6579 H 37.276062 v 6.71957 6.71956 H 376.47705 715.67804 Z m -561.3558,10.88571 c -4.16062,-3.84088 -4.94971,-5.5322 -4.94971,-10.60919 0,-11.4562 12.4914,-18.67611 23.76665,-13.73687 15.70051,6.87779 10.1182,28.91536 -7.32452,28.91536 -5.49965,0 -7.33179,-0.72844 -11.49242,-4.5693 z m 172.65767,-85.47293 v -14.78305 h -80.0689 -80.0689 v 14.78305 14.78305 h 80.0689 80.0689 z M 715.67804,301.34557 V 121.93308 H 602.85368 490.02932 v 179.41249 179.41249 h 112.82436 112.82436 z m -181.49013,59.70515 c -2.53584,-0.6952 -6.30271,-3.12038 -8.37084,-5.3893 -8.55053,-9.38076 -1.85548,-22.78752 12.34134,-24.71342 3.55483,-0.48223 35.31806,-0.68769 70.58496,-0.45657 71.84078,0.47083 69.90553,0.20405 74.48372,10.26815 1.94677,4.27956 1.97897,5.63308 0.24235,10.18906 -1.10146,2.88965 -3.85137,6.51822 -6.11093,8.06348 -4.0152,2.74593 -5.63135,2.81516 -71.33412,3.05607 -38.61649,0.14161 -69.18799,-0.2914 -71.83648,-1.01747 z m -2.93809,-61.00022 c -12.08669,-4.85285 -11.88004,-22.32737 0.31968,-27.03299 7.66644,-2.95705 137.21877,-2.80711 144.00729,0.16669 11.71804,5.13321 11.71804,21.62343 0,26.75665 -4.06943,1.78266 -14.29386,2.06923 -72.21523,2.02409 -54.19727,-0.0422 -68.38708,-0.41898 -72.11174,-1.91444 z m -3.71073,-62.42855 -4.75431,-3.91943 -0.43255,-34.99836 c -0.47754,-38.64091 -0.0102,-41.15536 8.39179,-45.16635 6.35003,-3.03137 137.77795,-3.05239 144.69305,-0.0231 8.62358,3.77765 8.8955,4.94212 9.41465,40.31781 0.52158,35.5411 -0.25271,40.56981 -6.92174,44.9536 -4.08757,2.68689 -5.94765,2.75531 -74.91411,2.75531 H 532.2934 Z M 651.62292,196.5203 v -14.1111 h -48.04134 -48.04134 v 14.1111 14.11109 h 48.04134 48.04134 z M 326.97991,136.71613 v -14.78305 h -80.0689 -80.0689 v 14.78305 14.78306 h 80.0689 80.0689 z M 518.06578,32.312201 c -5.29468,-0.982105 -12.02268,-8.11869 -12.02268,-12.752814 0,-6.451647 4.03716,-12.7519682 9.78462,-15.2697101 12.71925,-5.5718128 26.98686,6.9836081 21.56033,18.9729721 -3.04074,6.718211 -11.22531,10.551443 -19.32227,9.049552 z"
     id="path839"
     inkscape:connector-curvature="0" />
</svg>
