<?xml version="1.0" encoding="UTF-8" standalone="no"?><svg xmlns="http://www.w3.org/2000/svg" width="739" height="739"><path d="M0 594.45C0 474.84.228 450.04 1.323 450.7c.727.44 17.377 15.386 37 33.214L74 516.33V739H0V594.45zm125.002 141.8c.001-1.513 4.73-55.85 10.51-120.75 9.204-103.374 10.723-118.16 12.247-119.296.958-.713 7.029-3.992 13.491-7.288 11.533-5.882 11.75-5.948 11.75-3.53 0 1.356-2.261 20.803-5.025 43.215-2.763 22.413-4.9 41.072-4.75 41.465.151.393 22.775-9.49 50.275-21.963 49.046-22.244 50.005-22.628 50.281-20.14.154 1.395-1.983 47.696-4.75 102.89C256.264 686.05 254 732.962 254 735.105V739H125l.002-2.75zm61.333-197.952c.276-.989 3.318-25.198 6.761-53.798s6.552-52.35 6.91-52.777c1.182-1.417 103.488-47.44 103.789-46.69.291.727-12.64 107.146-13.071 107.575-.267.266-96.755 44.042-101.557 46.076-3.09 1.31-3.296 1.281-2.832-.386zm66.3-65.217c2.022-1.233 3.756-3.539 4.886-6.496 1.668-4.368 1.668-4.802 0-9.17C252.32 443.8 232 447.451 232 462c0 10.042 11.878 16.42 20.635 11.08zM606.5 489.934c-2.2-1.2-79.375-44.283-171.5-95.74-92.125-51.457-178.975-99.96-193-107.786-14.025-7.825-26.738-15.422-28.25-16.88-2.186-2.11-2.75-3.561-2.75-7.077 0-3.965 4.16-11.87 40.091-76.188 22.05-39.47 40.439-72.129 40.863-72.576.424-.446 1.049.578 1.389 2.276.34 1.699 2.437 5.768 4.66 9.043 2.225 3.275 4.276 6.558 4.56 7.297.283.738-1.528 4.975-4.024 9.414-2.496 4.44-4.539 8.296-4.539 8.57 0 1.005 12.714 5.533 20.5 7.301 10.065 2.286 28.173 2.241 37.5-.093 3.743-.937 14.136-1.99 24.5-2.48 9.9-.47 22.182-1.582 27.293-2.472 13.182-2.297 29.656-8.376 45.137-16.655 13.178-7.048 13.372-7.114 16.452-5.604 1.715.84 61.843 34.371 133.618 74.514 99.03 55.385 130.934 73.675 132.3 75.844 1.181 1.873 1.653 4.09 1.37 6.431-.475 3.93-108.13 197.685-112.097 201.752-3.29 3.373-9.087 3.83-14.073 1.11zm24.155-55.684l20.039-35.75-4.72-2.258c-9.765-4.673-19.472-6.538-34.474-6.623-11.582-.066-15.44.31-22.337 2.18-10.407 2.821-19.086 6.723-27.3 12.273-12.038 8.133-26.466 23.774-23.627 25.61 2.707 1.751 71.296 40.193 71.822 40.254.306.035 9.575-16.024 20.597-35.686zm60.195-106.873c11.193-20.117 19.968-36.936 19.5-37.375-.467-.439-16.6-9.594-35.85-20.345l-35-19.547-2.314 5.136c-2.864 6.356-5.86 18.95-6.746 28.352-.706 7.493.596 20.162 3.085 30.015 2.087 8.263 9.405 22.617 15.747 30.887 4.497 5.864 19.055 19.541 20.728 19.473.275-.01 9.658-16.48 20.85-36.596zm-250.342 23.09c3.335-6.292 4.321-7.438 5.992-6.961 17.355 4.954 24.068 5.539 33.965 2.961 17.804-4.637 29.512-18.418 30.366-35.742.658-13.362-4.214-23.507-17.383-36.199l-7.29-7.026 12.631-22.889 12.632-22.888 3.32 3.84c4.71 5.449 6.813 13.264 5.489 20.39-.567 3.051-.738 5.846-.38 6.211.513.525 17.986 7.836 18.726 7.836.102 0 .69-2 1.305-4.443 3.937-15.635-2.433-31.328-17.84-43.946l-3.459-2.833 3.71-6.782c2.04-3.73 3.708-7.24 3.708-7.798 0-1.154-14.213-9.207-16.203-9.181-.713.009-3.013 3.196-5.11 7.083-2.98 5.518-4.184 6.923-5.5 6.417-11.685-4.488-24.165-5.587-33.255-2.929-11.062 3.235-18.395 9.757-23.698 21.076-3.8 8.11-3.845 19.29-.112 27.336 2.648 5.706 13.183 19.522 17.44 22.87 1.34 1.055 2.438 2.159 2.438 2.453 0 .294-6.239 11.834-13.864 25.643l-13.863 25.109-3.28-3.737c-6.984-7.953-9.293-18.132-6.656-29.338.84-3.575 1.221-6.806.846-7.18-.749-.746-17.088-6.82-18.346-6.82-.945 0-3.497 8.788-4.356 15-.815 5.891 1.682 17.692 5.056 23.89 2.866 5.267 8.48 11.62 15.332 17.351l4.37 3.655-4.2 7.651-4.2 7.652 2.262 1.65c2.278 1.662 13.961 8.012 14.907 8.102.28.027 2.305-3.34 4.5-7.483zm16.231-19.376c-2.069-.43-3.95-.968-4.18-1.198-.23-.23 5.162-10.538 11.982-22.906 6.82-12.368 12.588-22.937 12.817-23.487.512-1.233 5.492 4.306 9.873 10.981 2.85 4.344 3.268 5.817 3.264 11.5-.005 7.689-2.957 13.69-9.48 19.274-5.93 5.076-16.12 7.525-24.276 5.836zm10.4-80.585c-10.144-11.554-10.058-25.224.216-34.245 1.91-1.677 5.2-3.632 7.31-4.344 4.17-1.407 12.268-1.71 16.484-.617l2.65.688-11.293 20.566c-6.21 11.311-11.506 20.779-11.766 21.04-.26.26-1.881-1.13-3.6-3.088zM307.073 294.33c4.373-10.202 6.296-20.276 6.363-33.331.128-25.023-7.58-44.576-24.68-62.608-6.324-6.67-14.354-13.186-15.144-12.29-1.222 1.384-40.792 73.045-40.488 73.323.997.912 70.479 39.53 71.162 39.55.432.014 1.686-2.076 2.787-4.644zM36.737 455.75L.025 422.5l-.012-33.333L0 355.834l5.45 4.833c2.998 2.658 19.627 17.658 36.952 33.333l31.5 28.5.05 33.25c.026 18.288-.076 33.25-.227 33.25-.152 0-16.796-14.963-36.988-33.25zm-.487-93.9L0 328.826v-17.614l18.026-16.18c9.915-8.9 18.47-16.034 19.01-15.853.54.18 9.078 7.516 18.973 16.301L74 311.455v41.772c0 22.975-.338 41.744-.75 41.71-.412-.036-17.063-14.925-37-33.088zm611.67-152.31c-1.97-.725-19.295-9.857-38.5-20.294A40626.466 40626.466 0 0 0 537 150.01c-20.625-11.143-44.169-24.366-52.32-29.385-19.47-11.989-19.335-11.922-21.973-10.947-1.223.452-10.994 5.4-21.715 10.996-21.495 11.22-28.703 14.204-43.174 17.872-30.29 7.678-59.15 1.532-78.323-16.68-9.401-8.931-12.617-15.094-13.282-25.453-.896-13.957 2.904-19.287 20.287-28.453 15.067-7.946 38.256-22.21 68.506-42.14 22.764-14.998 29.87-18.742 42.47-22.372 8.615-2.482 21.258-1.588 70.716 5C531.123 11.5 552.176 14 554.976 14c5.402 0 8.928-1.469 23.122-9.63L585.697 0h78.213l21.87 21.75c22.225 22.103 37.67 40.127 47.673 55.633L739 85.982v90.97l-7.25 5.4c-15.097 11.246-32.078 18.385-62.11 26.111-10.87 2.797-16.317 3.067-21.72 1.078z"/></svg>