<?xml version="1.0" encoding="UTF-8" standalone="no"?><svg xmlns="http://www.w3.org/2000/svg" width="737" height="740"><path d="M0 631V522h253v69h-69v75h-71v74H0V631zm335.5 75l-33.989-34H346V522h48v149.961l21.507.27 21.506.269-33.762 33.75L369.49 740l-33.99-34zM72 370v-81h257v18h194.922l.29 8.75.288 8.75 106.25.255 106.25.254v89.981l-106.25.255-106.25.255-.289 8.75-.289 8.75H329v18H72v-81zm237 0v-61H92v122h217v-61zm195 0v-43H330v86h174v-43zm213 0v-25H524v50h193v-25zM0 109V0h113v74h71v75h69v69H0V109zm346 34V68h-44.489L335.5 34l33.99-34 33.761 33.75 33.762 33.75-21.506.27-21.507.269V218h-48v-75z"/></svg>