<?xml version="1.0" encoding="UTF-8" standalone="no"?><svg xmlns="http://www.w3.org/2000/svg" width="739.828" height="737.976"><path d="M38.504 731.716c-4.961-7.79-24.104-27.22-31.776-32.253l-5.75-3.771v-48.717h506v-114h-506v-25h109v-54h-45V220.396l25.178-20.71 25.177-20.71 97.073.016 97.072.017 25.25 21.064 25.25 21.064v233.838h-42v53h215v164l-20.75.026c-31.37.039-47.206 2.013-65.75 8.195-11.214 3.738-26.508 11.313-36.432 18.044-9.485 6.434-28.334 25.217-33.593 33.476l-3.975 6.242-18.345.009-18.345.009 2.738-4.75c12.9-22.38 30.76-41.09 52.923-55.441l8.972-5.81H14.87l10.304 6.897c21.835 14.615 39.466 33.14 50.777 53.353l3.217 5.75-18.345-.009-18.346-.009-3.974-6.241zm254.474-261.578V455.3l-38.25-.661c-21.037-.364-56.587-.662-79-.662l-40.75-.001v31h158v-14.838zm42-134.998v-94.836l-71.25-.664c-39.187-.365-94.312-.664-122.5-.664h-51.25v189.99l114.25.258c62.838.142 117.963.37 122.5.504l8.25.246V335.14zm-22-120.49c0-.18-2.87-2.654-6.377-5.5l-6.378-5.175H124.208l-5.77 4.75-5.771 4.75 39.405.518c48.805.64 160.906 1.098 160.906.657zm410 115.242c-49.343-11.305-101.15-31.968-137.625-54.894-5.27-3.313-9.69-6.023-9.82-6.023-.131 0-1.056 2.7-2.055 6-.999 3.3-2.163 6-2.587 6-.953 0-68.067-22.782-68.343-23.199-.109-.165 9.13-27.75 20.531-61.3 11.401-33.55 20.95-61.788 21.22-62.751.434-1.541 4.593-.364 34.836 9.86 18.889 6.387 34.457 11.713 34.596 11.837.139.124-.65 2.848-1.753 6.053-1.103 3.206-1.853 5.98-1.668 6.165.185.185 5.249.821 11.252 1.414 16.225 1.6 37.838 5.431 56.416 10 16.532 4.064 57.575 17.153 60.476 19.286 1.37 1.007 1.515 8.694 1.284 68.234l-.26 67.098-16.5-3.78zM489.082 204.364c-3.519-1.36-10.873-3.007-16.344-3.661-9.058-1.083-10.064-1.416-11.256-3.72-1.009-1.952-3.224-3.148-9.656-5.215-6.776-2.178-20.385-4.793-24.941-4.793-.522 0-1.453-1.105-2.069-2.457-1.46-3.206-12.938-7.147-25.336-8.7-7.799-.977-9.336-1.496-11.502-3.88-3.034-3.341-15.035-7.407-26.322-8.916-4.302-.576-8.168-1.047-8.59-1.047-.421 0-1.266-1.096-1.877-2.437-.877-1.924-3.066-3.059-10.41-5.394-5.116-1.626-12.676-3.266-16.8-3.644-6.468-.592-7.845-1.068-10-3.455-3.282-3.633-12.239-6.852-24-8.626-5.226-.788-9.99-1.435-10.59-1.438-.6-.003-1.58-1.083-2.18-2.4-1.432-3.141-13.31-7.118-26.026-8.713-8.534-1.07-9.408-1.386-10.683-3.851-1.136-2.196-2.997-3.163-10.205-5.3-4.85-1.439-11.517-2.887-14.817-3.219-9.566-.962-11.157-1.476-12.292-3.967-1.407-3.088-13.391-7.08-26.003-8.663-8.534-1.07-9.408-1.386-10.683-3.851-1.134-2.192-3.01-3.17-10.205-5.321-4.85-1.45-11.967-2.936-15.817-3.302-7.883-.75-10.108-1.61-10.94-4.229-.813-2.565-14.956-7.137-26.135-8.45-8.17-.958-9.223-1.322-10.566-3.652-1.143-1.984-3.459-3.209-9.925-5.25-4.638-1.464-10.684-2.939-13.434-3.277-11.389-1.4-12.22-1.65-13.295-4.011-1.403-3.08-13.57-7.184-25.673-8.661-8.007-.977-9.315-1.427-11.532-3.968-2.336-2.678-11.155-5.92-16.103-5.92-.925 0-1.956-.713-2.29-1.583C-.327 37.017-.115 1.671.82.197 1.44-.779 9.977 1.73 37.055 10.85c72.242 24.329 184.813 62.399 229.423 77.588 50.04 17.039 157.883 53.612 206.5 70.032 16.775 5.666 31.71 10.776 33.19 11.356l2.689 1.054-6.026 18.048c-3.314 9.927-6.324 18.017-6.69 17.978-.364-.038-3.541-1.181-7.06-2.54z"/></svg>