<?xml version="1.0" encoding="UTF-8" standalone="no"?><svg xmlns="http://www.w3.org/2000/svg" id="svg2" width="723.853" height="723.567" viewBox="0 0 723.853 723.568"><defs id="defs6"><style id="style3337">.fil0{fill:#000}</style></defs><g id="g3364" transform="translate(-153.48 -280.692) scale(4.87194)" clip-rule="evenodd" fill-rule="evenodd" image-rendering="optimizeQuality" shape-rendering="geometricPrecision" text-rendering="geometricPrecision"><g id="Ebene_x0020_1"><g id="_246139464"><path d="M31.505 113.905c.08.118.156.237.236.354 30.995 45.138 92.712 56.604 137.85 25.61a100.032 100.032 0 0 0 10.46-8.262v-12.831c-16.471 18.074-40.2 29.417-66.58 29.417-36.413 0-67.775-21.613-81.966-52.708v18.42zm91.25 7.685c26.089-3.784 47.088-23.273 53.1-48.571l-3.33-.941C165.958 95.354 146.31 113.14 122.02 117l.736 4.59zm-91.25-39.078c10.494 35.343 43.216 61.124 81.966 61.124 26.907 0 50.907-12.434 66.58-31.865V57.614h-50.066c.006.175.01.35.01.525 0 9.126-7.399 16.524-16.524 16.524-9.126 0-16.524-7.398-16.524-16.524 0-.176.004-.35.01-.525H31.504v24.898z" class="fil0" id="_246143304"/><g id="g3343"><path class="fil0" id="_246141432" d="M89.324 166.588l-54.183-7.238-2.25 7.171z"/><path class="fil0" id="_246135312" d="M37.019 175.035l25.689-4.332-23.668 10.69z"/><path class="fil0" id="_246139080" d="M55.59 178.694l1.203 4.274 27.389-13.135z"/><path class="fil0" id="_246136104" d="M91.188 169.455L78.345 185.74l-3.321-4.21z"/></g><path d="M180.05 206.16v-38.703h-38.899a106.997 106.997 0 0 1-27.525 3.619H94.499v35.083h5.278v-30.407h17.947v-.001a94.583 94.583 0 0 0 25.827-3.618h31.781v34.027h4.718z" class="fil0" id="_246134064" stroke="#000" stroke-width=".2"/><path d="M162.64 144.249l17.41-12.642-12.424 16.953a6.263 6.263 0 0 0-.939-1.888c-1.049-1.444-2.568-2.294-4.047-2.423z" class="fil0" id="_246140664"/><path d="M142.902 152.813l19.738-8.564-15.806 13.854a6.26 6.26 0 0 0-.507-2.047c-.71-1.637-2.009-2.797-3.425-3.243z" class="fil0" id="_246136896"/><path d="M121.814 157.084l21.088-4.271-18.342 10.263a6.26 6.26 0 0 0-.07-2.107c-.355-1.75-1.384-3.154-2.676-3.885z" class="fil0" id="_246136008"/><path d="M100.306 156.464l21.507.624-20.192 5.835a6.26 6.26 0 0 0 .41-2.069c.051-1.784-.632-3.385-1.725-4.39z" class="fil0" id="_246138984"/><path d="M79.455 151.156l20.85 5.308-20.978 1.282c.375-.564.67-1.214.851-1.929.44-1.73.124-3.441-.723-4.661z" class="fil0" id="_246132408"/><path d="M60.252 141.451l19.203 9.705-20.758-3.3c.49-.47.917-1.04 1.25-1.698.805-1.593.867-3.333.305-4.707z" class="fil0" id="_246138408"/><path d="M43.487 127.965l16.765 13.486-19.617-7.544a6.264 6.264 0 0 0 1.575-1.401c1.12-1.391 1.541-3.08 1.277-4.541z" class="fil0" id="_246139872"/><path class="fil0" id="_246139920" d="M43.488 127.964l-11.983-7.951v-7.03z"/><path class="fil0" id="_246140064" d="M94.499 201.485h85.551v4.675H94.499z"/></g></g></g></svg>