<?xml version="1.0" encoding="UTF-8" standalone="no"?>
<svg
   xmlns:dc="http://purl.org/dc/elements/1.1/"
   xmlns:cc="http://creativecommons.org/ns#"
   xmlns:rdf="http://www.w3.org/1999/02/22-rdf-syntax-ns#"
   xmlns:svg="http://www.w3.org/2000/svg"
   xmlns="http://www.w3.org/2000/svg"
   viewBox="0 0 724.00043 724"
   height="724"
   width="724.00043"
   version="1.1"
   id="svg2">
  <metadata
     id="metadata8">
    <rdf:RDF>
      <cc:Work
         rdf:about="">
        <dc:format>image/svg+xml</dc:format>
        <dc:type
           rdf:resource="http://purl.org/dc/dcmitype/StillImage" />
        <dc:title></dc:title>
      </cc:Work>
    </rdf:RDF>
  </metadata>
  <defs
     id="defs6" />
  <path
     id="path3338"
     d="m 306.2444,638.25 0.2556,-85.75 66,-0.60934 c 38.0127,-0.35095 70.2405,-1.08814 76,-1.73844 27.7084,-3.12856 49.8905,-6.87301 72.3576,-12.21433 L 533.2152,535 l 95.3924,0 95.3924,0 0,94.5 0,94.5 -209.0056,0 -209.0056,0 0.2556,-85.75 z M 700,629.5 l 0,-71.5 -76.0306,0 -76.0306,0 -13.7194,3.45439 c -23.5237,5.92299 -45.4538,9.81473 -71.2194,12.63866 -6.1169,0.67041 -35.4421,1.34724 -70.25,1.62137 l -59.75,0.47057 0,62.40751 0,62.4075 183.5,0 183.5,0 0,-71.5 z m -479.811,-15.50688 -8.1733,-10.22963 38.1072,-28.43336 c 20.959,-15.63836 38.2265,-28.29764 38.3722,-28.13175 0.1458,0.16589 -12.5431,16.50162 -28.1975,36.30162 -15.6545,19.8 -29.244,37.06262 -30.199,38.36138 l -1.7363,2.36137 -8.1733,-10.22963 z m -98.6694,-9.68662 c -0.9103,-3.19358 -2.1502,-7.50844 -2.7553,-9.5886 -0.6655,-2.28801 -0.7375,-4.11734 -0.1822,-4.63075 0.922,-0.85242 133.6486,-42.18978 134.0796,-41.75875 0.29,0.28995 -126.4267,61.06181 -128.1892,61.4781 -0.821,0.1939 -1.9058,-1.8266 -2.9529,-5.5 z m -85.109204,-2.67929 c -1.4944,-3.89452 -9.2773,-29.09367 -9.0545,-29.31649 0.1434,-0.14331 27.0094,-4.76469 59.7024,-10.26972 32.692904,-5.50504 60.294004,-10.21615 61.335704,-10.46913 4.6859,-1.13796 -2.92,2.46749 -48.394004,22.94044 -26.675,12.0094 -51.7782,23.32787 -55.785,25.15216 -5.6199,2.55879 -7.4037,3.00739 -7.8046,1.96274 z M 7,530.39194 c 0,-2.26002 10.6608,-33.70829 11.5415,-34.04625 0.9298,-0.35679 254.0954,33.00556 258.4585,34.05985 0.825,0.19935 -59.5875,0.41466 -134.25,0.47846 C 68.087496,530.9478 7,530.72637 7,530.39194 Z m 335.7161,-21.20283 c 1.8451,-8.68349 0.096,-17.43201 -4.9682,-24.8432 -1.7834,-2.61011 -2.6805,-3.08434 -5.2015,-2.74971 -1.6755,0.2224 -14.5214,1.08066 -28.5464,1.90724 -53.3346,3.14335 -59.658,3.53695 -65.2984,4.0645 l -5.7985,0.54234 2.2865,-4.30514 c 1.8638,-3.50934 2.287,-5.87635 2.2898,-12.80514 0.01,-11.59512 -1.5682,-14.46848 -8.7171,-15.92592 -6.36,-1.29661 -92.7206,-15.05716 -94.5603,-15.06708 -0.8114,-0.004 -0.2018,-1.6005 1.6257,-4.257 5.3243,-7.73951 7.75,-18.93354 5.1539,-23.78437 -0.5601,-1.04658 -2.9379,-3.02778 -5.2839,-4.40265 -3.3582,-1.96802 -49.087504,-20.01885 -85.376304,-33.70076 l -5.1785,-1.95246 4.5085,-4.50852 c 4.9247,-4.92466 7.8821,-10.63192 8.9411,-17.25426 0.6258,-3.91356 0.4011,-4.56589 -2.705,-7.85383 -1.8631,-1.97217 -15.2,-11.3958 -29.6375,-20.94139 L 0,303.99613 0.024,244.74807 0.048,185.5 l 8.2796,16 c 16.249496,31.40169 32.264696,55.65116 54.485896,82.5 11.0484,13.34924 39.650704,42.18925 52.686904,53.12475 81.2041,68.11869 178.8455,103.88985 283.5,103.86085 51.1692,-0.0142 96.0705,-7.39806 142.8667,-23.49401 63.6346,-21.88768 119.2143,-56.61541 167.5237,-104.67349 7.6396,-7.59996 14.0521,-13.8181 14.25,-13.8181 0.1978,0 0.3596,13.73661 0.3596,30.52581 l 0,30.52581 -30.2952,41.30766 -30.2952,41.30767 -3.0276,-5.58347 c -3.495,-6.44537 -10.5408,-12.30806 -16.9478,-14.1019 l -4.2634,-1.19367 -38.3354,33.63172 -38.3354,33.63172 -1.1299,-3.83005 c -2.6118,-8.85373 -9.2105,-17.36892 -15.7786,-20.36158 -2.8344,-1.29143 0.4893,-2.97389 -50.4628,25.54426 C 472.9248,502.83179 454.6493,513 454.5167,513 c -0.1325,0 -0.5409,-2.55193 -0.9074,-5.67096 -0.3666,-3.11902 -1.5135,-7.58558 -2.5486,-9.92567 -3.4573,-7.81566 -12.7969,-16.08048 -14.227,-12.58974 -0.2667,0.65111 -40.7111,12.64637 -88.1172,26.13443 l -6.7839,1.93016 0.7839,-3.68911 z M 367.5,417.94807 C 267.0871,409.63717 175.4825,367.42459 105.0151,296.99156 59.694496,251.6932 25.645896,197.05917 5.0673,136.61644 L 0,121.73288 0,60.866439 0,0 159.5,0 319,0 l 0,5.542159 c 0,12.597817 5.5109,29.855846 13.2633,41.535253 7.8562,11.835937 21.027,23.005704 34.1356,28.949398 9.2097,4.175918 16.9244,5.963029 28.6011,6.625516 32.7106,1.855861 61.8464,-15.37521 76.9502,-45.5088 3.9243,-7.829365 6.8089,-18.815426 7.6787,-29.245132 L 480.2876,0 602.1438,0 724,0 l 0,131.63868 0,131.63868 -5.75,7.08292 c -3.1625,3.89561 -12.5,14.01966 -20.75,22.4979 -68.0869,69.9705 -154.5717,112.33638 -252.5,123.69086 -16.0927,1.86591 -61.874,2.69235 -77.5,1.39903 z m 92.4223,-108.97448 c 24.358,-4.47807 55.7563,-15.22388 79.5777,-27.23475 71.7423,-36.1729 128.0394,-99.98096 154.2978,-174.88379 5.4571,-15.566593 9.5717,-30.904981 8.5396,-31.833849 C 700.7027,73.55 687.9244,70.675083 687.0892,71.590592 686.6329,72.090766 685.2583,75.875 684.0345,80 c -8.7427,29.46911 -28.8791,67.73853 -49.7236,94.5 -46.3502,59.5074 -115.1249,101.36842 -186.5609,113.5539 -3.7125,0.63328 -6.75,1.38698 -6.75,1.67489 0,1.02058 3.1435,19.78971 3.5076,20.94359 0.2036,0.6448 1.1851,0.99885 2.1812,0.78676 0.9962,-0.21209 6.9513,-1.33059 13.2335,-2.48555 z"
     style="fill:#000000" />
</svg>
