<?xml version="1.0" encoding="UTF-8" standalone="no"?>
<svg
   xmlns:dc="http://purl.org/dc/elements/1.1/"
   xmlns:cc="http://creativecommons.org/ns#"
   xmlns:rdf="http://www.w3.org/1999/02/22-rdf-syntax-ns#"
   xmlns:svg="http://www.w3.org/2000/svg"
   xmlns="http://www.w3.org/2000/svg"
   xmlns:sodipodi="http://sodipodi.sourceforge.net/DTD/sodipodi-0.dtd"
   xmlns:inkscape="http://www.inkscape.org/namespaces/inkscape"
   width="731.13342"
   height="653.62811"
   id="svg2"
   version="1.1"
   inkscape:version="0.91 r13725"
   sodipodi:docname="scanner.svg">
  <metadata
     id="metadata10">
    <rdf:RDF>
      <cc:Work
         rdf:about="">
        <dc:format>image/svg+xml</dc:format>
        <dc:type
           rdf:resource="http://purl.org/dc/dcmitype/StillImage" />
        <dc:title></dc:title>
      </cc:Work>
    </rdf:RDF>
  </metadata>
  <defs
     id="defs8" />
  <sodipodi:namedview
     pagecolor="#ffffff"
     bordercolor="#666666"
     borderopacity="1"
     objecttolerance="10"
     gridtolerance="10"
     guidetolerance="10"
     inkscape:pageopacity="0"
     inkscape:pageshadow="2"
     inkscape:window-width="1920"
     inkscape:window-height="1054"
     id="namedview6"
     showgrid="false"
     inkscape:zoom="0.55512094"
     inkscape:cx="504.13395"
     inkscape:cy="464.96074"
     inkscape:window-x="0"
     inkscape:window-y="0"
     inkscape:window-maximized="1"
     inkscape:current-layer="svg2"
     fit-margin-top="0"
     fit-margin-left="0"
     fit-margin-right="0"
     fit-margin-bottom="0" />
  <path
     style="fill:#000000"
     d="m 521.20385,639.67286 0.28238,-13.95528 69.77635,-0.26072 69.77636,-0.26072 0,14.216 0,14.216 -70.05873,0 -70.05873,0 0.28237,-13.95528 z m 163.40354,0 0.28238,-13.95528 22.8359,0 22.83589,0 0.28238,13.95528 0.28237,13.95528 -23.40064,0 -23.40065,0 0.28237,-13.95528 z m -555.89861,-2.225 C 109.8894,633.50477 58.522215,617.34154 39.487325,609.37337 33.048991,606.67824 29.274584,604.33626 25.849666,600.91133 17.769384,592.83105 11.524802,578.77603 11.496544,568.60598 11.473014,560.13618 24.102233,514.05168 53.141423,416.64224 87.733983,300.60453 93.638588,278.67036 94.433841,263.25099 95.096066,250.41091 93.099367,240.60432 87.583087,229.60419 80.055067,214.59241 70.986286,205.68065 47.679656,190.39166 41.071977,186.05706 32.821141,179.69897 29.344464,176.26256 19.95328,166.98016 9.7956856,149.38249 4.9435154,133.98879 0.5669054,120.10386 -0.7756246,108.5054 0.4115554,94.835895 4.2259654,50.91541 31.654993,16.89821 72.918013,4.9141 L 81.007122,2.56477 258.98786,2.2823 436.9686,1.99982 l 5.32248,2.43671 c 3.04113,1.39228 6.50892,3.99223 8.09051,6.06581 5.71759,7.49614 5.64173,6.23827 5.64173,93.5472 0,72.77926 -0.15893,80.69585 -1.68282,83.82406 -3.10598,6.37591 -5.50617,8.98884 -11.46493,12.48117 l -5.92486,3.47246 -42.98626,0.46441 c -47.55879,0.51382 -51.60371,0.96183 -63.79231,7.06549 -9.75343,4.88422 -22.75554,18.14766 -28.12226,28.6875 -6.73848,13.23387 -18.39291,47.22141 -25.75364,75.10473 -3.92166,14.85567 -3.86246,16.53375 0.71185,20.18361 2.01954,1.61139 4.75183,5.28869 6.07174,8.17178 4.29609,9.3839 4.76509,17.50527 4.07704,70.60017 l -0.63789,49.22405 -5.32277,4.88693 c -2.92752,2.68781 -7.77747,6.05856 -10.77766,7.49055 -5.06957,2.41972 -6.82254,2.64805 -24.81625,3.23251 l -19.36137,0.62887 -2.74932,9.13436 c -1.51212,5.0239 -8.32622,27.8598 -15.14243,50.74644 -18.93995,63.59417 -24.88377,79.21398 -33.3743,87.70451 -2.16002,2.16003 -7.4429,5.66481 -11.73972,7.78842 -6.96359,3.44159 -8.76743,3.89147 -16.60222,4.14063 -5.71629,0.18178 -11.98379,-0.38969 -17.92416,-1.63433 z M 425.57545,72.223999 c 0,-29.749129 -0.0413,-30.358529 -2.28359,-33.653059 -1.25597,-1.84541 -3.57311,-4.31072 -5.14919,-5.47847 l -2.86559,-2.12318 -163.07527,0 C 72.371208,30.96929 84.613166,30.52351 69.842905,37.60971 47.458996,48.34864 33.169907,69.721377 30.346537,96.685935 l -0.611052,5.835845 197.919975,0 197.91999,0 0,-30.297781 z m 96.07993,528.966141 c -0.37214,-0.37213 -0.67662,-12.47516 -0.67662,-26.89561 l 0,-26.21899 70.03009,0 70.03009,0 0,26.89561 0,26.89562 -69.35347,0 c -38.14441,0 -69.65795,-0.30448 -70.03009,-0.67663 z m 162.72692,-26.19994 0,-26.91466 23.36021,0 23.36022,0 -0.27059,26.64188 -0.27058,26.64188 -23.08963,0.27278 -23.08963,0.2728 0,-26.91468 z m -163.17927,-65.73569 0.2832,-13.44781 69.77635,-0.26072 69.77636,-0.26073 0,13.70853 0,13.70854 -70.05955,0 -70.05954,0 0.28318,-13.44781 z m 163.40354,0 0.2832,-13.44781 22.8359,0 22.83589,0 0.2832,13.44781 0.28319,13.44781 -23.40228,0 -23.40228,0 0.28318,-13.44781 z M 521.65538,472.29417 c -0.37214,-0.37213 -0.67662,-6.76618 -0.67662,-14.209 l 0,-13.53238 70.03009,0 70.03009,0 0,14.209 0,14.209 -69.35347,0 c -38.14441,0 -69.65795,-0.30446 -70.03009,-0.67662 z m 162.72692,-13.51333 0,-14.22805 23.37201,0 23.372,0 -0.28237,13.95527 -0.28238,13.95527 -23.08963,0.27278 -23.08963,0.27279 0,-14.22806 z m -163.16694,-66.75062 0.27087,-26.13442 69.77635,-0.26072 69.77636,-0.26073 0,26.39515 0,26.39514 -70.04722,0 -70.04722,0 0.27086,-26.13441 z m 163.16694,-0.27278 0,-26.40721 23.08963,0.27279 23.08963,0.27278 0.27087,26.13442 0.27086,26.13442 -23.36049,0 -23.3605,0 0,-26.4072 z M 521.66237,339.3455 c -0.37598,-0.37599 -0.68361,-5.85974 -0.68361,-12.18615 l 0,-11.50252 70.0623,0 70.0623,0 -0.28594,11.92541 -0.28594,11.92541 -69.09276,0.26074 c -38.001,0.14339 -69.40036,-0.0469 -69.77635,-0.42289 z m 163.41546,0.012 c -0.38253,-0.38259 -0.69553,-5.87171 -0.69553,-12.19811 l 0,-11.50252 23.37558,0 23.37557,0 -0.28594,11.92541 -0.28595,11.92541 -22.3941,0.27265 c -12.31675,0.14996 -22.70708,-0.0404 -23.08963,-0.42289 z m -164.09907,-77.99933 0,-26.89561 70.03009,0 70.03009,0 0,26.89561 0,26.89562 -70.03009,0 -70.03009,0 0,-26.89562 z m 163.40354,0 0,-26.89561 23.34337,0 23.34336,0 0,26.89561 0,26.89562 -23.34336,0 -23.34337,0 0,-26.89562 z m -163.40354,-78.65698 0,-26.38815 70.03009,0 70.03009,0 0,26.38815 0,26.38815 -70.03009,0 -70.03009,0 0,-26.38815 z m 163.40354,0 0,-26.38815 23.34337,0 23.34336,0 0,26.38815 0,26.38815 -23.34336,0 -23.34337,0 0,-26.38815 z M 521.66237,132.30001 c -0.37598,-0.37598 -0.68361,-6.31646 -0.68361,-13.20106 l 0,-12.51745 70.06042,0 70.0604,0 -0.28405,12.94034 -0.28405,12.94033 -69.09276,0.26073 c -38.001,0.14339 -69.40036,-0.0469 -69.77635,-0.42289 z m 163.41546,0.012 c -0.38253,-0.38259 -0.69553,-6.32842 -0.69553,-13.21304 l 0,-12.51744 23.37369,0 23.37368,0 -0.28405,12.94033 -0.28406,12.94034 -22.3941,0.27265 c -12.31675,0.14996 -22.70708,-0.0403 -23.08963,-0.42289 z m -164.09907,-64.805252 0,-14.716468 70.03009,0 70.03009,0 0,14.716468 0,14.716467 -70.03009,0 -70.03009,0 0,-14.716467 z m 163.40354,0 0,-14.716468 23.34337,0 23.34336,0 0,14.716468 0,14.716467 -23.34336,0 -23.34337,0 0,-14.716467 z M 521.20385,14.47673 521.48623,0.52146 591.26258,0.26073 661.03894,0 l 0,14.216 0,14.216 -70.05873,0 -70.05873,0 0.28237,-13.95527 z m 163.40354,0 0.28238,-13.95527 22.8359,0 22.83589,0 0.28238,13.95527 0.28237,13.95527 -23.40064,0 -23.40065,0 0.28237,-13.95527 z"
     id="path3349"
     inkscape:connector-curvature="0" />
</svg>
