<?xml version="1.0" encoding="UTF-8" standalone="no"?><svg xmlns="http://www.w3.org/2000/svg" width="740" height="739"><path d="M0 728.534v-10.502l213.25-.283 213.25-.282 8.456-2.268c10.003-2.682 25.135-9.645 32.378-14.899 47.102-34.165 54.21-101.124 15.186-143.077-12.797-13.758-28.263-23.309-46.02-28.42l-8-2.302-214.25-.266L0 525.969V505h211.369c186.304 0 212.422.184 220.246 1.548C490.278 516.778 531.862 568.83 528.64 628c-.344 6.325-1.054 13.287-1.578 15.472-.524 2.184-.844 4.08-.711 4.213.132.132 25.276-22.58 55.875-50.472 50.424-45.964 69.29-63.272 103.507-94.953 16.953-15.698 25.881-30.41 30.961-51.023 2.59-10.508 2.344-32.291-.493-43.614-9.695-38.689-42.176-67.67-81.348-72.582-4.566-.573-20.576-1.041-35.578-1.041H572l-.043 11.25-.043 11.25-33.189 29a70836.06 70836.06 0 0 0-73.396 64.252l-40.208 35.253-212.31-.253L.5 484.5.247 306.835l-.253-177.666 73.707-64.584L147.408 0H572v312.802l33.75.478c36.379.516 41.879 1.187 57.25 6.99 70.046 26.438 98.516 109.082 59.159 171.728-7.553 12.021-13.864 18.882-33.173 36.062C665.187 549.235 505.947 693.965 496 703.46c-18.122 17.3-33.03 25.784-56.915 32.39l-9.585 2.65-214.75.268L0 739.036v-10.502zM402 307V152H24v310h378V307zm-251.785-55.257c-4.947-1.585-12.207-8.53-14.85-14.205-3.184-6.838-3.184-15.238 0-22.076 2.794-5.999 9.984-12.65 15.442-14.286 2.817-.844 20.544-1.173 62.809-1.166l58.884.01 5.056 2.354C286.538 206.556 293 216.65 293 226.5c0 9.849-6.462 19.944-15.444 24.126l-5.056 2.354-59.5-.092c-38.646-.06-60.651-.461-62.785-1.145zm338.113 148.332c32.928-28.834 60.053-52.91 60.278-53.5.224-.591.292-68.951.15-151.911L548.5 43.827l-20.25 17.701L508 79.229v87.64l-21.75 19.03-21.75 19.03-.5-43.335-.5-43.337-19.25 16.909L425 152.074V303.66c0 143.555.092 151.512 1.73 150.212.951-.754 28.67-24.963 61.598-53.797zm-52.21-287.184c10.11-8.86 19.497-17.185 20.86-18.5L459.454 92H75.994l-19.972 17.555c-10.984 9.655-20.235 17.98-20.556 18.5-.366.592 70.886.945 190.843.945h191.426l18.383-16.109zm86.83-76.141l15.184-13.25-191.653-.253-191.653-.252-14.913 13.081C131.71 43.271 125 49.348 125 49.58c0 .232 86.122.421 191.382.421h191.382l15.184-13.25zM78.723 692.913c-26.759-3.592-49.161-22.047-58.39-48.103-3.451-9.74-4.363-28.72-1.889-39.31 8.282-35.452 44.171-60.079 79.533-54.575 16.753 2.607 28.424 8.52 40.61 20.575 9.004 8.905 14.209 17.274 18.244 29.333 2.25 6.727 2.564 9.323 2.557 21.167-.007 12.107-.29 14.326-2.755 21.5-11.474 33.4-43.916 53.975-77.91 49.413zm161.816.012c-18.523-2.815-35.246-12.126-46.134-25.683-5.117-6.373-12.544-21.171-14.294-28.482-5.786-24.174 1.478-49.508 19.31-67.34 34.918-34.917 93.64-25.152 114.723 19.08 5.438 11.408 7.2 19.112 7.205 31.5.01 28.093-15.697 52.842-41.03 64.65-12.05 5.617-27.784 8.099-39.78 6.275zm161.27-.04c-22.649-2.92-44.388-18.67-54.302-39.34-10.097-21.052-10.13-42.782-.094-63.045 9.471-19.124 26.134-32.792 46.587-38.213 8.756-2.32 26.244-2.32 35 0 32.162 8.525 54 36.717 54 69.713 0 36.137-26.965 66.422-63.183 70.964-9.089 1.14-8.533 1.142-18.008-.08z"/></svg>