<?xml version="1.0" encoding="UTF-8" standalone="no"?><svg xmlns="http://www.w3.org/2000/svg" width="750" height="653.876"><path d="M.465 378.399V133.34h46.92V61.265h56.547V0H316.28l19.851 20.991a22224.397 22224.397 0 0 0 47.342 49.834l27.492 28.843H750v414.438h-57.749v60.064h-69.78v49.252H.465V378.364zm339.877 199.329c16.503-2.375 29.537-6.544 45.609-14.59 13.84-6.926 26.358-16.17 38.198-28.2 14.166-14.393 23.644-28.734 32.404-49.025 3.617-8.38 8.47-27.887 8.516-34.236.013-2.313.32-4.677.676-5.254 1.693-2.747-.238-35.086-2.742-45.854-6.5-27.983-19.292-50.762-40.14-71.48-37.413-37.177-90.655-50.826-143.277-36.731-25.422 6.809-53.663 25.002-70.71 45.553-20.6 24.835-30.648 48.725-34.05 80.957-2.97 28.133 2.517 56.436 15.856 81.794 7.737 14.707 13.717 22.742 26.22 35.226 12.123 12.104 19.963 18.009 33.887 25.521 17.268 9.318 31.11 13.894 49.25 16.28 5.624.744 11.579 1.562 13.233 1.825 3.795.6 16.125-.218 27.07-1.787zm-40.304-33.009c-14.384-2.822-20.166-4.844-33.659-11.77-14.77-7.583-31.4-22.256-40.815-36.012-6.147-8.983-14.617-28.21-15.827-35.927-.078-.485-.885-3.996-1.796-7.808-1.885-7.878-2.237-30.957-.582-38.165.606-2.642 1.37-6.288 1.695-8.1 1.674-9.34 9.655-27.655 16.487-37.83 4.966-7.396 19.204-22.063 27.29-28.113 12.269-9.179 27.031-15.915 42.962-19.603 10.726-2.484 37.47-2.484 48.196 0 39.15 9.065 69.067 35.006 83.002 71.97 8.484 22.507 9.076 51.388 1.526 74.532-9.58 29.377-30.006 53.088-57.495 66.744-20.899 10.382-49.06 14.381-70.984 10.082zm87.004-101.52c5.523-6.44 6.137-10.04 2.86-16.749-4.265-8.736-7.194-9.607-32.356-9.608H336.25l-.357-40.766-.357-40.767-3.559-3.707c-7.327-7.634-18.1-7.428-24.125.454l-2.995 3.92v104l4.297 4.046 4.296 4.046h69.422l4.177-4.873zm282.053-75.31l.303-184.095H343.543l-27.39-29.13c-15.062-16.023-36.486-38.457-47.606-49.854L248.33 84.088H70.245v49.252h124.896l16.055 16.98c8.83 9.337 19.573 20.597 23.875 25.021 4.3 4.424 18.58 19.217 31.73 32.873l23.909 24.831h331.76v319.59l23.16-.326 23.16-.327.303-184.095zm58.046-60.965V122.529H401.494l-8.292-8.71c-4.56-4.789-20.003-20.871-34.316-35.737-14.313-14.865-31.908-33.381-39.1-41.143l-13.078-14.116H127.994v38.441h129.844l16.653 17.118c9.16 9.415 21.482 22.254 27.385 28.53 5.902 6.276 19.644 20.602 30.538 31.834l19.806 20.422 169.715.6 169.714.601.304 165.474.303 165.475h34.882V306.924z"/><path d="M-.006 602.197h621.95v51.7H-.006z"/></svg>