<?xml version="1.0" encoding="UTF-8" standalone="no"?><svg xmlns="http://www.w3.org/2000/svg" width="739.016" height="550.003"><path d="M0 492.501V435h175V255h23v-27h-41v-49H49.89l-23.432-18.076c-12.888-9.942-23.673-18.464-23.966-18.94-.294-.474 10.322-9.215 23.591-19.423L50.207 104H157V55h451v45h41V0h41v17h49v48h-48.99l-.254 108.25-.255 108.25h-40l-.259-49.25-.26-49.25h-40.98v45H496v27h51l.016 8.25c.052 24.518 11.716 44.486 31.884 54.58 9.015 4.512 14.289 5.76 28.35 6.703l9.75.654V435h122.015l-.258 57.25-.258 57.25-369.25.251L0 550.003V492.5zM592 406v-29H200v58h392v-29zm0-55.863c0-1.47-1.269-2.133-6.005-3.138-7.696-1.633-18.934-6.524-26.443-11.508-17.124-11.367-30.634-30.44-34.916-49.295l-1.294-5.696-13.67.017c-7.52.009-80.272.121-161.672.25L200 281v71h196c190.543 0 196-.052 196-1.863zM583 141.5V80H182.5v123H583v-61.5z"/></svg>