<?xml version="1.0" encoding="UTF-8" standalone="no"?><svg xmlns="http://www.w3.org/2000/svg" width="660" height="739"><path d="M0 630V521h71V218H0V0h112v73h71v75h70v69h69.978l.26 40.75.262 40.75 50.66.26 50.661.258.644-3.81c.964-5.71-1.21-24.102-3.978-33.654-3.254-11.232-12.343-29.546-14.665-29.552-.372-.001-2.296 2.663-4.275 5.921-4.756 7.829-13.145 15.37-20.3 18.247-8.639 3.473-21.819 3.302-28.837-.375-10.296-5.394-15.796-14.7-15.836-26.795-.02-6.322.459-8.529 3.053-14.047 5.333-11.345 13.994-18.981 25.352-22.354 10.189-3.026 16.725-2.169 30.642 4.018 1.625.722 2.153-1.3 3.423-13.096 3.238-30.079-7.374-60.982-27.059-78.796C366.86 99.18 355.935 93 352.262 93 347.973 93 342 100.11 342 105.215c0 1.273.927 4.044 2.06 6.157 1.132 2.113 1.87 4.031 1.64 4.262-.232.231-3.738 2.902-7.793 5.935-8.423 6.302-8.013 6.417-12.736-3.569-2.087-4.415-2.597-6.98-2.586-13 .017-9.203 2.307-14.832 8.905-21.885 5.274-5.64 11.076-8.723 18.183-9.666 15.292-2.029 40.055 14.887 53.568 36.592 16.171 25.974 21.352 60.85 13.767 92.684l-1.794 7.53 4.968 6.123c6.602 8.134 12.48 18.104 16.383 27.782 2.124 5.269 3.4 7.375 3.813 6.297.342-.892.684-14.971.76-31.289.076-16.317.414-36.897.75-45.732l.612-16.063 57.644 35.563c31.704 19.56 57.332 35.9 56.951 36.313-.38.412-25.646 15.065-56.144 32.563-49.392 28.338-55.451 32.081-55.451 34.251v2.437l107.25.255 107.25.254V440H323v82h-70v67.974l-34.75.263-34.75.263-.262 37.237-.262 37.237-35.238.263-35.238.263-.262 36.75-.263 36.75H0V630zm303-261.005V235.991l-105.75.254-105.75.255-.254 132.75L90.993 502H303V368.995zm151.637 49.255c-.274-.963-5.501-22.225-11.617-47.25-6.115-25.025-11.565-47.191-12.11-49.259l-.992-3.758-53.209.258-53.209.259-.26 50.75-.258 50.75h66.076c62.453 0 66.05-.096 65.58-1.75zm58.86.5c-.242-.688-5.643-22.625-12.004-48.75-6.36-26.125-11.989-48.513-12.507-49.75-.93-2.218-1.203-2.25-19.465-2.25-10.186 0-18.529.338-18.539.75-.01.412 5.503 23.36 12.25 50.994L475.5 419.99l19.219.006c14.944.004 19.12-.273 18.778-1.245zm48.029-48.045c-6.685-27.112-12.449-50.062-12.809-51-.584-1.522-2.644-1.705-19.186-1.705-14.154 0-18.533.295-18.54 1.25-.004.688 5.499 23.637 12.229 51L535.456 420h38.224l-12.154-49.295zm75.102 47.767c-.323-.84-6.682-22.778-14.133-48.75-7.45-25.972-13.975-48.234-14.5-49.472-.939-2.219-1.211-2.25-19.582-2.25h-18.63l.684 2.75c.89 3.579 26.28 91.749 27.645 96l1.043 3.25h19.03c16.658 0 18.956-.19 18.443-1.528zM640 337.5V318h-5.5c-3.593 0-5.5.414-5.5 1.193 0 1.5 10.265 37.807 10.688 37.807.172 0 .312-8.775.312-19.5zm-152.984-96.354c4.345-2.312 7.946-8.418 7.968-13.51C495.017 219.76 487.58 212 480 212c-4.602 0-10.413 3.61-12.882 8.004-7.499 13.343 6.534 28.253 19.898 21.142zM375.5 237.11c2.2-1.015 4.97-2.918 6.155-4.228 2.752-3.042 9.34-14.013 9.342-15.56.004-1.815-10.417-6.322-14.62-6.322-11.783 0-22.629 13.811-17.95 22.86.865 1.672 2.36 3.5 3.323 4.06 2.75 1.601 9.37 1.211 13.75-.81zM509 170.392c-31.625-19.562-57.57-35.64-57.655-35.73-.085-.089 1.14-29.637 2.723-65.662 1.582-36.025 2.889-66.287 2.904-67.25C456.998.102 460.705 0 520.58 0h63.58l-.615 6.25c-.337 3.438-3.73 46.975-7.54 96.75-7.75 101.27-7.9 103.008-8.835 102.98-.368-.012-26.545-16.026-58.17-35.588z"/></svg>