<?xml version="1.0" encoding="UTF-8" standalone="no"?><svg xmlns="http://www.w3.org/2000/svg" width="739.763" height="739.002"><path d="M44.248 694.745L0 650.488l24.485-24.469 24.484-24.47 4.303 4.224 4.303 4.223 1.664-2.817c3.55-6.01 20.492-29.246 29.594-40.587 34.508-43 81.48-87.18 123.84-116.482l14.168-9.801-4.157-4.158-4.158-4.158 24.477-24.492 24.477-24.492 10.528 10.495c5.79 5.773 10.98 10.496 11.534 10.496.553 0 4.679-3.712 9.168-8.25l8.162-8.25-50.741-51.436-50.742-51.436-4.443 1.797c-6.456 2.61-18.394 6.077-26.443 7.68-10.825 2.157-44.654 1.897-55.5-.425-20.029-4.29-40.47-13.136-56.264-24.35-10.532-7.476-27.589-24.534-35.066-35.066C15.766 217.494 6.509 195.408 2.413 174 1.092 167.094.589 159.67.571 146.812c-.014-9.728.25-17.962.584-18.297.335-.335 23.276 16.152 50.979 36.638 27.703 20.486 52.758 38.696 55.677 40.466 13.626 8.266 32.74 5.726 43.812-5.823 5.683-5.927 44.296-59.145 47.376-65.296 2.172-4.337 2.504-6.327 2.504-15 0-11.045-1.598-16.048-7.508-23.511-1.69-2.134-26.73-21.345-56.127-43.06L84.793 13.72l6.855-2.93C110.831 2.587 128.561-.448 152.94.296c25.143.768 37.44 3.863 60.563 15.242 28.4 13.975 51.644 37.231 65.927 65.961 10.256 20.628 14.388 37.012 15.26 60.5.626 16.89-.446 28.338-3.885 41.5-1.15 4.4-2.139 9.157-2.196 10.57-.087 2.108 9.255 12.068 51.854 55.288l51.96 52.717 66.878-66.788c36.783-36.733 69.426-69.884 72.54-73.669 20.979-25.496 28.484-35.73 39.838-54.317 17.015-27.855 39.404-53.662 59.123-68.148C638.49 33.505 693.282 0 694.832 0c.378 0 10.643 10.012 22.81 22.25l22.12 22.25-16.129 26.844c-19.156 31.88-27.4 43.259-42.13 58.148-10.55 10.665-29.808 25.994-41.189 32.786-21.91 13.077-42.36 27.726-59.76 42.81-5.528 4.791-40.045 38.794-76.705 75.562l-66.654 66.85 99.99 101c186.574 188.46 194.473 196.59 197.753 203.525 6.144 12.992 6.097 25.986-.14 38.975-2.505 5.214-6.107 9.53-18.207 21.817-20.227 20.54-27.045 24.838-41.088 25.9-8.703.66-17.894-1.52-25.321-6.004-3.715-2.243-49.588-48.008-151.907-151.549L351.689 432.828l-8.58 8.581-8.581 8.581 10.733 10.767 10.734 10.767-24.476 24.46-24.476 24.46-4.115-3.972-4.115-3.972-1.655 2.464c-21.318 31.744-41.2 55.955-70.125 85.396-29.204 29.724-55.591 52.412-82.762 71.158-7.022 4.845-13.196 9.186-13.719 9.647-.57.502.621 2.449 2.975 4.86l3.926 4.02-24.478 24.478-24.478 24.479-44.249-44.257zm644.47 1.4c21.838-11.14 15.163-44.412-9.221-45.965-7.76-.494-11.977.83-17.383 5.457-5.974 5.114-8.444 10.436-8.536 18.388-.124 10.824 6.01 19.83 16.053 23.568 5.069 1.886 13.859 1.22 19.087-1.448z"/></svg>