<?xml version="1.0" encoding="UTF-8" standalone="no"?><svg xmlns="http://www.w3.org/2000/svg" width="723.853" height="723.567" viewBox="0 0 723.853 723.568"><path d="M321.57 714.699c0-11.354 2.173-23.742 6.039-34.425 9.974-27.566 36.791-52.236 69.586-64.014 28.964-10.403 46.44-24.522 60.932-49.226.974-1.66 1.544-1.472 7.232 2.39 8.853 6.012 20.642 11.673 30.858 14.817 8.205 2.526 10.134 2.725 26.353 2.725 16.195 0 18.156-.202 26.3-2.71 10.933-3.365 21.571-8.366 30.414-14.296 6.106-4.094 6.884-4.376 7.785-2.816 8.738 15.133 22.831 29.783 36.28 37.712 4.467 2.634 13.882 7.074 20.922 9.866 23.013 9.13 35.72 16.618 48.243 28.432 20.095 18.957 29.533 39.569 30.754 67.164l.585 13.25H321.57v-8.87zm-47.975-15.207c-41.766-9.81-79.741-26.316-116.025-50.432-19.238-12.787-32.878-23.716-49.355-39.55C49.596 553.188 12.982 480.386 1.872 398.069c-2.498-18.51-2.495-70.69.005-88.391 6.09-43.122 16.914-78.391 35.171-114.61 18.772-37.24 39.989-66.124 70.208-95.582C162.49 45.64 231.772 12.38 310.57 1.874c16.933-2.258 66.649-2.545 83-.48 59.818 7.554 108.848 25.57 157 57.69 21.332 14.23 34.814 25.266 53.09 43.462 22.952 22.85 38.537 42.738 55.167 70.403 45.14 75.093 60.238 165.794 42.253 253.82-9.27 45.364-30.494 93.982-57.646 132.049-3.825 5.362-7.101 9.75-7.28 9.75-.304 0-19.468-22.39-22.464-26.244-1.197-1.541-.403-3.198 6.803-14.199 29.222-44.612 46.845-96.587 51.032-150.507 9.097-117.138-49.008-231.705-149.085-293.956-39.345-24.474-81.081-39.292-128.87-45.756-16.696-2.257-59.793-2.549-76-.513-62.645 7.869-119.516 32.146-166.393 71.03C88.613 160.319 49.32 231.477 37.897 313.568c-2.198 15.795-2.496 61.192-.505 77 5.633 44.735 19.71 86.888 41.296 123.658 46.54 79.28 124.603 134.844 214.009 152.332l5.626 1.1-3.43 13.705c-5.488 21.932-5.245 21.211-7.112 21.132-.941-.04-7.325-1.392-14.186-3.003zM217.07 601.36c-8.652-3.024-14.044-11.225-13.297-20.226.341-4.117 1.697-7.529 6.035-15.189 6.178-10.908 8.501-13.536 13.993-15.83 14.616-6.107 30.598 7.16 26.8 22.245-1.56 6.195-11.446 22.673-15.333 25.557-5.915 4.39-12.128 5.565-18.198 3.443zm297.5-44.898c-27.6-3.52-52.129-24.34-69.457-58.958-9.55-19.08-17.165-44.457-19.21-64.014l-.642-6.15 2.904.588c27.245 5.516 86.787 8.725 124.905 6.732 20.724-1.084 51.756-4.08 61.924-5.98l4.576-.855v3.32c0 10.169-7.58 39.474-14.466 55.922-19.878 47.486-54.46 73.994-90.534 69.395zm-396.5-52.283c-4.384-1.914-10.275-8.894-11.067-13.115-1.065-5.678.09-12.178 2.923-16.46 1.937-2.927 5.311-5.451 13.256-9.917 5.861-3.294 12.346-6.275 14.41-6.624 9.202-1.555 18.833 4.757 21.557 14.127 1.408 4.844 1.411 5.898.032 10.641-1.986 6.832-5.689 10.347-18.162 17.238-8.41 4.647-10.723 5.492-14.95 5.458-2.75-.021-6.35-.628-8-1.348zm72.915-47.966c-11.367-5.198-9.496-18.73 4.4-31.827 5.688-5.36 16.41-11.923 70.677-43.255 35.185-20.315 66.94-38.287 70.568-39.938 6.41-2.918 6.66-3.172 8.884-9.064 3.259-8.63 4.458-10.765 60.143-107.062 27.67-47.85 51.62-89.7 53.225-93 4.548-9.357 10.706-19.732 13.491-22.733 3.923-4.225 10.105-6.166 17.256-5.419 7.96.832 9.205 1.623 13.004 8.262 3.977 6.952 4.435 13.874 1.316 19.917-8.866 17.177-23.685 43.348-67.356 118.95-51.948 89.935-53.204 92.029-61.185 102.023a1026.75 1026.75 0 0 0-8.874 11.295c-2.246 2.913-6.688 7.213-9.87 9.557-9.138 6.727-132.87 77.78-140.094 80.45-8.095 2.99-21.037 3.923-25.585 1.844zm304.585-36.262c-24.555-1.21-58.405-5.121-79.5-9.187l-9-1.734.026-10.982c.03-12.06 1.64-18.606 6.043-24.575 2.688-3.643 8.896-7.893 11.543-7.901 1.279-.004 1.753-1.564 2.296-7.552 2.4-26.497 17.498-52.502 38.112-65.648 6.63-4.227 16.176-8.805 18.362-8.805.643 0 1.122 8.19 1.315 22.479.303 22.463.304 22.48 2.803 24.976 3.531 3.526 7.744 4.093 11.775 1.583 1.8-1.122 3.713-3.193 4.25-4.604.545-1.435.975-14.4.975-29.434 0-15.036.43-28 .975-29.435 1.89-4.972 6.329-6.558 18.37-6.562 8.198-.003 11.514.391 13.583 1.613 5.464 3.228 5.533 3.627 6.072 35.056.495 28.902.521 29.195 2.845 31.665 3.13 3.33 6.396 4.006 10.682 2.216 5.818-2.431 6.473-5.368 6.473-29.021 0-15.76.29-20.532 1.25-20.532.687 0 4.05 1.326 7.475 2.946 16.578 7.843 30.347 21.352 38.784 38.054 5.367 10.622 7.404 18.21 10.094 37.596.36 2.595 1.06 3.286 4.32 4.263 9.722 2.912 16.046 17.023 16.07 35.852l.01 6.211-3.75.995c-10.351 2.745-42.428 7.283-64.25 9.089-13.154 1.088-65.21 2.008-78 1.378zM82.577 371.975c-15.081-6.54-16.143-28.06-1.756-35.593 3.446-1.805 6.33-2.3 15.268-2.62 13.979-.502 18.624.686 24.1 6.162 7.279 7.279 8.242 17.393 2.422 25.428-4.788 6.61-9.542 8.222-24.107 8.176-8.829-.027-13.447-.478-15.927-1.553zm44.475-126.889c-12.8-6.695-17.011-9.914-19.383-14.814-6.484-13.394 3.02-28.704 17.816-28.704 5.354 0 21.022 8.061 27.21 14 6.94 6.66 8.51 15.004 4.34 23.067-3.15 6.09-11.398 10.912-18.69 10.927-1.5.003-6.582-2.011-11.293-4.476zm434.018 1.06c-3.765-1.685-9.044-7.194-10.439-10.894-2.5-6.631-.754-14.958 4.306-20.536 3.105-3.422 19.76-12.996 24.27-13.95 14.718-3.114 27.316 10.182 23.286 24.576-1.705 6.09-6.377 10.498-17.991 16.976-8.238 4.594-10.102 5.245-14.923 5.21-3.03-.021-6.86-.643-8.51-1.382zm-336.68-88.764c-2.022-.539-5.272-2.405-7.22-4.147-4.206-3.76-13.175-19.092-14.69-25.11-3.836-15.233 13.756-28.898 27.88-21.655 5.146 2.64 7.175 5.113 13.608 16.59 4.75 8.474 5.598 10.756 5.58 15-.042 9.552-5.58 16.973-14.478 19.404-4.614 1.26-5.666 1.252-10.68-.082zm121.671-34.68c-5.19-2.357-10.181-8.094-11.192-12.863-1.032-4.87-1.032-21.673 0-26.543 1.595-7.524 10.739-14.728 18.693-14.728 7.736 0 14.506 4.192 18.105 11.21 1.584 3.089 1.903 5.9 1.903 16.79 0 10.89-.319 13.7-1.903 16.79-5.007 9.762-15.92 13.745-25.606 9.345z"/></svg>